<svg width="40" height="40" viewBox="0 0 40 40" fill="none" xmlns="http://www.w3.org/2000/svg">
<path d="M24.55 3.33337H15.45V10.6H24.55V3.33337Z" fill="#47579D"/>
<path d="M27.05 3.33337V10.6H36.45C35.6 6.01671 32.2167 3.35004 27.05 3.33337Z" fill="#47579D"/>
<path d="M3.33334 13.1V26.9833C3.33334 33.05 6.95 36.6666 13.0167 36.6666H26.9833C33.05 36.6666 36.6667 33.05 36.6667 26.9833V13.1H3.33334ZM24.0667 26.9666L20.6 28.9666C19.8667 29.3833 19.15 29.6 18.4833 29.6C17.9833 29.6 17.5333 29.4833 17.1167 29.25C16.15 28.7 15.6167 27.5666 15.6167 26.1V22.1C15.6167 20.6333 16.15 19.5 17.1167 18.95C18.0833 18.3833 19.3167 18.4833 20.6 19.2333L24.0667 21.2333C25.35 21.9666 26.05 23 26.05 24.1166C26.05 25.2333 25.3333 26.2166 24.0667 26.9666Z" fill="#47579D"/>
<path d="M12.95 3.33337C7.78334 3.35004 4.4 6.01671 3.55 10.6H12.95V3.33337Z" fill="#47579D"/>
</svg>
