<svg width="40" height="40" viewBox="0 0 40 40" fill="none" xmlns="http://www.w3.org/2000/svg">
<path d="M19.9 3.68334L15.8834 13.0333H11.8667C11.2 13.0333 10.55 13.0833 9.91669 13.2167L11.5834 9.21667L11.65 9.06667L11.75 8.8C11.8 8.68334 11.8334 8.58334 11.8834 8.5C13.8167 4.01667 15.9834 2.61667 19.9 3.68334Z" fill="#47579D"/>
<path d="M31.2166 13.4834L31.1833 13.4667C30.1833 13.1834 29.1666 13.0334 28.1333 13.0334H17.7L21.45 4.31674L21.5 4.20007C21.7333 4.28341 21.9833 4.40007 22.2333 4.48341L25.9166 6.03341C27.9666 6.88341 29.4 7.76674 30.2833 8.83341C30.4333 9.03341 30.5666 9.21674 30.7 9.43341C30.85 9.66674 30.9667 9.90007 31.0333 10.1501C31.1 10.3001 31.15 10.4334 31.1833 10.5834C31.4333 11.4334 31.45 12.4001 31.2166 13.4834Z" fill="#47579D"/>
<path d="M30.4833 15.8665C29.7333 15.6499 28.95 15.5332 28.1333 15.5332H11.8666C10.7333 15.5332 9.66664 15.7499 8.66664 16.1832C5.76664 17.4332 3.73331 20.3165 3.73331 23.6665V26.9165C3.73331 27.3165 3.76664 27.6999 3.81664 28.0999C4.18331 33.3999 7.01664 36.2332 12.3166 36.5832C12.7 36.6332 13.0833 36.6665 13.5 36.6665H26.5C32.6666 36.6665 35.9166 33.7332 36.2333 27.8999C36.25 27.5832 36.2666 27.2499 36.2666 26.9165V23.6665C36.2666 19.9832 33.8166 16.8832 30.4833 15.8665ZM24.1666 27.9165H15.8333C15.15 27.9165 14.5833 27.3499 14.5833 26.6665C14.5833 25.9832 15.15 25.4165 15.8333 25.4165H24.1666C24.85 25.4165 25.4166 25.9832 25.4166 26.6665C25.4166 27.3499 24.85 27.9165 24.1666 27.9165Z" fill="#47579D"/>
</svg>
