<svg width="40" height="40" viewBox="0 0 40 40" fill="none" xmlns="http://www.w3.org/2000/svg">
<path d="M35.1 19.7L34.8333 19.3333C34.3666 18.7667 33.8166 18.3167 33.1833 17.9833C32.3333 17.5 31.3666 17.25 30.3666 17.25H9.61665C8.61665 17.25 7.66665 17.5 6.79998 17.9833C6.14998 18.3333 5.56665 18.8167 5.08332 19.4167C4.13332 20.6333 3.68332 22.1333 3.83332 23.6333L4.44998 31.4167C4.66665 33.7667 4.94998 36.6667 10.2333 36.6667H29.7667C35.05 36.6667 35.3166 33.7667 35.55 31.4L36.1666 23.65C36.3167 22.25 35.95 20.85 35.1 19.7ZM23.9833 28.9H16C15.35 28.9 14.8333 28.3667 14.8333 27.7333C14.8333 27.1 15.35 26.5667 16 26.5667H23.9833C24.6333 26.5667 25.15 27.1 25.15 27.7333C25.15 28.3833 24.6333 28.9 23.9833 28.9Z" fill="#47579D"/>
<path d="M34.3144 14.9005C34.3385 15.2844 33.9259 15.5399 33.5708 15.3918C32.5714 14.9751 31.5034 14.7667 30.3834 14.7667H9.61669C8.49417 14.7667 7.39257 14.9865 6.39482 15.4011C6.04374 15.547 5.63336 15.3018 5.63336 14.9216V11.1C5.63336 5.15004 7.45003 3.33337 13.4 3.33337H15.3667C17.75 3.33337 18.5 4.10004 19.4667 5.35004L21.4667 8.01671C21.8834 8.58337 21.9 8.61671 22.6334 8.61671H26.6C32.0335 8.61671 34.0143 10.1347 34.3144 14.9005Z" fill="#47579D"/>
</svg>
