<svg width="40" height="40" viewBox="0 0 40 40" fill="none" xmlns="http://www.w3.org/2000/svg">
<path d="M36.6667 21.4333C36.6667 25.25 34.7 28.6333 31.6667 30.7667L29.4333 35.6833C28.9167 36.8 27.4167 37.0167 26.6333 36.0667L24.1667 33.1C21.0667 33.1 18.2167 32.05 16.05 30.3L17.05 29.1167C24.75 28.5333 30.8333 22.4333 30.8333 15C30.8333 13.7333 30.65 12.4833 30.3167 11.2833C34.1 13.2833 36.6667 17.0833 36.6667 21.4333Z" fill="#47579D"/>
<path d="M27.1667 10.1167C25.2167 6.11671 20.8667 3.33337 15.8333 3.33337C8.93334 3.33337 3.33334 8.55004 3.33334 15C3.33334 18.8167 5.30001 22.2 8.33334 24.3334L10.5667 29.25C11.0833 30.3667 12.5833 30.5667 13.3667 29.6334L14.2833 28.5334L15.8333 26.6667C22.7333 26.6667 28.3333 21.45 28.3333 15C28.3333 13.25 27.9167 11.6 27.1667 10.1167ZM20 16.25H11.6667C10.9833 16.25 10.4167 15.6834 10.4167 15C10.4167 14.3167 10.9833 13.75 11.6667 13.75H20C20.6833 13.75 21.25 14.3167 21.25 15C21.25 15.6834 20.6833 16.25 20 16.25Z" fill="#47579D"/>
</svg>
