<svg width="40" height="40" viewBox="0 0 40 40" fill="none" xmlns="http://www.w3.org/2000/svg">
<path d="M36.6667 31.6667V36.6667H3.33333V31.6667C3.33333 30.75 4.08333 30 4.99999 30H35C35.9167 30 36.6667 30.75 36.6667 31.6667Z" fill="#47579D" stroke="#47579D" stroke-width="1.5" stroke-miterlimit="10" stroke-linecap="round" stroke-linejoin="round"/>
<path d="M11.6667 18.3334H8.33333V30H11.6667V18.3334Z" fill="#47579D"/>
<path d="M18.3333 18.3334H15V30H18.3333V18.3334Z" fill="#47579D"/>
<path d="M25 18.3334H21.6667V30H25V18.3334Z" fill="#47579D"/>
<path d="M31.6667 18.3334H28.3333V30H31.6667V18.3334Z" fill="#47579D"/>
<path d="M38.3333 37.9166H1.66667C0.983338 37.9166 0.416672 37.35 0.416672 36.6666C0.416672 35.9833 0.983338 35.4166 1.66667 35.4166H38.3333C39.0167 35.4166 39.5833 35.9833 39.5833 36.6666C39.5833 37.35 39.0167 37.9166 38.3333 37.9166Z" fill="#47579D"/>
<path d="M35.6167 9.58328L20.6167 3.58328C20.2833 3.44994 19.7167 3.44994 19.3833 3.58328L4.38333 9.58328C3.8 9.81661 3.33333 10.4999 3.33333 11.1333V16.6666C3.33333 17.5833 4.08333 18.3333 4.99999 18.3333H35C35.9167 18.3333 36.6667 17.5833 36.6667 16.6666V11.1333C36.6667 10.4999 36.2 9.81661 35.6167 9.58328ZM20 14.1666C18.6167 14.1666 17.5 13.0499 17.5 11.6666C17.5 10.2833 18.6167 9.16661 20 9.16661C21.3833 9.16661 22.5 10.2833 22.5 11.6666C22.5 13.0499 21.3833 14.1666 20 14.1666Z" fill="#47579D"/>
</svg>
