<svg width="40" height="41" viewBox="0 0 40 41" fill="none" xmlns="http://www.w3.org/2000/svg">
<path d="M26.9833 3.83337H13.0167C6.95 3.83337 3.33334 7.45004 3.33334 13.5167V27.4667C3.33334 33.55 6.95 37.1667 13.0167 37.1667H26.9667C33.0333 37.1667 36.65 33.55 36.65 27.4834V13.5167C36.6667 7.45004 33.05 3.83337 26.9833 3.83337ZM28.7667 17.1L24.9167 22.0667C24.4333 22.6834 23.75 23.0834 22.9667 23.1667C22.1833 23.2667 21.4167 23.05 20.8 22.5667L17.75 20.1667C17.6333 20.0667 17.5 20.0667 17.4333 20.0834C17.3667 20.0834 17.25 20.1167 17.15 20.25L13.1833 25.4C12.9333 25.7167 12.5667 25.8834 12.2 25.8834C11.9333 25.8834 11.6667 25.8 11.4333 25.6167C10.8833 25.2 10.7833 24.4167 11.2 23.8667L15.1667 18.7167C15.65 18.1 16.3333 17.7 17.1167 17.6C17.8833 17.5 18.6667 17.7167 19.2833 18.2L22.3333 20.6C22.45 20.7 22.5667 20.7 22.65 20.6834C22.7167 20.6834 22.8333 20.65 22.9333 20.5167L26.7833 15.55C27.2 15 28 14.9 28.5333 15.3334C29.0833 15.7834 29.1833 16.5667 28.7667 17.1Z" fill="#47579D"/>
</svg>
