<svg width="40" height="39" viewBox="0 0 40 39" fill="none" xmlns="http://www.w3.org/2000/svg">
<path d="M29.2167 12.6263C29.1 12.61 28.9833 12.61 28.8667 12.6263C26.2833 12.545 24.2333 10.4812 24.2333 7.94625C24.2333 5.3625 26.3833 3.25 29.05 3.25C31.7 3.25 33.8667 5.34625 33.8667 7.94625C33.85 10.4812 31.8 12.545 29.2167 12.6263Z" fill="#47579D"/>
<path d="M34.65 23.8875C32.7833 25.1063 30.1667 25.5613 27.75 25.2525C28.3833 23.92 28.7167 22.4413 28.7333 20.8813C28.7333 19.2563 28.3667 17.7125 27.6667 16.3638C30.1333 16.0388 32.75 16.4938 34.6333 17.7125C37.2667 19.4025 37.2667 22.1813 34.65 23.8875Z" fill="#47579D"/>
<path d="M10.7333 12.6263C10.85 12.61 10.9667 12.61 11.0833 12.6263C13.6667 12.545 15.7167 10.4812 15.7167 7.94625C15.7167 5.34625 13.5667 3.25 10.9 3.25C8.25001 3.25 6.10001 5.34625 6.10001 7.94625C6.10001 10.4812 8.15001 12.545 10.7333 12.6263Z" fill="#47579D"/>
<path d="M10.9167 20.8812C10.9167 22.4575 11.2667 23.9525 11.9 25.3012C9.55 25.545 7.1 25.0575 5.3 23.9037C2.66666 22.1975 2.66666 19.4187 5.3 17.7125C7.08333 16.5425 9.6 16.0712 11.9667 16.3312C11.2833 17.6962 10.9167 19.24 10.9167 20.8812Z" fill="#47579D"/>
<path d="M20.2 25.7887C20.0667 25.7725 19.9167 25.7725 19.7667 25.7887C16.7 25.6912 14.25 23.2375 14.25 20.215C14.2667 17.1275 16.8167 14.625 20 14.625C23.1667 14.625 25.7333 17.1275 25.7333 20.215C25.7167 23.2375 23.2833 25.6912 20.2 25.7887Z" fill="#47579D"/>
<path d="M14.7833 29.1525C12.2667 30.7938 12.2667 33.4913 14.7833 35.1163C17.65 36.985 22.35 36.985 25.2167 35.1163C27.7333 33.475 27.7333 30.7775 25.2167 29.1525C22.3667 27.2838 17.6667 27.2838 14.7833 29.1525Z" fill="#47579D"/>
</svg>
