<svg width="30" height="30" viewBox="0 0 30 30" fill="none" xmlns="http://www.w3.org/2000/svg">
    <path d="M20.2375 2.5H9.7625C5.2125 2.5 2.5 5.2125 2.5 9.7625V20.225C2.5 24.7875 5.2125 27.5 9.7625 27.5H20.225C24.775 27.5 27.4875 24.7875 27.4875 20.2375V9.7625C27.5 5.2125 24.7875 2.5 20.2375 2.5ZM21.6875 11.3125L18.7625 20.7375C18.0625 22.975 14.925 23.0125 14.1875 20.7875L13.3125 18.2C13.075 17.4875 12.5125 16.9125 11.8 16.6875L9.2 15.8125C7 15.075 7.025 11.9125 9.2625 11.2375L18.6875 8.3C20.5375 7.7375 22.275 9.475 21.6875 11.3125Z" fill="#47579D"/>
</svg>
