<svg width="30" height="30" viewBox="0 0 30 30" fill="none" xmlns="http://www.w3.org/2000/svg">
<circle cx="15" cy="15" r="15" fill="#45AEE4"/>
<path fill-rule="evenodd" clip-rule="evenodd" d="M11.2671 16.0122L8.20788 14.808C7.89718 14.6852 7.89448 14.2225 8.2043 14.0965L20.7594 8.98832C21.0256 8.87974 21.3003 9.12569 21.2423 9.42049L18.9892 20.8509C18.9361 21.1208 18.6361 21.2432 18.4243 21.0808L15.3486 18.7257C15.1618 18.5827 14.9072 18.5904 14.7284 18.744L13.0232 20.2102C12.8252 20.3808 12.527 20.2857 12.4512 20.0285L11.2671 16.0122ZM18.2393 11.4874L12.2604 15.3711C12.0312 15.5203 11.9233 15.8122 11.9974 16.0854L12.6438 18.4811C12.6897 18.6508 12.9234 18.6334 12.9456 18.458L13.1137 17.1443C13.1454 16.8969 13.2573 16.6691 13.4307 16.4988L18.365 11.6613C18.4573 11.5711 18.3467 11.4178 18.2393 11.4874Z" fill="white"/>
<path d="M12.2604 15.371L18.2393 11.4873C18.3467 11.4177 18.4573 11.571 18.365 11.6612L13.4307 16.4987C13.2573 16.669 13.1454 16.8968 13.1137 17.1442L12.9456 18.4579C12.9234 18.6333 12.6897 18.6507 12.6438 18.481L11.9974 16.0853C11.9233 15.8121 12.0312 15.5202 12.2604 15.371Z" fill="#EAEAEA"/>
</svg>
