<svg width="30" height="30" viewBox="0 0 30 30" fill="none" xmlns="http://www.w3.org/2000/svg">
<circle cx="15" cy="15" r="15" fill="#F52929"/>
<path fill-rule="evenodd" clip-rule="evenodd" d="M21.2308 10.4232C21.6366 10.8882 21.7798 11.9407 21.7798 11.9407C21.7798 11.9407 21.9231 13.1889 21.9231 14.4371V15.5875C21.9231 16.8113 21.7798 18.0595 21.7798 18.0595C21.7798 18.0595 21.6366 19.112 21.2308 19.577C20.7313 20.1356 20.1671 20.1852 19.8871 20.2097C19.8727 20.211 19.859 20.2122 19.8461 20.2134C17.9125 20.3847 15 20.3847 15 20.3847C15 20.3847 11.3952 20.3602 10.2971 20.2379C10.2387 20.2241 10.1669 20.2137 10.0852 20.202C9.73229 20.1512 9.19567 20.0739 8.76921 19.577C8.3634 19.112 8.22015 18.0596 8.22015 18.0596C8.22015 18.0596 8.0769 16.8358 8.0769 15.5875V14.4372C8.0769 13.1889 8.22015 11.9407 8.22015 11.9407C8.22015 11.9407 8.33949 10.8882 8.76921 10.4232C9.26868 9.86455 9.83291 9.81503 10.1129 9.79046C10.1273 9.7892 10.141 9.788 10.1538 9.7868C12.0875 9.63996 15 9.61548 15 9.61548C15 9.61548 17.9125 9.63996 19.8461 9.7868C19.8661 9.78866 19.8879 9.79038 19.9116 9.79223C20.1989 9.81481 20.7454 9.85774 21.2308 10.4232ZM13.3289 17.8393V12.5281L17.8647 15.2449L13.3289 17.8393Z" fill="white"/>
</svg>
