<svg width="16" height="18" viewBox="0 0 16 18" fill="none" xmlns="http://www.w3.org/2000/svg">
<g clip-path="url(#clip0_262_1121)">
<path d="M14.4503 11.3778C14.4788 11.2316 14.5437 11.1231 14.6608 11.0262L15.5584 10.2834C15.9566 9.95391 16.1015 9.43242 15.9276 8.95499L15.5354 7.87885C15.4842 7.73852 15.4842 7.61329 15.5354 7.47292L15.9276 6.39679C16.1015 5.91939 15.9566 5.39798 15.5584 5.06841L14.6608 4.3256C14.5437 4.22863 14.4788 4.12019 14.4503 3.97398L14.2319 2.85293C14.135 2.35557 13.7392 1.97388 13.2235 1.88048L12.061 1.66992C11.9093 1.64242 11.7968 1.57981 11.6964 1.46694L10.926 0.60133C10.5842 0.217294 10.0434 0.0775655 9.54838 0.245361L8.43237 0.623526C8.28688 0.672879 8.15698 0.672993 8.01137 0.623526L6.89539 0.245361C6.4003 0.0776411 5.85962 0.217332 5.5178 0.60133L4.74744 1.4669C4.64692 1.57981 4.53446 1.64246 4.38281 1.66988L3.22028 1.88048C2.70453 1.97388 2.30867 2.35557 2.2118 2.8529L1.99345 3.97391C1.96492 4.12015 1.90004 4.22863 1.78294 4.32552L0.885318 5.06833C0.487098 5.3979 0.342194 5.91932 0.516204 6.39672L0.908374 7.47288C0.959556 7.61322 0.959556 7.73844 0.908374 7.87881L0.516204 8.95491C0.342194 9.43233 0.487098 9.95382 0.885318 10.2833L1.78291 11.0261C1.90004 11.1231 1.96497 11.2316 1.99345 11.3777L2.2118 12.4988C2.22948 12.5894 2.25733 12.6762 2.29378 12.7582L0.52355 15.7148C0.465729 15.8114 0.467576 15.9308 0.528381 16.0256C0.589186 16.1205 0.699053 16.1758 0.814457 16.1688L2.66089 16.0625L3.4886 17.6576C3.54033 17.7572 3.64469 17.8215 3.76026 17.8249C3.7634 17.825 3.76654 17.825 3.76968 17.825C3.88167 17.825 3.98556 17.7674 4.04178 17.6735L5.69425 14.9136C5.91783 15.0848 6.19161 15.1763 6.47285 15.1763C6.61371 15.1762 6.75642 15.1534 6.89547 15.1063L8.01148 14.7281C8.15706 14.6788 8.28692 14.6787 8.43245 14.7281L9.54847 15.1062C9.96518 15.2474 10.4139 15.17 10.7494 14.9132L12.4022 17.6735C12.4584 17.7674 12.5622 17.825 12.6742 17.825C12.6774 17.825 12.6806 17.825 12.6837 17.8249C12.7992 17.8215 12.9036 17.7572 12.9553 17.6576L13.783 16.0625L15.6294 16.1688C15.7449 16.1756 15.8548 16.1204 15.9155 16.0256C15.9763 15.9308 15.9782 15.8114 15.9204 15.7148L14.1502 12.7582C14.1866 12.6763 14.2144 12.5895 14.2321 12.4988L14.4503 11.3778ZM3.78936 16.883L3.13012 15.6125C3.07388 15.5041 2.95631 15.4387 2.83038 15.4457L1.35978 15.5303L2.71647 13.2644C2.86318 13.3655 3.03373 13.4375 3.22031 13.4713L4.38288 13.6819C4.53459 13.7093 4.64704 13.772 4.74752 13.8848L5.24791 14.447L3.78936 16.883ZM13.6134 15.4457C13.4873 15.438 13.3699 15.5041 13.3136 15.6125L12.6544 16.883L11.1959 14.447L11.6964 13.8848C11.7968 13.7719 11.9094 13.7093 12.061 13.6819L13.2235 13.4713C13.4101 13.4375 13.5806 13.3655 13.7274 13.2644L15.0841 15.5304L13.6134 15.4457ZM13.8326 11.2659L13.6142 12.387C13.5648 12.6408 13.3707 12.8281 13.1075 12.8756L11.9449 13.0862C11.6554 13.1387 11.4113 13.2746 11.2194 13.4901L10.449 14.3558C10.2746 14.5517 10.0094 14.6204 9.75674 14.5346L8.64071 14.1565C8.36276 14.0623 8.0809 14.0624 7.80299 14.1565L6.68705 14.5346C6.43436 14.6203 6.1691 14.5517 5.9947 14.3558L5.22434 13.4901C5.0325 13.2746 4.78841 13.1387 4.49888 13.0862L3.33627 12.8756C3.07309 12.828 2.87893 12.6408 2.82948 12.387L2.61117 11.2659C2.5568 10.9868 2.41586 10.7514 2.19228 10.5663L1.29461 9.82345C1.09142 9.65536 1.02036 9.39951 1.10914 9.15591L1.50131 8.07982C1.599 7.8118 1.599 7.53996 1.50131 7.27198L1.10914 6.19586C1.02036 5.95223 1.09142 5.69644 1.29461 5.52827L2.19224 4.78546C2.41582 4.60043 2.55676 4.36503 2.61112 4.08579L2.82948 2.96475C2.8789 2.71101 3.07313 2.52375 3.33631 2.4761L4.49884 2.2655C4.78837 2.21307 5.03242 2.07721 5.22438 1.86161L5.9947 0.996008C6.11949 0.855864 6.29075 0.780867 6.47058 0.780867C6.54214 0.780867 6.61513 0.792723 6.68701 0.817116L7.80295 1.19524C8.0809 1.28949 8.36276 1.28944 8.64071 1.19528L9.75674 0.817116C10.0093 0.7314 10.2746 0.800034 10.449 0.996008L11.2194 1.86158C11.4112 2.07714 11.6553 2.21304 11.9448 2.2655L13.1074 2.47605C13.3706 2.52375 13.5647 2.71097 13.6142 2.96475L13.8326 4.08579C13.887 4.36495 14.0278 4.60032 14.2515 4.78546L15.1491 5.52831C15.3523 5.69644 15.4234 5.95223 15.3346 6.19586L14.9424 7.27194C14.8447 7.53996 14.8447 7.8118 14.9424 8.07979L15.3346 9.15591C15.4234 9.39951 15.3523 9.65536 15.1491 9.82353L14.2514 10.5663C14.0279 10.7513 13.887 10.9867 13.8326 11.2659ZM8.22188 2.59719C5.31779 2.59719 2.95509 4.87546 2.95509 7.67586C2.95509 10.4762 5.31775 12.7545 8.22188 12.7545C11.126 12.7545 13.4886 10.4762 13.4886 7.67586C13.4886 4.8755 11.126 2.59719 8.22188 2.59719ZM8.22188 12.1484C5.66431 12.1484 3.58357 10.142 3.58357 7.67586C3.58357 5.20965 5.66431 3.20322 8.22188 3.20322C10.7794 3.20322 12.8602 5.20965 12.8602 7.67586C12.8602 10.142 10.7794 12.1484 8.22188 12.1484ZM10.8294 6.49035L9.6026 6.12491C9.57887 6.11783 9.56723 6.10972 9.55292 6.09014L8.81335 5.07795C8.67595 4.88993 8.46038 4.78205 8.22188 4.78205C7.98341 4.78205 7.7678 4.88989 7.63039 5.07795L6.89079 6.09018C6.87653 6.10972 6.86491 6.11783 6.84118 6.12491L5.61435 6.49035C5.38649 6.55827 5.2135 6.72265 5.1398 6.94135C5.06612 7.16009 5.10583 7.39114 5.24881 7.57522L6.01854 8.5662C6.03343 8.58539 6.0379 8.59859 6.03751 8.62251L6.01885 9.86056C6.0154 10.0905 6.12409 10.3 6.31707 10.4352C6.51005 10.5704 6.75017 10.6053 6.97588 10.531L8.19116 10.1313C8.21468 10.1237 8.22902 10.1237 8.25255 10.1313L9.46776 10.531C9.54563 10.5566 9.62518 10.5693 9.70403 10.5693C9.85354 10.5693 10.0002 10.5237 10.1267 10.4352C10.3197 10.3 10.4284 10.0905 10.4248 9.86056L10.4062 8.62259C10.4058 8.59859 10.4102 8.58539 10.4252 8.56624L11.195 7.57519C11.3379 7.3911 11.3776 7.16006 11.3039 6.94135C11.2302 6.72265 11.0573 6.55827 10.8294 6.49035ZM10.6919 7.21195L9.92216 8.203C9.82403 8.32935 9.77549 8.47348 9.77781 8.63142L9.79647 9.86948C9.797 9.90325 9.78563 9.92511 9.75736 9.94491C9.729 9.96479 9.70394 9.96848 9.67078 9.95751L8.45547 9.55791C8.30047 9.50691 8.14332 9.50691 7.98831 9.55791L6.77303 9.95751C6.73988 9.96848 6.71478 9.96479 6.6865 9.94499C6.65813 9.92511 6.64678 9.90316 6.6473 9.86948L6.66596 8.63133C6.66831 8.47348 6.61976 8.32935 6.5216 8.20296L5.75187 7.21195C5.73085 7.1849 5.72669 7.16078 5.73753 7.12869C5.74837 7.09653 5.76644 7.07934 5.79987 7.06941L7.0267 6.70397C7.18319 6.65739 7.31034 6.56826 7.40461 6.43922L8.14418 5.42706C8.16437 5.39945 8.18687 5.38816 8.22191 5.38816C8.25695 5.38816 8.27946 5.39945 8.29965 5.42703L9.03923 6.43925C9.13354 6.5683 9.26074 6.65739 9.41709 6.70397L10.6439 7.06941C10.6774 7.07937 10.6954 7.09657 10.7063 7.12869C10.7171 7.16081 10.7129 7.1849 10.6919 7.21195Z" fill="#8B94AB"/>
</g>
<defs>
<clipPath id="clip0_262_1121">
<rect width="16" height="18" fill="white"/>
</clipPath>
</defs>
</svg>
