<svg width="21" height="21" viewBox="0 0 21 21" fill="none" xmlns="http://www.w3.org/2000/svg">
<g clip-path="url(#clip0_262_477)">
<mask id="mask0_262_477" style="mask-type:luminance" maskUnits="userSpaceOnUse" x="0" y="0" width="21" height="21">
<path d="M20.7999 0.549927H0.799927V20.5499H20.7999V0.549927Z" fill="white"/>
</mask>
<g mask="url(#mask0_262_477)">
<path d="M2.04993 9.21655C1.35957 9.21655 0.799927 9.81351 0.799927 10.5499C0.799927 11.2863 1.35957 11.8832 2.04993 11.8832V9.21655ZM20.4338 11.4927C20.9219 10.972 20.9219 10.1278 20.4338 9.60707L12.4789 1.12179C11.9907 0.601087 11.1993 0.601087 10.7111 1.12179C10.2229 1.64249 10.2229 2.48671 10.7111 3.00741L17.7822 10.5499L10.7111 18.0923C10.2229 18.613 10.2229 19.4571 10.7111 19.9779C11.1993 20.4986 11.9907 20.4986 12.4789 19.9779L20.4338 11.4927ZM2.04993 11.8832H19.5499V9.21655H2.04993V11.8832Z" fill="#283891"/>
</g>
</g>
<defs>
<clipPath id="clip0_262_477">
<rect width="20" height="20" fill="white" transform="translate(0.799927 0.549927)"/>
</clipPath>
</defs>
</svg>
