<svg width="16" height="16" viewBox="0 0 16 16" fill="none" xmlns="http://www.w3.org/2000/svg">
<g clip-path="url(#clip0_298_539)">
<mask id="mask0_298_539" style="mask-type:luminance" maskUnits="userSpaceOnUse" x="0" y="0" width="16" height="16">
<path d="M16 0.0625H0V15.0625H16V0.0625Z" fill="white"/>
</mask>
<g mask="url(#mask0_298_539)">
<path d="M1 6.42622C0.447715 6.42622 4.82823e-08 6.87394 0 7.42622C-4.82823e-08 7.9785 0.447715 8.42622 1 8.42622V6.42622ZM15.7071 8.13333C16.0976 7.7428 16.0976 7.10964 15.7071 6.71911L9.34315 0.35515C8.95262 -0.0353753 8.31946 -0.0353754 7.92893 0.35515C7.53841 0.745674 7.53841 1.37884 7.92893 1.76937L13.5858 7.42622L7.92893 13.0831C7.53841 13.4736 7.53841 14.1067 7.92893 14.4973C8.31946 14.8878 8.95262 14.8878 9.34314 14.4973L15.7071 8.13333ZM1 8.42622H15V6.42622H1V8.42622Z" fill="#FC502B"/>
</g>
</g>
<defs>
<clipPath id="clip0_298_539">
<rect width="16" height="15" fill="white" transform="translate(0 0.0625)"/>
</clipPath>
</defs>
</svg>
