<svg width="80" height="80" viewBox="0 0 80 80" fill="none" xmlns="http://www.w3.org/2000/svg">
  <path
    d="M45.9417 10.6666H34.3917C31.1192 10.6666 28.6167 13.1691 28.6167 16.4416V22.2166H32.4667V16.4416C32.4667 15.2866 33.2367 14.5166 34.3917 14.5166H45.9417C47.0967 14.5166 47.8667 15.2866 47.8667 16.4416V22.2166H51.7167V16.4416C51.7167 13.1691 49.2142 10.6666 45.9417 10.6666Z"
    fill="#424242" />
  <path
    d="M70.9667 79.9666H9.36669C5.13169 79.9666 1.66669 76.5016 1.66669 72.2666V26.0666C1.66669 21.8316 5.13169 18.3666 9.36669 18.3666H70.9667C75.2017 18.3666 78.6667 21.8316 78.6667 26.0666V72.2666C78.6667 76.5016 75.2017 79.9666 70.9667 79.9666Z"
    fill="#0b488c" fill-opacity="0.7" />
  <path
    d="M70.9667 51.0916H9.36669C5.13169 51.0916 1.66669 47.6266 1.66669 43.3916V26.0666C1.66669 21.8316 5.13169 18.3666 9.36669 18.3666H70.9667C75.2017 18.3666 78.6667 21.8316 78.6667 26.0666V43.3916C78.6667 47.6266 75.2017 51.0916 70.9667 51.0916Z"
    fill="#0b488c" />
  <path
    d="M44.0166 47.2416H36.3166C35.1616 47.2416 34.3916 46.4716 34.3916 45.3166V41.4666C34.3916 40.3116 35.1616 39.5416 36.3166 39.5416H44.0166C45.1716 39.5416 45.9416 40.3116 45.9416 41.4666V45.3166C45.9416 46.4716 45.1716 47.2416 44.0166 47.2416Z"
    fill="#FFF3E0" />
</svg>