<svg width="30" height="25" viewBox="0 0 30 25" fill="none" xmlns="http://www.w3.org/2000/svg">
<g clip-path="url(#clip0_563_1885)">
<path d="M16.1084 13.5767H13.8916C13.855 13.5767 13.8257 13.5916 13.8013 13.614C13.7769 13.6389 13.7646 13.6712 13.7646 13.706V18.4653C13.7646 18.5026 13.7793 18.5324 13.8013 18.5573C13.8257 18.5822 13.8574 18.5946 13.8916 18.5946H16.106C16.1426 18.5946 16.1719 18.5797 16.1963 18.5573C16.2207 18.5324 16.2329 18.5001 16.2329 18.4653V13.706C16.2329 13.6687 16.2183 13.6389 16.1963 13.614C16.1743 13.5866 16.1426 13.5767 16.1084 13.5767ZM1.7041 3.47374H9.39209V1.22837C9.39209 0.887706 9.52881 0.581858 9.74609 0.360553C9.96582 0.139248 10.2686 0 10.5981 0H19.4019C19.7363 0 20.0342 0.139248 20.2539 0.360553C20.4712 0.581858 20.6079 0.89268 20.6079 1.22837V3.47374H28.2959C28.7671 3.47374 29.1919 3.67018 29.4971 3.98598C29.8071 4.30177 30 4.73443 30 5.20937V9.40173C28.0737 10.747 26.0864 11.8933 24.0381 12.8282C21.9775 13.7682 19.8535 14.4967 17.6562 14.999V13.3231C17.6562 12.9401 17.5024 12.587 17.2559 12.3334C17.0093 12.0823 16.6626 11.9256 16.2842 11.9256H13.7134C13.3374 11.9256 12.9907 12.0823 12.7417 12.3334C12.4951 12.5845 12.3413 12.9376 12.3413 13.3231V14.9617C10.2026 14.4619 8.12988 13.7458 6.12061 12.8282C4.01611 11.8684 1.97754 10.6823 0 9.28984V5.20937C0 4.72946 0.192871 4.2968 0.50293 3.98598C0.810547 3.67018 1.23779 3.47374 1.7041 3.47374ZM30 11.8883V23.2669C30 23.7468 29.8071 24.1794 29.4971 24.4903C29.187 24.806 28.7622 25.0025 28.2959 25.0025H1.7041C1.23291 25.0025 0.808105 24.806 0.50293 24.4903C0.192871 24.1745 0 23.7418 0 23.2669V11.7839C1.68213 12.8829 3.41309 13.8427 5.19287 14.6559C7.49023 15.7052 9.87305 16.5084 12.3438 17.0455V18.8482C12.3438 19.2312 12.4976 19.5842 12.7441 19.8379C12.9907 20.089 13.3398 20.2457 13.7158 20.2457H16.2866C16.6626 20.2457 17.0093 20.089 17.2583 19.8379C17.5049 19.5867 17.6587 19.2336 17.6587 18.8482V16.9584L17.6855 17.0728C20.2026 16.5332 22.6294 15.7226 24.9683 14.6534C26.6919 13.8676 28.3691 12.9426 30 11.8883ZM18.4839 1.67346H11.521C11.4795 1.67346 11.4453 1.68838 11.4136 1.72071C11.3892 1.74557 11.3672 1.78785 11.3672 1.83012V3.4265H18.6304V1.83012C18.6304 1.78785 18.6157 1.75303 18.584 1.72071C18.5596 1.69584 18.5181 1.67346 18.4766 1.67346H18.4839Z" fill="white"/>
</g>
<defs>
<clipPath id="clip0_563_1885">
<rect width="30" height="25" fill="white"/>
</clipPath>
</defs>
</svg>
