<svg width="84" height="85" viewBox="0 0 84 85" fill="none" xmlns="http://www.w3.org/2000/svg">
<path d="M18 63.3958V26.0625H66V63.3958C66 64.8625 64.8 66.0625 63.3333 66.0625H20.6667C19.2 66.0625 18 64.8625 18 63.3958Z" fill="#FC502B"/>
<path d="M66 20.7292V28.7292H18V20.7292C18 19.2625 19.2 18.0625 20.6667 18.0625H63.3333C64.8 18.0625 66 19.2625 66 20.7292Z" fill="url(#paint0_linear_293_502)"/>
<path opacity="0.05" d="M57.3332 26.7292C55.1239 26.7292 53.3333 24.9385 53.3333 22.7292V18.0625H61.3332V22.7292C61.3332 24.9385 59.5426 26.7292 57.3332 26.7292Z" fill="#FC502B"/>
<path opacity="0.07" d="M57.3333 25.7292C55.6759 25.7292 54.3333 24.3865 54.3333 22.7292V18.0625H60.3332V22.7292C60.3332 24.3865 58.9906 25.7292 57.3333 25.7292Z" fill="#FC502B"/>
<path opacity="0.05" d="M26.6667 26.7292C24.4574 26.7292 22.6667 24.9385 22.6667 22.7292V18.0625H30.6667V22.7292C30.6667 24.9385 28.8761 26.7292 26.6667 26.7292Z" fill="#FC502B"/>
<path opacity="0.07" d="M26.6667 25.7292C25.0094 25.7292 23.6667 24.3865 23.6667 22.7292V18.0625H29.6667V22.7292C29.6667 24.3865 28.3241 25.7292 26.6667 25.7292Z" fill="#FC502B"/>
<path d="M26.6667 24.7291C25.5627 24.7291 24.6667 23.8331 24.6667 22.7291V17.3958C24.6667 16.2918 25.5627 15.3958 26.6667 15.3958C27.7707 15.3958 28.6667 16.2918 28.6667 17.3958V22.7291C28.6667 23.8331 27.7707 24.7291 26.6667 24.7291Z" fill="#FC502B"/>
<path d="M60.6667 36.0624V40.0624C60.6667 40.4304 60.368 40.7291 60 40.7291H56C55.632 40.7291 55.3333 40.4304 55.3333 40.0624V36.0624C55.3333 35.6944 55.632 35.3958 56 35.3958H60C60.368 35.3958 60.6667 35.6944 60.6667 36.0624ZM50 36.0624V40.0624C50 40.4304 49.7013 40.7291 49.3333 40.7291H45.3333C44.9653 40.7291 44.6667 40.4304 44.6667 40.0624V36.0624C44.6667 35.6944 44.9653 35.3958 45.3333 35.3958H49.3333C49.7013 35.3958 50 35.6944 50 36.0624ZM39.3333 36.0624V40.0624C39.3333 40.4304 39.0347 40.7291 38.6667 40.7291H34.6667C34.2987 40.7291 34 40.4304 34 40.0624V36.0624C34 35.6944 34.2987 35.3958 34.6667 35.3958H38.6667C39.0347 35.3958 39.3333 35.6944 39.3333 36.0624Z" fill="white"/>
<path d="M60.6666 45.3957V49.3957C60.6666 49.7637 60.3679 50.0623 59.9999 50.0623H55.9999C55.6319 50.0623 55.3332 49.7637 55.3332 49.3957V45.3957C55.3332 45.0277 55.6319 44.729 55.9999 44.729H59.9999C60.3679 44.729 60.6666 45.0277 60.6666 45.3957ZM49.9999 45.3957V49.3957C49.9999 49.7637 49.7012 50.0623 49.3332 50.0623H45.3332C44.9652 50.0623 44.6666 49.7637 44.6666 49.3957V45.3957C44.6666 45.0277 44.9652 44.729 45.3332 44.729H49.3332C49.7012 44.729 49.9999 45.0277 49.9999 45.3957ZM39.3332 45.3957V49.3957C39.3332 49.7637 39.0346 50.0623 38.6666 50.0623H34.6666C34.2986 50.0623 33.9999 49.7637 33.9999 49.3957V45.3957C33.9999 45.0277 34.2986 44.729 34.6666 44.729H38.6666C39.0346 44.729 39.3332 45.0277 39.3332 45.3957ZM28.6666 45.3957V49.3957C28.6666 49.7637 28.3679 50.0623 27.9999 50.0623H23.9999C23.6319 50.0623 23.3333 49.7637 23.3333 49.3957V45.3957C23.3333 45.0277 23.6319 44.729 23.9999 44.729H27.9999C28.3679 44.729 28.6666 45.0277 28.6666 45.3957Z" fill="white"/>
<path d="M49.9999 54.7292V58.7292C49.9999 59.0972 49.7012 59.3958 49.3332 59.3958H45.3332C44.9652 59.3958 44.6666 59.0972 44.6666 58.7292V54.7292C44.6666 54.3612 44.9652 54.0625 45.3332 54.0625H49.3332C49.7012 54.0625 49.9999 54.3612 49.9999 54.7292ZM39.3332 54.7292V58.7292C39.3332 59.0972 39.0346 59.3958 38.6666 59.3958H34.6666C34.2986 59.3958 33.9999 59.0972 33.9999 58.7292V54.7292C33.9999 54.3612 34.2986 54.0625 34.6666 54.0625H38.6666C39.0346 54.0625 39.3332 54.3612 39.3332 54.7292ZM28.6666 54.7292V58.7292C28.6666 59.0972 28.3679 59.3958 27.9999 59.3958H23.9999C23.6319 59.3958 23.3333 59.0972 23.3333 58.7292V54.7292C23.3333 54.3612 23.6319 54.0625 23.9999 54.0625H27.9999C28.3679 54.0625 28.6666 54.3612 28.6666 54.7292Z" fill="white"/>
<path d="M57.3333 24.7291C56.2293 24.7291 55.3333 23.8331 55.3333 22.7291V17.3958C55.3333 16.2918 56.2293 15.3958 57.3333 15.3958C58.4372 15.3958 59.3332 16.2918 59.3332 17.3958V22.7291C59.3332 23.8331 58.4372 24.7291 57.3333 24.7291Z" fill="#FC502B"/>
<defs>
<linearGradient id="paint0_linear_293_502" x1="18.56" y1="18.8732" x2="64.9306" y2="28.3025" gradientUnits="userSpaceOnUse">
<stop stop-color="#333333"/>
<stop offset="1" stop-color="#333333"/>
</linearGradient>
</defs>
</svg>
