<svg width="18" height="16" viewBox="0 0 18 16" fill="none" xmlns="http://www.w3.org/2000/svg">
<g clip-path="url(#clip0_298_565)">
<path d="M6.84615 0.0310059H4.44012H2.44602C1.76999 0.0310059 1.19298 0.268166 0.714996 0.746002C0.23716 1.22398 0 1.80099 0 2.47702V6.77095C0 7.4505 0.23716 8.02765 0.714996 8.50549C1.19283 8.97981 1.76999 9.22063 2.44602 9.22063C3.07605 9.22063 3.70623 9.22063 4.33627 9.22063C4.19828 9.75867 4.02132 10.2721 3.8054 10.7533C3.593 11.2383 3.23543 11.7021 2.73635 12.1445C3.69217 11.8968 4.54179 11.525 5.28857 11.0331C6.0355 10.5446 6.67974 9.93914 7.21778 9.22063C7.75846 9.22063 8.29943 9.22063 8.84011 9.22063C9.51614 9.22063 10.0931 8.97981 10.571 8.50549C11.0491 8.02765 11.2863 7.4505 11.2863 6.77095V2.47702C11.2863 1.80099 11.0491 1.22384 10.571 0.746002C10.0931 0.268166 9.51614 0.0310059 8.84011 0.0310059H6.84615ZM18 4.96215V9.25608C18 9.64676 17.9304 10.0118 17.7902 10.3516C17.6506 10.6906 17.4423 10.9985 17.1653 11.2757C17.0449 11.3949 16.9186 11.502 16.7868 11.5962C16.6509 11.6929 16.5124 11.775 16.3708 11.8424C16.3633 11.8459 16.3556 11.8493 16.3479 11.8524C16.1669 11.9366 15.9781 12.0002 15.7821 12.0427C15.5786 12.0869 15.3684 12.109 15.1506 12.109H13.8712H13.8685H13.8659H13.8632H13.8609H13.7925C13.8197 12.1955 13.848 12.2812 13.8772 12.3661C13.9604 12.6062 14.054 12.8426 14.1581 13.0747L14.1596 13.0777H14.1599C14.2538 13.2921 14.379 13.5011 14.5355 13.7046C14.6969 13.9146 14.8939 14.1226 15.1262 14.3287C15.2925 14.4758 15.3079 14.7297 15.1611 14.8958C15.0575 15.0128 14.9008 15.0552 14.7594 15.0185L14.7592 15.0187C14.2602 14.8892 13.7887 14.7276 13.345 14.534C12.901 14.3404 12.482 14.1135 12.0881 13.854L12.0873 13.8551C11.6958 13.5992 11.3296 13.3109 10.9895 12.9913C10.7011 12.7203 10.4318 12.4263 10.1818 12.109H10.0458H10.0435H10.0406H10.0382H10.0356H8.75603C8.48972 12.109 8.23454 12.0758 7.99093 12.01C7.74704 11.9441 7.51471 11.8439 7.29425 11.71C7.10455 11.5952 7.0439 11.3483 7.15875 11.1586C7.27359 10.9689 7.52042 10.9083 7.71012 11.0231C7.86115 11.1148 8.02419 11.1846 8.19894 11.2317C8.37268 11.2786 8.55842 11.3023 8.75603 11.3023H10.0356H10.0382H10.0406H10.0435H10.0458H10.3785V11.3039C10.5007 11.3039 10.6211 11.3595 10.6997 11.4646C10.9535 11.8035 11.2341 12.1174 11.5406 12.4054C11.8432 12.6897 12.1728 12.9485 12.5282 13.181L12.5273 13.1822L12.5282 13.1826C12.8658 13.4051 13.2279 13.6023 13.6148 13.7741C13.5416 13.6502 13.4774 13.5253 13.4223 13.399C13.3122 13.1527 13.2107 12.8954 13.1176 12.6274C13.0295 12.3729 12.9505 12.1111 12.8808 11.8433C12.8654 11.8002 12.8567 11.754 12.8567 11.7056C12.8567 11.4828 13.0372 11.3023 13.2599 11.3023H13.8608H13.8631H13.8657H13.8684H13.871H15.1504C15.3126 11.3023 15.4662 11.2865 15.6116 11.2549C15.7497 11.225 15.8811 11.1812 16.0055 11.1238C16.0115 11.1205 16.0178 11.1173 16.0241 11.1144C16.1291 11.0643 16.2281 11.0064 16.3201 10.9407C16.4162 10.872 16.5089 10.7936 16.5977 10.7054C16.7985 10.5047 16.9479 10.285 17.0464 10.0461C17.1445 9.80819 17.1932 9.54495 17.1932 9.25593V4.96215C17.1932 4.67504 17.1445 4.41268 17.0464 4.17508C16.9479 3.9366 16.7987 3.71702 16.5977 3.51619L16.5962 3.51458C16.3954 3.31375 16.176 3.16433 15.9373 3.06604C15.6999 2.96804 15.4375 2.91926 15.1503 2.91926H13.997H13.1565C12.9337 2.91926 12.753 2.73865 12.753 2.51599C12.753 2.29318 12.9335 2.11271 13.1565 2.11271H13.997H15.1503C15.5393 2.11271 15.9036 2.18244 16.2429 2.32248C16.5808 2.46193 16.8883 2.66965 17.165 2.94592L17.1656 2.94665L17.1665 2.94739L17.1668 2.94768C17.4432 3.22424 17.6506 3.53157 17.7899 3.86937C17.9304 4.20892 18 4.57323 18 4.96215Z" fill="black"/>
</g>
<defs>
<clipPath id="clip0_298_565">
<rect width="18" height="15.0003" fill="white" transform="translate(0 0.0310059)"/>
</clipPath>
</defs>
</svg>
