<svg width="17" height="17" viewBox="0 0 17 17" fill="none" xmlns="http://www.w3.org/2000/svg">
<g clip-path="url(#clip0_262_1119)">
<path d="M14.209 2.44342C12.6839 0.990873 10.656 0.190918 8.49919 0.190918C6.3423 0.190918 4.3145 0.990873 2.78933 2.44342C1.26414 3.89597 0.424194 5.82721 0.424194 7.88139C0.424194 8.96677 0.657116 10.0162 1.11644 11.0007C1.51694 11.859 2.07065 12.6296 2.76489 13.2955C2.5665 14.2439 2.1453 15.1493 1.5375 15.9288C1.40703 16.0961 1.3869 16.3193 1.48526 16.5055C1.58363 16.6917 1.784 16.8093 2.00288 16.8093C3.70457 16.8093 5.32051 16.3154 6.69422 15.3784C7.28466 15.5069 7.89046 15.5718 8.49919 15.5718C10.656 15.5718 12.6839 14.7719 14.209 13.3193C15.7342 11.8669 16.5742 9.93561 16.5742 7.88139C16.5742 5.82721 15.7342 3.89594 14.209 2.44342ZM8.49919 14.4685C7.89604 14.4685 7.29643 14.3941 6.71695 14.2474C6.54307 14.2034 6.35761 14.2388 6.21498 14.3433C5.29368 15.0182 4.23514 15.4522 3.10732 15.6232C3.53254 14.8635 3.82332 14.0374 3.96106 13.1871C3.99032 13.0067 3.92388 12.8242 3.78364 12.6996C2.38488 11.4575 1.58268 9.70133 1.58268 7.88136C1.58268 4.24919 4.68542 1.29421 8.49919 1.29421C12.313 1.29421 15.4157 4.24919 15.4157 7.88136C15.4157 11.5135 12.313 14.4685 8.49919 14.4685ZM5.82063 7.88136C5.82063 8.18599 5.56129 8.43297 5.24141 8.43297H4.76655C4.44667 8.43297 4.18732 8.18599 4.18732 7.88136C4.18732 7.57671 4.44667 7.32971 4.76655 7.32971H5.24141C5.56129 7.32971 5.82063 7.57671 5.82063 7.88136ZM9.32325 7.88136C9.32325 8.18599 9.06391 8.43297 8.74406 8.43297H8.26917C7.94929 8.43297 7.68994 8.18599 7.68994 7.88136C7.68994 7.57671 7.94929 7.32971 8.26917 7.32971H8.74406C9.06391 7.32971 9.32325 7.57671 9.32325 7.88136ZM12.8259 7.88136C12.8259 8.18599 12.5666 8.43297 12.2467 8.43297H11.7718C11.4519 8.43297 11.1926 8.18599 11.1926 7.88136C11.1926 7.57671 11.4519 7.32971 11.7718 7.32971H12.2467C12.5666 7.32971 12.8259 7.57671 12.8259 7.88136Z" fill="#8B94AB"/>
</g>
<defs>
<clipPath id="clip0_262_1119">
<rect width="17" height="17" fill="white"/>
</clipPath>
</defs>
</svg>
