<svg width="80" height="80" viewBox="0 0 80 80" fill="none" xmlns="http://www.w3.org/2000/svg">
<g clip-path="url(#clip0_556_1604)">
<path d="M69.3377 69.8348C69.0061 72.4447 67.7333 74.8054 65.8625 76.5895L65.8466 76.6047C63.6546 78.6935 60.6341 80 57.3346 80H12.0895C8.77721 80 5.74623 78.7004 3.55279 76.6092C1.36639 74.5251 0 71.6456 0 68.4751V21.6078C0 15.7315 4.68508 10.8439 10.6615 10.1636C11.3751 4.46177 16.5075 0 22.6654 0H58.5189C59.8972 0 61.1215 0.629179 61.8934 1.6028L78.8597 19.1007C79.5801 19.8415 79.9798 20.8147 79.9784 21.8248H80V58.393C80 64.2258 75.2846 69.1469 69.3377 69.8348Z" fill="#FF9431"/>
<path fill-rule="evenodd" clip-rule="evenodd" d="M65.0443 69.9178C64.3234 73.3344 61.1056 75.9686 57.3346 75.9686H12.0895C7.80067 75.9686 4.2287 72.597 4.2287 68.475V21.6077C4.2287 17.9786 6.96968 14.9323 10.5759 14.2543V58.393C10.5759 64.721 16.0274 69.9178 22.6654 69.9178H65.0443Z" fill="white"/>
<path fill-rule="evenodd" clip-rule="evenodd" d="M22.6654 4.03168H58.5192L75.7715 21.825V58.393C75.7715 62.4803 72.1984 65.8867 67.9108 65.8867H22.6654C18.3766 65.8867 14.8047 62.515 14.8047 58.393V11.5253C14.8047 7.4034 18.3416 4.03168 22.6654 4.03168Z" fill="white"/>
<path d="M55.4225 4.12042C55.4225 3.0074 56.3694 2.10474 57.5369 2.10474C58.7043 2.10474 59.6512 3.0074 59.6512 4.12042V15.1311C59.8038 17.028 60.4918 18.5126 61.7025 19.4983C62.9618 20.5238 64.8502 21.0989 67.3576 21.1416L74.6341 21.1347C75.8017 21.1347 76.7485 22.0373 76.7485 23.1504C76.7485 24.2632 75.8017 25.1659 74.6341 25.1659L67.3249 25.1582C63.7713 25.1043 60.9738 24.1932 58.96 22.5531C56.8608 20.8429 55.6799 18.4196 55.4408 15.4183L55.4225 15.1509V4.12042Z" fill="#FF9431"/>
<path d="M30.9144 53.1473C29.7525 53.1473 28.8095 52.2577 28.8095 51.1615C28.8095 50.0652 29.7525 49.1755 30.9144 49.1755H59.6608C60.8226 49.1755 61.7656 50.0652 61.7656 51.1615C61.7656 52.2577 60.8226 53.1473 59.6608 53.1473H30.9144ZM30.9144 25.8295C29.7525 25.8295 28.8095 24.9398 28.8095 23.8435C28.8095 22.7473 29.7525 21.8575 30.9144 21.8575H47.2254C48.3872 21.8575 49.3302 22.7473 49.3302 23.8435C49.3302 24.9398 48.3872 25.8295 47.2254 25.8295H30.9144ZM30.9144 39.4889C29.7525 39.4889 28.8095 38.599 28.8095 37.5029C28.8095 36.4067 29.7525 35.5169 30.9144 35.5169H59.6608C60.8226 35.5169 61.7656 36.4067 61.7656 37.5029C61.7656 38.599 60.8226 39.4889 59.6608 39.4889H30.9144Z" fill="#FC502B"/>
</g>
<defs>
<clipPath id="clip0_556_1604">
<rect width="80" height="80" fill="white"/>
</clipPath>
</defs>
</svg>
