<svg width="61" height="70" viewBox="0 0 61 70" fill="none" xmlns="http://www.w3.org/2000/svg">
<g clip-path="url(#clip0_282_787)">
<path d="M30.2937 2.1954C30.2937 1.41722 30.9259 0.786011 31.7054 0.786011C32.4847 0.786011 33.1171 1.41722 33.1171 2.1954V12.2813C33.256 14.1472 33.9088 15.6139 35.063 16.5984C36.2421 17.6041 37.9865 18.1665 40.2874 18.206V18.201H46.6462C47.4257 18.201 48.0579 18.8322 48.0579 19.6104C48.0579 20.3884 47.4257 21.0198 46.6462 21.0198H40.2874V21.0141H40.2655C37.2661 20.9667 34.9145 20.1689 33.2323 18.7343C31.4842 17.243 30.5027 15.1192 30.3066 12.4807C30.2979 12.4175 30.2936 12.3538 30.2937 12.29V2.1954Z" fill="#212529"/>
<path d="M14.4834 48.2048C13.7042 48.2048 13.0723 47.5738 13.0723 46.7959C13.0723 46.018 13.7042 45.3871 14.4834 45.3871H26.1253C25.711 46.2993 25.3655 47.2412 25.0917 48.2048H14.4834ZM14.4834 28.4589C13.7042 28.4589 13.0723 27.828 13.0723 27.0501C13.0723 26.2723 13.7042 25.6412 14.4834 25.6412H35.0668C35.846 25.6412 36.478 26.2723 36.478 27.0501C36.478 27.828 35.846 28.4589 35.0668 28.4589H14.4834ZM14.4834 38.3314C13.7042 38.3314 13.0723 37.7004 13.0723 36.9225C13.0723 36.1446 13.7042 35.5136 14.4834 35.5136H33.9762C34.3612 35.5136 34.7102 35.6677 34.9646 35.9172C33.7095 36.5963 32.5295 37.4055 31.4441 38.3314H14.4834Z" fill="white"/>
<path fill-rule="evenodd" clip-rule="evenodd" d="M44.6174 37.8869C49.0024 37.8869 52.9736 39.6618 55.8479 42.5312C58.7222 45.4005 60.5 49.3653 60.5 53.7432C60.5 58.1218 58.7222 62.0858 55.8479 64.9553C52.9736 67.8248 49.003 69.6 44.6174 69.6C40.2321 69.6 36.2611 67.8248 33.3871 64.9553C30.5129 62.0858 28.7348 58.1213 28.7348 53.7432C28.7348 49.365 30.5129 45.4008 33.3871 42.5312C36.2614 39.6618 40.2318 37.8869 44.6174 37.8869ZM8.78068 0H32.5642C33.0244 0 33.4328 0.219911 33.6906 0.56017L48.6712 16.7403C48.9117 16.9993 49.0451 17.3396 49.0446 17.6928H49.0518V33.9677C48.1218 33.761 47.1783 33.6198 46.2284 33.5451V18.2339L31.9563 2.81878H8.78068C7.28136 2.81878 5.91687 3.43219 4.92748 4.42023C3.93782 5.408 3.3234 6.77026 3.3234 8.26712V54.2157C3.3234 55.7119 3.9385 57.0732 4.9283 58.0613C5.9185 59.0501 7.2834 59.6643 8.78068 59.6643H25.2091C25.5058 60.6303 25.8749 61.5725 26.3133 62.4831H8.78068C6.50449 62.4831 4.43265 61.5527 2.93211 60.0543C1.43224 58.5569 0.5 56.49 0.5 54.2157V8.26712C0.5 5.99208 1.43088 3.92472 2.93129 2.42731C4.43116 0.929361 6.5019 0 8.78068 0ZM51.0669 52.1478C51.5837 52.1693 51.9501 52.3406 52.1615 52.6625C52.7366 53.523 51.9516 54.3721 51.4076 54.9704L45.6027 60.862C44.9766 61.4774 44.2524 61.4858 43.6261 60.862L37.6823 54.8088C37.1727 54.2361 36.5422 53.4549 37.0732 52.6625C37.2888 52.3406 37.6524 52.1693 38.1694 52.1478H41.032V47.7079C41.032 46.8629 41.7291 46.1598 42.5826 46.1598H46.6506C47.5057 46.1598 48.2029 46.8558 48.2029 47.7079V52.1478H51.0669Z" fill="#212529"/>
</g>
<defs>
<clipPath id="clip0_282_787">
<rect width="60" height="69.6" fill="white" transform="translate(0.5)"/>
</clipPath>
</defs>
</svg>
