<svg width="30" height="26" viewBox="0 0 30 26" fill="none" xmlns="http://www.w3.org/2000/svg">
<g clip-path="url(#clip0_558_1730)">
<path d="M25.4566 20.1524L25.3248 13.3317L17.3047 16.5697C16.5821 16.7915 15.8692 16.8973 15.171 16.9007C14.4214 16.9041 13.6841 16.7915 12.959 16.5697L5.29791 13.2976V20.2138C5.51764 23.8067 12.8931 24.9054 15.1563 25.0555C16.9703 25.1783 24.1358 23.8544 25.0782 21.7902C25.2808 21.3398 25.4078 20.7938 25.4566 20.1524ZM28.7061 8.42179V16.7574H28.8941C29.0235 16.7574 29.1285 16.9041 29.1285 17.085V19.3267C29.1285 19.5041 29.0235 19.6542 28.8941 19.6542H28.7061V20.439C28.9454 20.5004 29.1285 20.7973 29.1285 21.1487C29.1285 21.5445 28.8941 21.872 28.6109 21.872H27.6856C27.4024 21.872 27.168 21.5479 27.168 21.1487C27.168 20.7973 27.3511 20.5004 27.5904 20.439V19.6542H27.4024C27.2755 19.6542 27.168 19.5075 27.168 19.3267V17.085C27.168 16.9041 27.273 16.7574 27.4024 16.7574H27.5904V8.90972L17.8297 13.1475C16.0621 13.7343 14.2945 13.7753 12.5269 13.1475L1.75299 8.65381L0.778869 8.24778C-0.43451 7.55514 -0.131776 5.92759 0.998595 5.55227L13.1837 0.468333C14.441 -0.0332364 15.6959 -0.111713 16.9532 0.468333L28.9185 5.49085C30.2198 5.93442 30.4761 7.61655 28.9625 8.3092L28.7061 8.42179Z" fill="white"/>
</g>
<defs>
<clipPath id="clip0_558_1730">
<rect width="30" height="25" fill="white" transform="translate(0 0.0625)"/>
</clipPath>
</defs>
</svg>
