<svg width="14" height="20" viewBox="0 0 14 20" fill="none" xmlns="http://www.w3.org/2000/svg">
<g clip-path="url(#clip0_304_958)">
<path d="M10.375 11.1164H6.29531C6.00318 11.1056 5.72663 10.9832 5.52379 10.7749C5.32096 10.5666 5.20763 10.2885 5.20763 9.99923C5.20763 9.70994 5.32096 9.43191 5.52379 9.22358C5.72663 9.01525 6.00318 8.89284 6.29531 8.88208H10.375L9.05 7.41935C8.85225 7.19956 8.74977 6.91163 8.76468 6.61772C8.77959 6.32381 8.91069 6.04748 9.12969 5.84839C9.23739 5.75038 9.36372 5.67455 9.50133 5.62532C9.63894 5.57609 9.78506 5.55444 9.9312 5.56163C10.0773 5.56883 10.2206 5.60472 10.3526 5.66723C10.4846 5.72973 10.6027 5.81759 10.7 5.9257L13.7031 9.24235C13.8919 9.44756 13.9972 9.71458 13.9989 9.99204C14.0007 10.2695 13.8987 10.5378 13.7125 10.7453L10.7 14.0712C10.6029 14.1796 10.4849 14.2678 10.353 14.3305C10.221 14.3933 10.0778 14.4294 9.93157 14.4367C9.78536 14.4441 9.63915 14.4225 9.50146 14.3733C9.36378 14.3241 9.23739 14.2482 9.12969 14.1501C8.91069 13.951 8.77959 13.6747 8.76468 13.3807C8.74977 13.0868 8.85225 12.7989 9.05 12.5791L10.375 11.1164ZM6.70937 17.2874C6.85475 17.3161 6.99299 17.3729 7.11619 17.4545C7.23939 17.5361 7.34514 17.6409 7.42741 17.7629C7.50967 17.885 7.56684 18.0219 7.59565 18.1658C7.62446 18.3097 7.62435 18.4578 7.59531 18.6016C7.56628 18.7455 7.50889 18.8823 7.42644 19.0042C7.34398 19.1261 7.23806 19.2308 7.11473 19.3122C6.99141 19.3936 6.85308 19.4502 6.70766 19.4787C6.56224 19.5072 6.41257 19.5071 6.26719 19.4784L5.74063 19.3732C2.00625 18.6403 0 18.2244 0 12.9007V6.78231C0 1.68286 2.15312 1.28394 5.71875 0.625247L6.27656 0.520103C6.57017 0.464537 6.87405 0.526665 7.12136 0.69282C7.36868 0.858974 7.53916 1.11555 7.59531 1.40609C7.65146 1.69663 7.58868 1.99735 7.42078 2.24209C7.25287 2.48683 6.9936 2.65554 6.7 2.7111L6.13281 2.81934C3.71719 3.2662 2.25781 3.53524 2.25781 6.7854V12.9007C2.25781 16.3967 3.62812 16.6828 6.17969 17.1838L6.70937 17.2874Z" fill="white"/>
</g>
<defs>
<clipPath id="clip0_304_958">
<rect width="14" height="19" fill="white" transform="translate(0 0.5)"/>
</clipPath>
</defs>
</svg>
