<svg width="25" height="25" viewBox="0 0 25 25" fill="none" xmlns="http://www.w3.org/2000/svg">
<g clip-path="url(#clip0_755_2320)">
<path d="M19.3919 0.5H5.12435C2.31016 0.5 0.0288086 2.73858 0.0288086 5.5V19.5C0.0288086 22.2614 2.31016 24.5 5.12435 24.5H19.3919C22.2061 24.5 24.4874 22.2614 24.4874 19.5V5.5C24.4874 2.73858 22.2061 0.5 19.3919 0.5Z" fill="#F6F8FD"/>
<path d="M12.9375 13.55H14.636L15.3154 10.75H12.9375V9.35C12.9375 8.629 12.9375 7.95 14.2963 7.95H15.3154V5.598C15.0939 5.5679 14.2576 5.5 13.3743 5.5C11.5297 5.5 10.2199 6.6599 10.2199 8.79V10.75H8.18164V13.55H10.2199V19.5H12.9375V13.55Z" fill="#283891"/>
</g>
<defs>
<clipPath id="clip0_755_2320">
<rect width="24.4586" height="25" fill="white" transform="translate(0.0288086)"/>
</clipPath>
</defs>
</svg>
