<svg width="24" height="24" viewBox="0 0 24 24" fill="none" xmlns="http://www.w3.org/2000/svg">
<path d="M12 21.577L9.423 19H5.615C5.155 19 4.77067 18.846 4.462 18.538C4.15334 18.23 3.99934 17.8453 4 17.384V4.616C4 4.15533 4.15434 3.771 4.463 3.463C4.77167 3.155 5.156 3.00067 5.616 3H18.385C18.845 3 19.2293 3.15433 19.538 3.463C19.8467 3.77167 20.0007 4.156 20 4.616V17.385C20 17.845 19.846 18.2293 19.538 18.538C19.23 18.8467 18.8453 19.0007 18.384 19H14.577L12 21.577ZM12 12.077C12.8387 12.077 13.5483 11.7867 14.129 11.206C14.7097 10.6253 15 9.91567 15 9.077C15 8.23833 14.7097 7.52867 14.129 6.948C13.5483 6.36733 12.8387 6.077 12 6.077C11.1613 6.077 10.4517 6.36733 9.871 6.948C9.29034 7.52867 9 8.23833 9 9.077C9 9.91567 9.29034 10.6253 9.871 11.206C10.4517 11.7867 11.1613 12.077 12 12.077ZM5.423 18H18.577C18.7177 17.9113 18.8137 17.7933 18.865 17.646C18.9163 17.4987 18.9613 17.3613 19 17.234C18.1 16.3507 17.054 15.655 15.862 15.147C14.67 14.639 13.3827 14.385 12 14.385C10.6173 14.385 9.32967 14.639 8.137 15.147C6.94434 15.655 5.89867 16.351 5 17.235C5.03867 17.3617 5.08334 17.4987 5.134 17.646C5.18467 17.7933 5.281 17.9113 5.423 18Z" fill="#0B488C"/>
</svg>
