<svg width="60" height="61" viewBox="0 0 60 61" fill="none" xmlns="http://www.w3.org/2000/svg">
<path d="M32.57 5.53125C35.3825 5.53875 36.81 5.55375 38.0425 5.58875L38.5275 5.60625C39.0875 5.62625 39.64 5.65125 40.3075 5.68125C42.9675 5.80625 44.7825 6.22625 46.375 6.84375C48.025 7.47875 49.415 8.33875 50.805 9.72625C52.0762 10.976 53.0599 12.4877 53.6875 14.1562C54.305 15.7487 54.725 17.5637 54.85 20.2262C54.88 20.8912 54.905 21.4438 54.925 22.0063L54.94 22.4913C54.9775 23.7213 54.9925 25.1488 54.9975 27.9613L55 29.8263V33.1012C55.0061 34.9248 54.987 36.7483 54.9425 38.5713L54.9275 39.0563C54.9075 39.6187 54.8825 40.1712 54.8525 40.8363C54.7275 43.4987 54.3025 45.3112 53.6875 46.9062C53.0617 48.5757 52.0778 50.0878 50.805 51.3363C49.5549 52.607 48.0433 53.5906 46.375 54.2188C44.7825 54.8363 42.9675 55.2563 40.3075 55.3813C39.7143 55.4092 39.1209 55.4342 38.5275 55.4562L38.0425 55.4712C36.81 55.5062 35.3825 55.5238 32.57 55.5288L30.705 55.5312H27.4325C25.6081 55.5375 23.7838 55.5184 21.96 55.4737L21.475 55.4588C20.8815 55.4363 20.2882 55.4104 19.695 55.3813C17.035 55.2563 15.22 54.8363 13.625 54.2188C11.9567 53.5922 10.4455 52.6084 9.19748 51.3363C7.92509 50.087 6.94054 48.5751 6.31248 46.9062C5.69498 45.3137 5.27498 43.4987 5.14998 40.8363C5.12212 40.243 5.09712 39.6497 5.07498 39.0563L5.06248 38.5713C5.01641 36.7483 4.99557 34.9248 4.99998 33.1012V27.9613C4.993 26.1378 5.01134 24.3142 5.05498 22.4913L5.07248 22.0063C5.09248 21.4438 5.11748 20.8912 5.14748 20.2262C5.27248 17.5637 5.69248 15.7512 6.30998 14.1562C6.93776 12.486 7.92428 10.9738 9.19998 9.72625C10.4477 8.45494 11.9578 7.47122 13.625 6.84375C15.22 6.22625 17.0325 5.80625 19.695 5.68125C20.36 5.65125 20.915 5.62625 21.475 5.60625L21.96 5.59125C23.783 5.54683 25.6065 5.52766 27.43 5.53375L32.57 5.53125ZM30 18.0312C26.6848 18.0312 23.5054 19.3482 21.1611 21.6924C18.8169 24.0366 17.5 27.216 17.5 30.5312C17.5 33.8465 18.8169 37.0259 21.1611 39.3701C23.5054 41.7143 26.6848 43.0312 30 43.0312C33.3152 43.0312 36.4946 41.7143 38.8388 39.3701C41.183 37.0259 42.5 33.8465 42.5 30.5312C42.5 27.216 41.183 24.0366 38.8388 21.6924C36.4946 19.3482 33.3152 18.0312 30 18.0312ZM30 23.0312C30.9849 23.0311 31.9602 23.2249 32.8702 23.6017C33.7802 23.9784 34.6071 24.5307 35.3036 25.2271C36.0002 25.9234 36.5528 26.7501 36.9298 27.66C37.3069 28.5698 37.5011 29.5451 37.5012 30.53C37.5014 31.5149 37.3076 32.4902 36.9308 33.4002C36.554 34.3102 36.0017 35.1371 35.3054 35.8337C34.6091 36.5302 33.7824 37.0828 32.8725 37.4599C31.9626 37.8369 30.9874 38.0311 30.0025 38.0312C28.0134 38.0312 26.1057 37.2411 24.6992 35.8346C23.2927 34.428 22.5025 32.5204 22.5025 30.5312C22.5025 28.5421 23.2927 26.6345 24.6992 25.2279C26.1057 23.8214 28.0134 23.0312 30.0025 23.0312M43.1275 14.2812C42.2987 14.2812 41.5038 14.6105 40.9178 15.1965C40.3317 15.7826 40.0025 16.5774 40.0025 17.4062C40.0025 18.2351 40.3317 19.0299 40.9178 19.616C41.5038 20.202 42.2987 20.5312 43.1275 20.5312C43.9563 20.5312 44.7511 20.202 45.3372 19.616C45.9232 19.0299 46.2525 18.2351 46.2525 17.4062C46.2525 16.5774 45.9232 15.7826 45.3372 15.1965C44.7511 14.6105 43.9563 14.2812 43.1275 14.2812Z" fill="white"/>
</svg>
