<svg width="25" height="25" viewBox="0 0 25 25" fill="none" xmlns="http://www.w3.org/2000/svg">
<g clip-path="url(#clip0_755_2316)">
<path d="M19.6275 0.5H5.35995C2.54576 0.5 0.264404 2.73858 0.264404 5.5V19.5C0.264404 22.2614 2.54576 24.5 5.35995 24.5H19.6275C22.4417 24.5 24.723 22.2614 24.723 19.5V5.5C24.723 2.73858 22.4417 0.5 19.6275 0.5Z" fill="#F6F8FD"/>
<path d="M12.4938 10.5C11.9532 10.5 11.4348 10.7107 11.0526 11.0858C10.6703 11.4609 10.4556 11.9696 10.4556 12.5C10.4556 13.0304 10.6703 13.5391 11.0526 13.9142C11.4348 14.2893 11.9532 14.5 12.4938 14.5C13.0343 14.5 13.5527 14.2893 13.935 13.9142C14.3173 13.5391 14.532 13.0304 14.532 12.5C14.532 11.9696 14.3173 11.4609 13.935 11.0858C13.5527 10.7107 13.0343 10.5 12.4938 10.5Z" fill="#283891"/>
<path fill-rule="evenodd" clip-rule="evenodd" d="M9.64012 5.5C8.50492 5.5 7.41622 5.9425 6.61352 6.73015C5.81082 7.5178 5.35986 8.58609 5.35986 9.7V15.3C5.35986 16.4139 5.81082 17.4822 6.61352 18.2698C7.41622 19.0575 8.50492 19.5 9.64012 19.5H15.3471C16.4823 19.5 17.571 19.0575 18.3737 18.2698C19.1764 17.4822 19.6274 16.4139 19.6274 15.3V9.7C19.6274 8.58609 19.1764 7.5178 18.3737 6.73015C17.571 5.9425 16.4823 5.5 15.3471 5.5H9.64012ZM9.16453 12.5C9.16453 11.6336 9.51528 10.8027 10.1396 10.1901C10.7639 9.5775 11.6107 9.23333 12.4936 9.23333C13.3766 9.23333 14.2234 9.5775 14.8477 10.1901C15.472 10.8027 15.8227 11.6336 15.8227 12.5C15.8227 13.3664 15.472 14.1973 14.8477 14.8099C14.2234 15.4225 13.3766 15.7667 12.4936 15.7667C11.6107 15.7667 10.7639 15.4225 10.1396 14.8099C9.51528 14.1973 9.16453 13.3664 9.16453 12.5ZM15.8227 9.23333H16.7739V8.3H15.8227V9.23333Z" fill="#283891"/>
</g>
<defs>
<clipPath id="clip0_755_2316">
<rect width="24.4586" height="25" fill="white" transform="translate(0.264404)"/>
</clipPath>
</defs>
</svg>
