<svg width="45" height="35" viewBox="0 0 45 35" fill="none" xmlns="http://www.w3.org/2000/svg">
<g clip-path="url(#clip0_288_453)">
<path d="M7.37915 31.5222L11.5833 27.7759C11.776 27.6045 12.0248 27.5094 12.2827 27.5085H22.4634C22.5082 27.509 22.5527 27.5006 22.5943 27.4836C22.6358 27.4667 22.6736 27.4416 22.7053 27.4099C22.737 27.3782 22.7621 27.3404 22.779 27.2989C22.796 27.2573 22.8044 27.2128 22.804 27.168V25.0293H24.9023V27.168C24.8995 27.8159 24.6408 28.4364 24.1826 28.8946C23.7245 29.3527 23.104 29.6114 22.4561 29.6143H12.6782L7.06787 34.613C6.92154 34.7595 6.73523 34.8594 6.53231 34.9004C6.32939 34.9413 6.11889 34.9214 5.92723 34.8432C5.73557 34.765 5.57128 34.6319 5.45497 34.4607C5.33865 34.2894 5.2755 34.0876 5.27344 33.8806V29.6143H2.44995C1.80141 29.6123 1.17993 29.3541 0.720995 28.8959C0.262062 28.4376 0.00289674 27.8165 0 27.168L0 11.366C0.00762383 10.7189 0.268305 10.1006 0.72622 9.64332C1.18414 9.18609 1.80288 8.92633 2.44995 8.91968H15.8752V11.0254H2.44995C2.36095 11.0305 2.27688 11.068 2.21351 11.1307C2.15013 11.1934 2.1118 11.277 2.10571 11.366V27.168C2.10604 27.2125 2.11528 27.2565 2.13289 27.2974C2.1505 27.3383 2.17613 27.3752 2.20825 27.406C2.27338 27.4689 2.35948 27.5054 2.44995 27.5085H6.32446C6.60418 27.5085 6.87245 27.6197 7.07024 27.8175C7.26803 28.0153 7.37915 28.2835 7.37915 28.5632V31.5222ZM7.45605 24.3884L10.8398 14.1675H14.0735L17.4573 24.3884H14.7766L14.209 22.5281H10.675L10.1221 24.3884H7.45605ZM11.2756 20.3931H13.6084L12.4512 16.2073L11.2756 20.3931ZM28.0627 5.78491H31.2488V4.9646C31.2488 4.89758 31.2754 4.83331 31.3228 4.78592C31.3702 4.73854 31.4344 4.71191 31.5015 4.71191H33.2043C33.2374 4.71191 33.27 4.71847 33.3005 4.73121C33.331 4.74396 33.3586 4.76263 33.3817 4.78614C33.4049 4.80965 33.4232 4.83754 33.4355 4.86818C33.4478 4.89881 33.4539 4.93159 33.4534 4.9646V5.78491H37.0276C37.0606 5.78491 37.0933 5.79147 37.1237 5.80421C37.1542 5.81696 37.1818 5.83563 37.205 5.85914C37.2282 5.88265 37.2464 5.91054 37.2587 5.94118C37.271 5.97181 37.2771 6.00459 37.2766 6.0376V7.6709C37.2766 7.73694 37.2504 7.80028 37.2037 7.84699C37.157 7.89369 37.0936 7.91992 37.0276 7.91992H36.46C36.385 8.4013 36.2736 8.8763 36.1267 9.34082V9.36279C35.9585 9.8868 35.7453 10.3953 35.4895 10.8826C35.2547 11.3172 34.993 11.7367 34.7058 12.1387C34.4604 12.5049 34.1895 12.8345 33.9001 13.175C34.314 13.6753 34.7645 14.1441 35.2478 14.5776C35.8334 15.0809 36.4565 15.5388 37.1118 15.9473C37.1395 15.9648 37.1635 15.9876 37.1823 16.0144C37.2012 16.0412 37.2146 16.0714 37.2217 16.1034C37.2289 16.1354 37.2296 16.1685 37.224 16.2008C37.2183 16.233 37.2063 16.2639 37.1887 16.2915L36.3135 17.6575C36.2954 17.6876 36.2711 17.7136 36.2424 17.7338C36.2137 17.754 36.181 17.768 36.1465 17.7749C36.1121 17.7818 36.0766 17.7815 36.0422 17.7738C36.0079 17.7662 35.9756 17.7515 35.9473 17.7307C35.2295 17.2848 34.5464 16.7853 33.9038 16.2366C33.3815 15.7705 32.892 15.2688 32.439 14.7351C31.9702 15.1526 31.5491 15.5444 31.1279 15.9106C30.6299 16.3208 30.1062 16.7163 29.491 17.1411C29.4633 17.1624 29.4316 17.1778 29.3977 17.1863C29.3639 17.1947 29.3286 17.196 29.2942 17.1902C29.2598 17.1843 29.227 17.1714 29.1978 17.1523C29.1687 17.1331 29.1438 17.1081 29.1248 17.0789L28.1982 15.7385C28.1769 15.7109 28.1616 15.6792 28.1531 15.6453C28.1447 15.6114 28.1433 15.5762 28.1492 15.5418C28.155 15.5074 28.1679 15.4746 28.1871 15.4454C28.2062 15.4162 28.2312 15.3913 28.2605 15.3723C28.8684 14.9548 29.3591 14.5703 29.8572 14.1711C30.282 13.8049 30.6921 13.4387 31.1353 13.0139C30.7656 12.491 30.4269 11.9468 30.1208 11.3843C29.7719 10.715 29.4956 10.0103 29.2969 9.28223C29.2879 9.25073 29.2853 9.21778 29.2891 9.18526C29.293 9.15274 29.3032 9.1213 29.3191 9.09273C29.3351 9.06415 29.3566 9.03901 29.3823 9.01875C29.408 8.99848 29.4375 8.98348 29.469 8.97461L31.0327 8.53882C31.0642 8.52989 31.0972 8.52726 31.1297 8.53108C31.1622 8.5349 31.1936 8.5451 31.2222 8.56109C31.2508 8.57707 31.2759 8.59854 31.2962 8.62425C31.3165 8.64996 31.3315 8.67942 31.3403 8.71094C31.5919 9.67754 32.0162 10.5907 32.5928 11.4063L33.0579 10.7837C33.2586 10.4925 33.4432 10.1906 33.6108 9.87915C33.7884 9.53663 33.9378 9.18023 34.0576 8.81348C34.1538 8.52008 34.2345 8.22181 34.2993 7.91992H28.0737C28.0073 7.91993 27.9436 7.89381 27.8963 7.84721C27.8491 7.80061 27.822 7.73728 27.821 7.6709V6.02295C27.821 5.95593 27.8477 5.89166 27.8951 5.84427C27.9424 5.79689 28.0067 5.77026 28.0737 5.77026L28.0627 5.78491ZM37.9504 26.593L32.3218 21.5906H22.5366C21.8887 21.5867 21.2683 21.3279 20.8098 20.8701C20.3512 20.4122 20.0915 19.7922 20.0867 19.1443V3.34595C20.0924 2.69555 20.3558 2.07396 20.8191 1.61743L20.8923 1.55151C21.3392 1.13511 21.9258 0.901233 22.5366 0.895996H42.55C43.1993 0.901918 43.8197 1.16535 44.2749 1.62842L44.3445 1.70166C44.762 2.15077 44.9959 2.7401 45 3.35327V19.1443C44.9952 19.7922 44.7354 20.4122 44.2769 20.8701C43.8184 21.3279 43.198 21.5867 42.55 21.5906H39.7302V25.8459C39.7272 26.0529 39.6633 26.2544 39.5465 26.4253C39.4297 26.5963 39.2652 26.729 39.0735 26.8071C38.8818 26.8852 38.6714 26.9051 38.4684 26.8645C38.2654 26.8238 38.0789 26.7243 37.9321 26.5784L37.9504 26.593ZM33.4204 19.7522L37.6208 23.4985V20.5396C37.6208 20.2598 37.732 19.9916 37.9298 19.7938C38.1276 19.596 38.3958 19.4849 38.6755 19.4849H42.55C42.5945 19.4843 42.6385 19.475 42.6793 19.4574C42.7202 19.4398 42.7571 19.4143 42.7881 19.3823C42.8209 19.3518 42.8472 19.315 42.8654 19.2741C42.8837 19.2332 42.8935 19.1891 42.8943 19.1443V3.34595C42.8906 3.2684 42.8624 3.19402 42.8137 3.13355L42.7881 3.09326C42.7244 3.02987 42.6397 2.99207 42.55 2.98706H22.5366C22.4607 2.99937 22.3911 3.03676 22.3389 3.09326H22.2986C22.2666 3.1242 22.2411 3.16117 22.2235 3.20203C22.2059 3.24288 22.1966 3.28682 22.196 3.3313V19.1443C22.1956 19.1891 22.204 19.2337 22.221 19.2752C22.2379 19.3167 22.263 19.3545 22.2947 19.3862C22.3264 19.4179 22.3642 19.443 22.4057 19.4599C22.4473 19.4769 22.4918 19.4854 22.5366 19.4849H32.7209C32.9791 19.4847 33.2282 19.5799 33.4204 19.7522Z" fill="#283891"/>
</g>
<defs>
<clipPath id="clip0_288_453">
<rect width="45" height="34.0247" fill="white" transform="translate(0 0.895996)"/>
</clipPath>
</defs>
</svg>
