<svg width="84" height="85" viewBox="0 0 84 85" fill="none" xmlns="http://www.w3.org/2000/svg">
<path d="M62 18.0625H22C19.7907 18.0625 18 19.8545 18 22.0625V66.0625L29.408 55.3958H62C64.208 55.3958 66 53.6038 66 51.3958V22.0625C66 19.8545 64.208 18.0625 62 18.0625Z" fill="#333333"/>
<path d="M36.6667 18.0625H22C19.7907 18.0625 18 19.8545 18 22.0625V66.0625L29.408 55.3958H46L36.6667 18.0625Z" fill="#FC502B"/>
<path d="M47.4187 42.3599C47.5 42.3185 54.0774 38.0679 58 30.2065L60.3867 31.3959C56.2774 39.7292 50.444 43.7852 49.0414 44.7292L47.4187 42.3599Z" fill="white"/>
<path d="M59.3333 44.7292C59.3333 44.7292 52.6667 41.2852 48.9747 35.3985L51.3333 34.0625C54.444 39.1732 60.6413 42.4092 60.6413 42.4092L59.3333 44.7292ZM46 30.0625H62V32.7292H46V30.0625Z" fill="white"/>
<path d="M52.6667 27.3958H55.3334V32.7291H52.6667V27.3958Z" fill="white"/>
<path d="M26 39.3958H34V42.0624H26V39.3958Z" fill="white"/>
<path d="M26.1453 44.7292L29.9999 32.7292L33.8746 44.7292H36.6879L31.3332 28.7292H28.6666L23.3333 44.7292H26.1453Z" fill="white"/>
</svg>
