<svg width="18" height="17" viewBox="0 0 18 17" fill="none" xmlns="http://www.w3.org/2000/svg">
<g clip-path="url(#clip0_298_549)">
<path d="M0.58886 7.28914H4.59663C4.92035 7.28914 5.18549 7.55428 5.18549 7.87947V15.7178C5.18549 16.0416 4.92035 16.3082 4.59663 16.3082H0.58886C0.265134 16.3082 0 16.043 0 15.7178V7.87947C0 7.55428 0.265134 7.28914 0.58886 7.28914ZM9.2372 1.40926C9.54774 -0.165451 12.1258 1.28474 12.2958 3.82332C12.347 4.59969 12.2665 5.50349 12.076 6.51277H15.7601C17.2923 6.57283 18.6297 7.67 17.6849 9.47176C17.9002 10.2569 17.9324 11.1783 17.3479 11.5416C17.4212 12.7808 17.0784 13.5484 16.4368 14.1549C16.3943 14.7745 16.2625 15.3253 15.9637 15.7486C15.4686 16.4473 15.0672 16.2803 14.2879 16.2803H8.0668C7.08097 16.2803 6.54338 16.0094 5.89886 15.2008V8.27205C7.75333 7.77107 8.73916 5.23396 9.2372 3.56844V1.40926Z" fill="black"/>
</g>
<defs>
<clipPath id="clip0_298_549">
<rect width="18" height="15.5508" fill="white" transform="translate(0 0.755859)"/>
</clipPath>
</defs>
</svg>
