<svg width="14" height="17" viewBox="0 0 14 17" fill="none" xmlns="http://www.w3.org/2000/svg">
<g clip-path="url(#clip0_755_2347)">
<path d="M6.61258 7.91667C6.0164 7.91667 5.4446 7.69717 5.02296 7.3065C4.6014 6.91575 4.36456 6.38587 4.36456 5.83333C4.36456 5.2808 4.6014 4.75089 5.02296 4.36019C5.4446 3.96949 6.0164 3.75 6.61258 3.75C7.20875 3.75 7.78056 3.96949 8.2022 4.36019C8.62376 4.75089 8.86061 5.2808 8.86061 5.83333C8.86061 6.10692 8.80243 6.37782 8.68948 6.63059C8.57655 6.88333 8.41091 7.113 8.2022 7.3065C7.99341 7.49992 7.74558 7.65342 7.47285 7.75808C7.20012 7.86275 6.90779 7.91667 6.61258 7.91667ZM6.61258 0C4.9432 0 3.34217 0.614583 2.16172 1.70854C0.981282 2.80251 0.318115 4.28623 0.318115 5.83333C0.318115 10.2083 6.61258 16.6667 6.61258 16.6667C6.61258 16.6667 12.9071 10.2083 12.9071 5.83333C12.9071 4.28623 12.2439 2.80251 11.0634 1.70854C9.88301 0.614583 8.28197 0 6.61258 0Z" fill="white"/>
</g>
<defs>
<clipPath id="clip0_755_2347">
<rect width="12.9486" height="17" fill="white" transform="translate(0.318115)"/>
</clipPath>
</defs>
</svg>
