<svg width="84" height="74" viewBox="0 0 84 74" fill="none" xmlns="http://www.w3.org/2000/svg">
<g clip-path="url(#clip0_293_457)">
<mask id="mask0_293_457" style="mask-type:luminance" maskUnits="userSpaceOnUse" x="22" y="0" width="40" height="74">
<path d="M62 0.0625H22V73.0625H62V0.0625Z" fill="white"/>
</mask>
<g mask="url(#mask0_293_457)">
<path fill-rule="evenodd" clip-rule="evenodd" d="M34.3298 30.5237C34.3298 29.0036 34.7805 27.5177 35.6251 26.2538C36.4696 24.9899 37.67 24.0049 39.0744 23.4232C40.4788 22.8416 42.0241 22.6895 43.515 22.9861C45.0058 23.2828 46.3752 24.0149 47.45 25.0898C48.5247 26.1648 49.2566 27.5343 49.553 29.0252C49.8494 30.5161 49.697 32.0614 49.1151 33.4657C48.5332 34.87 47.5479 36.0702 46.2839 36.9145C45.0199 37.7588 43.5339 38.2093 42.0138 38.2091C39.9764 38.2065 38.0233 37.3959 36.5828 35.9551C35.1423 34.5144 34.332 32.5611 34.3298 30.5237ZM52.9948 30.5237C52.9946 28.3518 52.3504 26.2287 51.1437 24.423C49.9369 22.6172 48.2217 21.2098 46.2151 20.3788C44.2085 19.5478 42.0005 19.3305 39.8704 19.7543C37.7403 20.1782 35.7836 21.2241 34.248 22.76C32.7123 24.2958 31.6665 26.2526 31.2429 28.3827C30.8193 30.5129 31.0369 32.7209 31.8681 34.7274C32.6994 36.7339 34.1069 38.4489 35.9128 39.6555C37.7187 40.8621 39.8419 41.506 42.0138 41.506C44.9254 41.5028 47.7168 40.3447 49.7755 38.2858C51.8343 36.2269 52.9919 33.4353 52.9948 30.5237ZM22.2542 72.6995L26.8127 59.7092H32.2483C32.3054 59.7092 32.3627 59.706 32.4196 59.7006L32.6846 59.6754L32.8681 59.8676C35.3373 62.4465 38.1176 64.9032 41.1136 66.8544C41.3812 67.0285 41.6936 67.1212 42.0128 67.1212C42.332 67.1212 42.6444 67.0285 42.912 66.8544C45.9075 64.9037 48.6872 62.4476 51.1544 59.8678L51.3379 59.6762L51.6017 59.7007C51.6605 59.7061 51.7194 59.7095 51.7784 59.7095H57.2126L61.7713 72.6995H22.2542ZM22.1318 32.5496C23.3202 43.9188 32.55 56.7359 41.6936 63.2594L42.0138 63.4874L42.3328 63.2598C51.477 56.7355 60.7071 43.9193 61.8957 32.55C62.246 29.1993 61.9202 25.8432 60.6759 22.6972C59.6534 20.1111 58.0853 17.8417 56.1235 15.8792C52.3648 12.119 47.3139 10.1315 42.0206 10.0625H42.0063C36.7102 10.1314 31.6651 12.1178 27.904 15.8786C25.9422 17.84 24.3743 20.1084 23.352 22.6939C22.1077 25.8409 21.7815 29.1979 22.1318 32.5496Z" fill="#FC502B"/>
</g>
</g>
<defs>
<clipPath id="clip0_293_457">
<rect width="40" height="73" fill="white" transform="translate(22 0.0625)"/>
</clipPath>
</defs>
</svg>
