<svg width="100" height="116" viewBox="0 0 100 116" fill="none" xmlns="http://www.w3.org/2000/svg">
<path d="M40.4066 75.6775L15.0767 61.8278V54.1522L40.4066 40.3588V49.395L22.7381 57.8922L40.4066 66.7089V75.6775Z" fill="#EAA159"/>
<path d="M42.7509 81.7659L51.901 33.6978H57.2267L47.9739 81.7659H42.7509Z" fill="#EAA159"/>
<path d="M59.568 75.7155V66.7384L77.2576 57.9879L59.568 49.3302V40.4207L84.9233 54.2156V61.8278L59.568 75.7155Z" fill="#EAA159"/>
<path d="M49.9986 115.466L0 86.6019V28.8659L49.9986 0L100 28.8673V86.5977L49.9986 115.466ZM5.07246 83.671L49.9986 109.609L94.9275 83.671V31.7954L49.9986 5.8562L5.07246 31.794V83.671Z" fill="#EAA159"/>
</svg>
