<svg width="447" height="140" viewBox="0 0 447 140" fill="none" xmlns="http://www.w3.org/2000/svg">
<g clip-path="url(#clip0_2_12)">
<path d="M48.8156 91.4266L18.2142 74.6946V65.4218L48.8156 48.7578V59.6744L27.4701 69.94L48.8156 80.5915V91.4266Z" fill="#EAA159"/>
<path d="M51.6476 98.782L62.7019 40.7105H69.136L57.9576 98.782H51.6476Z" fill="#EAA159"/>
<path d="M71.9646 91.4725V80.6272L93.3356 70.0556L71.9646 59.5963V48.8326L102.597 65.4982V74.6946L71.9646 91.4725Z" fill="#EAA159"/>
<path d="M60.4037 139.496L0 104.624V34.8731L60.4037 0L120.811 34.8748V104.619L60.4037 139.496ZM6.12808 101.084L60.4037 132.419L114.683 101.084V38.4123L60.4037 7.07492L6.12808 38.4106V101.084Z" fill="#EAA159"/>
<path d="M167.505 54.0649H150.86V66.7955H165.33V71.9862H150.86V89.8788H144.973V48.8727H167.505V54.0649ZM198.129 89.8802L187.515 71.4369H181.773V89.8802H176.002V48.8741H189.806C198.389 48.8741 202.304 54.1231 202.304 60.5607C202.304 66.2735 198.941 70.2464 193.315 71.2034L204.886 89.8791L198.129 89.8802ZM181.773 53.8629V67.0286H189.023C194.359 67.0286 196.766 64.3607 196.766 60.4749C196.766 56.6469 194.359 53.8629 189.023 53.8629H181.773ZM230.956 90.4312C219.327 90.4312 210.453 82.4275 210.453 69.3488C210.453 56.2993 219.327 48.3243 230.956 48.3243C242.527 48.3243 251.429 56.299 251.429 69.3488C251.429 82.4275 242.527 90.4312 230.956 90.4312ZM230.956 85.0084C239.163 85.0084 245.658 79.3245 245.658 69.349C245.658 59.4602 239.163 53.7765 230.956 53.7765C222.72 53.7765 216.195 59.4605 216.195 69.349C216.195 79.3248 222.72 85.0084 230.956 85.0084ZM288.692 48.8741H294.434V89.8802H288.199L266.769 57.3432V89.8802H261.056V48.8741H267.233L288.693 81.2657L288.692 48.8741ZM328.741 48.8741V54.0649H318.359V89.8802H312.646V54.0649H302.236V48.8741H328.741ZM358.842 54.0649H342.429V66.8246H356.899V71.9865H342.429V84.6592H358.842V89.8791H336.542V48.873H358.842V54.0649ZM396.25 48.8741H401.992V89.8802H395.758L374.327 57.3432V89.8802H368.614V48.8741H374.791L396.251 81.2657L396.25 48.8741ZM414.463 89.8802V48.8741H427.976C440.591 48.8741 447 57.342 447 69.3475C447 81.4403 440.591 89.8791 427.976 89.8791L414.463 89.8802ZM420.234 84.6604H427.744C436.705 84.6604 440.968 78.7154 440.968 69.3487C440.968 60.0398 436.705 54.0661 427.744 54.0661H420.234V84.6604Z" fill="white"/>
</g>
<defs>
<clipPath id="clip0_2_12">
<rect width="447" height="139.496" fill="white"/>
</clipPath>
</defs>
</svg>
