<svg width="60" height="61" viewBox="0 0 60 61" fill="none" xmlns="http://www.w3.org/2000/svg">
<path d="M50 20.5312L30 33.0312L10 20.5312V15.5312L30 28.0312L50 15.5312M50 10.5312H10C7.225 10.5312 5 12.7562 5 15.5312V45.5312C5 46.8573 5.52678 48.1291 6.46447 49.0668C7.40215 50.0045 8.67392 50.5312 10 50.5312H50C51.3261 50.5312 52.5979 50.0045 53.5355 49.0668C54.4732 48.1291 55 46.8573 55 45.5312V15.5312C55 14.2052 54.4732 12.9334 53.5355 11.9957C52.5979 11.058 51.3261 10.5313 50 10.5312Z" fill="white"/>
</svg>
