<svg width="24" height="20" viewBox="0 0 24 20" fill="none" xmlns="http://www.w3.org/2000/svg">
<path d="M20.0957 13.6833V16.63C20.0958 16.841 20.0096 17.0442 19.8545 17.1985C19.6993 17.3528 19.4868 17.4469 19.2598 17.4617C18.867 17.4867 18.5461 17.5 18.298 17.5C10.3546 17.5 3.91589 11.5308 3.91589 4.16667C3.91589 3.93667 3.92938 3.63917 3.95724 3.275C3.97317 3.06453 4.07462 2.86751 4.24111 2.72368C4.40761 2.57984 4.62674 2.49991 4.85433 2.5H8.03277C8.14427 2.49989 8.25183 2.53822 8.33455 2.60752C8.41728 2.67682 8.46927 2.77215 8.48041 2.875C8.50109 3.06667 8.51997 3.21917 8.53795 3.335C8.71658 4.49077 9.08267 5.61486 9.6238 6.66917C9.70919 6.83583 9.65345 7.035 9.49165 7.14167L7.55187 8.42667C8.7379 10.9888 10.9402 13.0304 13.7038 14.13L15.088 12.335C15.1447 12.2617 15.2272 12.2091 15.3214 12.1864C15.4154 12.1637 15.5152 12.1723 15.6031 12.2108C16.7402 12.7116 17.9524 13.0502 19.1987 13.215C19.3236 13.2317 19.4881 13.2492 19.6931 13.2683C19.8038 13.2788 19.9064 13.3272 19.9811 13.4038C20.0556 13.4805 20.0959 13.5801 20.0957 13.6833Z" fill="white"/>
</svg>
