<svg width="120" height="120" viewBox="0 0 120 120" fill="none" xmlns="http://www.w3.org/2000/svg">
<path d="M108 84.75C107 90 102.75 94 97.5 94.75C89.25 96 75.5 97.5 60 97.5C44.75 97.5 31 96 22.5 94.75C17.25 94 13 90 12 84.75C11 79 10 70.5 10 60C10 49.5 11 41 12 35.25C13 30 17.25 26 22.5 25.25C30.75 24 44.5 22.5 60 22.5C75.5 22.5 89 24 97.5 25.25C102.75 26 107 30 108 35.25C109 41 110.25 49.5 110.25 60C110 70.5 109 79 108 84.75Z" fill="#FF3D00"/>
<path d="M50 77.5V42.5L80 60L50 77.5Z" fill="white"/>
</svg>
