<svg width="16" height="17" viewBox="0 0 16 17" fill="none" xmlns="http://www.w3.org/2000/svg">
<g clip-path="url(#clip0_262_1123)">
<path d="M13.6568 2.80598C12.1459 1.285 10.1369 0.447388 8 0.447388C5.86314 0.447388 3.85414 1.285 2.34317 2.80598C0.832132 4.32689 0 6.3491 0 8.50002C0 10.651 0.832132 12.6732 2.34317 14.1941C3.85414 15.7151 5.86314 16.5527 8 16.5527C10.1369 16.5527 12.1459 15.7151 13.6568 14.1941C15.1679 12.6732 16 10.651 16 8.50002C16 6.3491 15.1679 4.32689 13.6568 2.80598ZM8 15.4834C4.17451 15.4834 1.06224 12.3507 1.06224 8.50002C1.06224 4.64936 4.17451 1.51662 8 1.51662C11.8255 1.51662 14.9378 4.64936 14.9378 8.50002C14.9378 12.3507 11.8255 15.4834 8 15.4834ZM10.377 7.27999L7.02254 5.33059C6.5835 5.07545 6.06008 5.07511 5.62234 5.32952C5.18456 5.58393 4.92322 6.04042 4.92322 6.55065V10.4494C4.92322 10.9597 5.18456 11.4161 5.62237 11.6705C5.84093 11.7976 6.08083 11.8611 6.32093 11.8611C6.56172 11.8611 6.80276 11.7972 7.02257 11.6694L10.377 9.72008C10.816 9.4649 11.078 9.00886 11.078 8.49998C11.078 7.99116 10.8159 7.53514 10.377 7.27999ZM9.84578 8.79413L6.49145 10.7435C6.33809 10.8326 6.20398 10.7739 6.15349 10.7446C6.10297 10.7152 5.98546 10.6277 5.98546 10.4494V6.55065C5.98546 6.37235 6.10294 6.28485 6.15349 6.25547C6.18404 6.23773 6.24518 6.20923 6.32268 6.20923C6.37328 6.20923 6.43087 6.22136 6.49145 6.25657L9.84587 8.20598C9.9992 8.29512 10.0157 8.44132 10.0157 8.50002C10.0157 8.55872 9.9992 8.70494 9.84578 8.79413Z" fill="#8B94AB"/>
</g>
<defs>
<clipPath id="clip0_262_1123">
<rect width="16" height="17" fill="white"/>
</clipPath>
</defs>
</svg>
