<svg width="70" height="71" viewBox="0 0 70 71" fill="none" xmlns="http://www.w3.org/2000/svg">
<g clip-path="url(#clip0_327_1227)">
<path d="M70 35.2593C70 44.5419 66.3125 53.4442 59.7487 60.008C53.185 66.5718 44.2826 70.2593 35 70.2593C25.7174 70.2593 16.815 66.5718 10.2513 60.008C3.68749 53.4442 0 44.5419 0 35.2593C0 25.9767 3.68749 17.0743 10.2513 10.5105C16.815 3.94677 25.7174 0.259277 35 0.259277C44.2826 0.259277 53.185 3.94677 59.7487 10.5105C66.3125 17.0743 70 25.9767 70 35.2593ZM29.7062 22.5412C29.3792 22.3083 28.9943 22.1699 28.5938 22.1412C28.1933 22.1125 27.7926 22.1946 27.4357 22.3785C27.0787 22.5624 26.7793 22.841 26.5701 23.1838C26.361 23.5265 26.2502 23.9202 26.25 24.3218V46.1968C26.2502 46.5983 26.361 46.992 26.5701 47.3348C26.7793 47.6775 27.0787 47.9561 27.4357 48.14C27.7926 48.3239 28.1933 48.406 28.5938 48.3773C28.9943 48.3487 29.3792 48.2103 29.7062 47.9774L45.0187 37.0399C45.3023 36.8375 45.5335 36.5704 45.6929 36.2607C45.8524 35.951 45.9356 35.6076 45.9356 35.2593C45.9356 34.9109 45.8524 34.5676 45.6929 34.2579C45.5335 33.9482 45.3023 33.681 45.0187 33.4787L29.7062 22.5412Z" fill="white" fill-opacity="0.9"/>
</g>
<defs>
<clipPath id="clip0_327_1227">
<rect width="70" height="70" fill="white" transform="translate(0 0.259277)"/>
</clipPath>
</defs>
</svg>
