<svg width="30" height="31" viewBox="0 0 30 31" fill="none" xmlns="http://www.w3.org/2000/svg">
<g clip-path="url(#clip0_262_391)">
<path fill-rule="evenodd" clip-rule="evenodd" d="M22.766 7.13949H29.9383C30.3103 13.5272 29.2098 19.4608 20.306 19.0168C18.1282 21.6001 15.5065 22.2838 16.9507 26.1411H18.4334C19.1773 26.1411 19.7827 26.739 19.7827 27.4681V28.5479H20.3496C21.0781 28.5479 21.6758 29.1331 21.6758 29.8521V31H8.32397V29.8521C8.32397 29.1357 8.9191 28.5479 9.65018 28.5479H10.2171V27.4681C10.2171 26.7365 10.825 26.1411 11.5664 26.1411H13.203C14.5548 22.3544 11.9768 21.7893 9.79126 19.0092C0.797676 19.5037 -0.313054 13.5524 0.0614647 7.13949H7.23376V4.927H6.04094C5.29447 4.927 4.68652 4.32658 4.68652 3.59497V2.28312H4.58647C3.94774 2.28312 3.42701 1.76847 3.42701 1.14282V0.454102C3.42701 0.204346 3.63479 0 3.88874 0H26.1136C26.3676 0 26.5754 0.204346 26.5754 0.454102V1.1403C26.5754 1.76847 26.0521 2.2806 25.4159 2.2806H25.3158V3.59245C25.3158 4.32658 24.7053 4.92448 23.9614 4.92448H22.7686V7.13949H22.766ZM15.0012 7.77523L15.8041 9.69759L17.9152 9.854L16.2992 11.2012L16.802 13.2194L15.0037 12.1245L13.2055 13.2194L13.7083 11.2012L12.0922 9.854L14.2034 9.69759L15.0012 7.77523ZM22.1222 9.53109L21.3244 16.61C26.6241 16.557 27.4347 13.6861 27.4347 9.53109H22.1222ZM7.87762 9.53109L8.6754 16.61C3.37827 16.557 2.5651 13.6861 2.5651 9.53109H7.87762ZM15.0012 6.53654C17.2252 6.53654 19.0285 8.31006 19.0285 10.4973C19.0285 12.6846 17.2252 14.4581 15.0012 14.4581C12.7772 14.4581 10.9738 12.6846 10.9738 10.4973C10.9713 8.31006 12.7746 6.53654 15.0012 6.53654Z" fill="#FC502B"/>
</g>
<defs>
<clipPath id="clip0_262_391">
<rect width="30" height="31" fill="white"/>
</clipPath>
</defs>
</svg>
