<svg width="80" height="80" viewBox="0 0 80 80" fill="none" xmlns="http://www.w3.org/2000/svg">
<g clip-path="url(#clip0_556_1468)">
<path d="M32.2156 -3.8147e-06C23.9588 -3.8147e-06 15.7003 3.13344 9.42345 9.41031C-3.1303 21.9637 -3.14467 42.4541 9.40908 55.0072C20.4144 66.0122 37.5063 67.3691 50.0153 59.0791L69.0522 78.1153C71.5643 80.6273 75.6053 80.6273 78.1172 78.1153C80.6293 75.6033 80.6293 71.5625 78.1172 69.0503L59.0947 50.0141C67.375 37.5069 66.0094 20.4103 55.0081 9.40781C48.7313 3.13125 40.4725 -0.00250244 32.216 -0.00250244L32.2156 -3.8147e-06ZM32.2013 8.48937C38.2547 8.49218 44.3069 10.8105 48.95 15.4534C58.2363 24.7394 58.2506 39.6787 48.9644 48.9659C39.6781 58.2519 24.7385 58.2519 15.4519 48.9659C6.16564 39.68 6.16564 24.7409 15.4519 15.4534C20.095 10.8103 26.1472 8.48624 32.2006 8.48937H32.2013ZM15.1213 39.4969C14.9683 39.5029 14.8192 39.547 14.6876 39.6252C14.5559 39.7034 14.4458 39.8131 14.3672 39.9445C14.2887 40.076 14.2441 40.2249 14.2376 40.3778C14.2311 40.5308 14.2628 40.683 14.3299 40.8206C17.5377 47.5362 24.4005 52.1731 32.3305 52.1731C34.0512 52.1731 35.7186 51.9492 37.3092 51.54C37.5065 51.4861 37.6803 51.3681 37.803 51.2046C37.9258 51.041 37.9907 50.8412 37.9874 50.6368C37.9841 50.4323 37.9128 50.2347 37.7848 50.0752C37.6568 49.9157 37.4794 49.8033 37.2805 49.7558C29.313 47.9762 21.997 44.4802 15.7258 39.6837C15.5527 39.5519 15.3385 39.4859 15.1213 39.4969Z" fill="#FF9431"/>
</g>
<defs>
<clipPath id="clip0_556_1468">
<rect width="80" height="80" fill="white"/>
</clipPath>
</defs>
</svg>
