<svg width="14" height="14" viewBox="0 0 14 14" fill="none" xmlns="http://www.w3.org/2000/svg">
<g clip-path="url(#clip0_1169_1740)">
<path fill-rule="evenodd" clip-rule="evenodd" d="M6.5474 10.263L3.7374 7.45301C4.0464 6.93601 4.3544 6.40101 4.6594 5.86901C5.6754 4.10301 6.6674 2.37901 7.5974 1.48201C10.1214 -1.04199 13.5784 0.422008 13.5784 0.422008C13.5784 0.422008 15.0414 3.87901 12.5184 6.40301C11.6284 7.32501 9.9314 8.30301 8.1784 9.31101C7.6324 9.62601 7.0814 9.94301 6.5474 10.263ZM8.6874 3.73101C8.6874 3.31144 8.85408 2.90905 9.15076 2.61236C9.44744 2.31568 9.84983 2.14901 10.2694 2.14901C10.689 2.14901 11.0914 2.31568 11.388 2.61236C11.6847 2.90905 11.8514 3.31144 11.8514 3.73101C11.841 4.14356 11.6699 4.53573 11.3744 4.82385C11.0789 5.11197 10.6826 5.27324 10.2699 5.27324C9.85722 5.27324 9.46087 5.11197 9.16541 4.82385C8.86995 4.53573 8.69778 4.14356 8.6874 3.73101ZM4.5974 3.49901C3.1794 3.12201 1.8484 3.82001 0.667401 4.90301C0.612939 4.95431 0.571225 5.01764 0.545589 5.08793C0.519953 5.15823 0.511105 5.23354 0.519752 5.30786C0.528398 5.38218 0.5543 5.45345 0.595388 5.51599C0.636477 5.57852 0.691615 5.63058 0.756401 5.66801L2.6614 6.81601L2.6634 6.81201C2.9384 6.35201 3.2454 5.81901 3.5574 5.27901C3.9124 4.66201 4.2734 4.03601 4.5974 3.49901ZM7.1844 11.339L8.3324 13.244C8.36992 13.3087 8.42205 13.3638 8.48462 13.4048C8.5472 13.4458 8.61849 13.4716 8.6928 13.4801C8.76712 13.4887 8.84241 13.4797 8.91265 13.454C8.9829 13.4283 9.04617 13.3865 9.0974 13.332C10.1804 12.152 10.8794 10.82 10.5014 9.40201C9.9794 9.71601 9.4314 10.032 8.8884 10.345L8.8054 10.393C8.2574 10.709 7.7144 11.021 7.1894 11.336L7.1844 11.339ZM2.6224 9.34301C3.02657 9.33584 3.42342 9.45132 3.76065 9.67422C4.09788 9.89711 4.35964 10.217 4.51145 10.5916C4.66326 10.9663 4.69798 11.3781 4.61103 11.7729C4.52408 12.1676 4.31955 12.5268 4.0244 12.803C3.8024 13.015 3.4554 13.181 3.1344 13.309C2.77427 13.4476 2.40709 13.567 2.0344 13.667C1.6674 13.767 1.3174 13.847 1.0524 13.9C0.940983 13.9229 0.828938 13.9425 0.716401 13.959L0.583401 13.972C0.516594 13.978 0.449257 13.9705 0.385401 13.95C0.291546 13.9227 0.207758 13.8684 0.144401 13.794C0.0899876 13.731 0.0521769 13.6554 0.0344013 13.574C0.0217516 13.5163 0.0177079 13.4569 0.0224012 13.398C0.0254012 13.358 0.0314012 13.312 0.0374012 13.27C0.0504012 13.182 0.0704013 13.067 0.0974013 12.936C0.150401 12.672 0.232401 12.324 0.332401 11.959C0.432401 11.595 0.554401 11.205 0.691401 10.864C0.819401 10.543 0.985401 10.197 1.1974 9.97601C1.38044 9.78045 1.60089 9.62365 1.84567 9.51492C2.09046 9.40618 2.35459 9.34772 2.6224 9.34301Z" fill="#0B488C"/>
</g>
<defs>
<clipPath id="clip0_1169_1740">
<rect width="14" height="14" fill="white"/>
</clipPath>
</defs>
</svg>
