<svg width="436" height="261" viewBox="0 0 436 261" fill="none" xmlns="http://www.w3.org/2000/svg">
<path d="M95.5 260.5H0.5V0.185059H95.5V260.5Z" fill="white"/>
<path d="M103.5 209.001H95.5V260.5H113C166.79 257.235 196.451 251.468 247.5 226.5C279.745 211.743 299.549 206.91 337 202.5H436V0H96V54C111.58 52.979 119.5 53.4992 135 59C150.16 67.6089 157.093 73.5165 166 89.0008C172.206 101.464 174.316 104.764 176 120C176.512 135.957 174.861 149.204 169 164.501C162.601 178.145 158.004 185.339 145 196.001C131.572 204.916 123.017 208.491 103.5 209.001Z" fill="#283891"/>
<path d="M223.5 238C186.347 252.883 162.94 257.529 117.5 260.5H435.821V202H336C295.048 205.695 271.079 213.48 223.5 238Z" fill="#FC502B"/>
<ellipse cx="106.5" cy="129.5" rx="69.5" ry="75.5" fill="white"/>
</svg>
