<svg width="123" height="97" viewBox="0 0 123 97" fill="none" xmlns="http://www.w3.org/2000/svg">
  <g clip-path="url(#clip0_376_746)">
    <path
      d="M12.0001 73.5099C12.1334 50.3499 12.2634 27.2232 12.3901 4.12991C12.3955 3.3867 12.6586 2.6684 13.1346 2.09759C13.6106 1.52677 14.2699 1.13881 15.0001 0.999911C23.4001 -0.750089 36.6401 -0.310089 45.6301 3.13991C51.961 5.42597 57.5105 9.46672 61.6301 14.7899C65.8815 9.72153 71.4032 5.87363 77.6301 3.63991C86.1201 0.399911 99.0001 -0.380089 108.23 0.999911C108.992 1.1032 109.691 1.47737 110.2 2.05397C110.709 2.63057 110.993 3.37105 111 4.13991V73.7999C110.999 74.2223 110.914 74.6403 110.751 75.0299C110.588 75.4195 110.349 75.7731 110.049 76.0704C109.749 76.3676 109.393 76.6028 109.002 76.7623C108.611 76.9218 108.192 77.0025 107.77 76.9999C107.521 76.9964 107.273 76.9662 107.03 76.9099C99.1478 75.8873 91.1367 76.6354 83.5801 79.0999C77.9977 81.1807 72.6994 83.9559 67.8101 87.3599C74.6853 85.2264 81.8518 84.1804 89.0501 84.2599C98.287 84.4069 107.479 85.574 116.46 87.7399V14.8399H119.67C120.521 14.8399 121.338 15.1781 121.94 15.7801C122.542 16.3821 122.88 17.1986 122.88 18.0499V91.9399C122.88 92.7913 122.542 93.6077 121.94 94.2097C121.338 94.8117 120.521 95.1499 119.67 95.1499C119.33 95.1471 118.992 95.0897 118.67 94.9799C108.996 92.3198 99.0307 90.8654 89.0001 90.6499C80.1358 90.5381 71.3509 92.3319 63.2401 95.9099C62.6961 96.256 62.0648 96.4399 61.4201 96.4399C60.7753 96.4399 60.144 96.256 59.6001 95.9099C51.4895 92.331 42.7044 90.5372 33.8401 90.6499C23.8321 90.8777 13.8904 92.3387 4.24006 94.9999C3.91797 95.1097 3.58035 95.1671 3.24006 95.1699C2.81431 95.1739 2.39203 95.0931 1.99778 94.9324C1.60354 94.7716 1.24523 94.534 0.943698 94.2334C0.64217 93.9328 0.403454 93.5752 0.241451 93.1814C0.0794467 92.7877 -0.00260824 92.3657 6.31917e-05 91.9399V18.0499C6.31917e-05 17.1986 0.338259 16.3821 0.94025 15.7801C1.54224 15.1781 2.35872 14.8399 3.21006 14.8399H6.42006V87.7399C15.4007 85.574 24.5931 84.4069 33.8301 84.2599C41.5467 84.1686 49.2237 85.3754 56.5401 87.8299C51.9185 84.0918 46.6517 81.2313 41.0001 79.3899C34.0001 77.0899 23.3201 76.3199 15.5101 76.9899C15.0866 77.0311 14.6592 76.9878 14.2527 76.8623C13.8462 76.7369 13.4686 76.5319 13.1421 76.2593C12.8155 75.9866 12.5463 75.6518 12.3503 75.2742C12.1542 74.8967 12.0352 74.4839 12.0001 74.0599C11.99 73.8767 11.99 73.6931 12.0001 73.5099ZM73.6401 64.3999C73.3879 64.5878 73.0998 64.722 72.7937 64.7941C72.4876 64.8663 72.1699 64.8749 71.8604 64.8194C71.5508 64.7639 71.2559 64.6456 70.9939 64.4716C70.7319 64.2977 70.5083 64.0718 70.337 63.8081C70.1657 63.5443 70.0504 63.2482 69.9981 62.9381C69.9457 62.628 69.9576 62.3104 70.0328 62.0051C70.1081 61.6997 70.2452 61.413 70.4356 61.1627C70.6261 60.9124 70.8658 60.7039 71.1401 60.5499C74.8298 58.2592 78.7946 56.4448 82.9401 55.1499C87.1464 53.7261 91.513 52.8293 95.9401 52.4799C96.2408 52.4635 96.5418 52.5065 96.8259 52.6064C97.11 52.7063 97.3717 52.8612 97.5959 53.0622C97.8202 53.2633 98.0027 53.5065 98.1329 53.7781C98.2632 54.0496 98.3386 54.3442 98.3551 54.6449C98.3715 54.9456 98.3285 55.2467 98.2286 55.5308C98.1287 55.8149 97.9738 56.0765 97.7727 56.3008C97.5717 56.5251 97.3284 56.7075 97.0569 56.8378C96.7853 56.968 96.4908 57.0435 96.1901 57.0599C92.1745 57.3962 88.2151 58.2223 84.4001 59.5199C80.6214 60.6848 77.0058 62.3246 73.6401 64.3999ZM73.8401 46.6399C73.3269 46.9661 72.7051 47.0751 72.1115 46.9429C71.518 46.8107 71.0013 46.4481 70.6751 45.9349C70.3488 45.4217 70.2399 44.8 70.3721 44.2064C70.5043 43.6128 70.8669 43.0961 71.3801 42.7699C75.062 40.5299 79.0048 38.75 83.1201 37.4699C87.2588 36.0845 91.55 35.2047 95.9001 34.8499C96.4951 34.8397 97.071 35.0606 97.5066 35.4661C97.9422 35.8716 98.2037 36.4302 98.2361 37.0245C98.2684 37.6188 98.0692 38.2024 97.6802 38.6529C97.2912 39.1033 96.7427 39.3854 96.1501 39.4399C92.1909 39.7684 88.2859 40.5742 84.5201 41.8399C80.7775 42.9981 77.1908 44.6101 73.8401 46.6399ZM73.9001 28.9399C73.6446 29.1014 73.3599 29.2111 73.0621 29.2626C72.7643 29.314 72.4593 29.3064 72.1645 29.24C71.8697 29.1736 71.5908 29.0498 71.3438 28.8756C71.0968 28.7014 70.8866 28.4803 70.7251 28.2249C70.5635 27.9695 70.4539 27.6848 70.4024 27.387C70.3509 27.0892 70.3586 26.7842 70.425 26.4893C70.4914 26.1945 70.6152 25.9156 70.7894 25.6687C70.9635 25.4217 71.1846 25.2114 71.4401 25.0499C75.1164 22.8203 79.0525 21.0504 83.1601 19.7799C87.2858 18.4005 91.5638 17.5274 95.9001 17.1799C96.2008 17.1635 96.5018 17.2065 96.7859 17.3064C97.07 17.4063 97.3317 17.5612 97.5559 17.7622C97.7802 17.9633 97.9627 18.2065 98.0929 18.4781C98.2232 18.7496 98.2986 19.0442 98.3151 19.3449C98.3315 19.6456 98.2885 19.9467 98.1886 20.2308C98.0887 20.5149 97.9338 20.7765 97.7327 21.0008C97.5317 21.2251 97.2884 21.4075 97.0169 21.5378C96.7453 21.668 96.4508 21.7435 96.1501 21.7599C92.2049 22.0888 88.3135 22.8912 84.5601 24.1499C80.8246 25.3056 77.2446 26.9142 73.9001 28.9399ZM51.7401 60.5499C52.0143 60.7039 52.254 60.9124 52.4445 61.1627C52.6349 61.413 52.772 61.6997 52.8473 62.0051C52.9225 62.3104 52.9344 62.628 52.8821 62.9381C52.8297 63.2482 52.7144 63.5443 52.5431 63.8081C52.3718 64.0718 52.1483 64.2977 51.8863 64.4716C51.6242 64.6456 51.3293 64.7639 51.0198 64.8194C50.7102 64.8749 50.3926 64.8663 50.0864 64.7941C49.7803 64.722 49.4923 64.5878 49.2401 64.3999C45.8869 62.3276 42.2849 60.6879 38.5201 59.5199C34.7051 58.2223 30.7457 57.3962 26.7301 57.0599C26.4293 57.0422 26.135 56.9654 25.864 56.8339C25.5929 56.7025 25.3504 56.5189 25.1503 56.2937C24.9502 56.0685 24.7964 55.8062 24.6977 55.5215C24.599 55.2369 24.5573 54.9356 24.5751 54.6349C24.5928 54.3342 24.6696 54.0399 24.801 53.7688C24.9325 53.4978 25.1161 53.2553 25.3412 53.0552C25.5664 52.8551 25.8288 52.7013 26.1134 52.6026C26.3981 52.5039 26.6993 52.4622 27.0001 52.4799C31.4271 52.8293 35.7937 53.7261 40.0001 55.1499C44.1455 56.4448 48.1104 58.2592 51.8001 60.5499H51.7401ZM51.5001 42.7699C52.0133 43.1014 52.3737 43.6232 52.5022 44.2205C52.6307 44.8178 52.5166 45.4417 52.1851 45.9549C51.8535 46.4681 51.3317 46.8286 50.7344 46.957C50.1371 47.0855 49.5133 46.9714 49.0001 46.6399C45.6493 44.6101 42.0626 42.9981 38.3201 41.8399C34.5543 40.5742 30.6493 39.7684 26.6901 39.4399C26.0814 39.3988 25.514 39.1176 25.1127 38.6581C24.7113 38.1987 24.509 37.5986 24.5501 36.9899C24.5912 36.3812 24.8724 35.8138 25.3319 35.4125C25.7913 35.0112 26.3914 34.8088 27.0001 34.8499C31.3501 35.2047 35.6413 36.0845 39.7801 37.4699C43.8954 38.75 47.8381 40.5299 51.5201 42.7699H51.5001ZM51.4401 25.0499C51.7151 25.2005 51.9564 25.4057 52.1492 25.6529C52.342 25.9001 52.4822 26.1842 52.5612 26.4875C52.6403 26.7909 52.6564 27.1073 52.6088 27.4172C52.5611 27.727 52.4505 28.0239 52.2839 28.2895C52.1174 28.5551 51.8982 28.7838 51.64 28.9616C51.3818 29.1394 51.0899 29.2626 50.7824 29.3235C50.4749 29.3844 50.1581 29.3818 49.8516 29.3158C49.5451 29.2499 49.2553 29.122 49.0001 28.9399C45.6555 26.9142 42.0756 25.3056 38.3401 24.1499C34.5866 22.8912 30.6953 22.0888 26.7501 21.7599C26.4493 21.7435 26.1548 21.668 25.8832 21.5378C25.6117 21.4075 25.3684 21.2251 25.1674 21.0008C24.9664 20.7765 24.8115 20.5149 24.7115 20.2308C24.6116 19.9467 24.5686 19.6456 24.5851 19.3449C24.6015 19.0442 24.677 18.7496 24.8072 18.4781C24.9375 18.2065 25.1199 17.9633 25.3442 17.7622C25.5684 17.5612 25.8301 17.4063 26.1142 17.3064C26.3983 17.2065 26.6993 17.1635 27.0001 17.1799C31.3364 17.5274 35.6144 18.4005 39.7401 19.7799C43.8477 21.0504 47.7837 22.8203 51.4601 25.0499H51.4401ZM104.56 6.99991C97.1401 6.29991 86.5001 7.11991 79.8301 9.64991C73.6295 11.8235 68.314 15.9726 64.7001 21.4599V81.7199C69.8969 78.158 75.5124 75.2495 81.4201 73.0599C88.8869 70.6683 96.7352 69.6949 104.56 70.1899V6.99991ZM58.2801 81.0999V21.3699C54.9201 15.4399 49.4901 11.4799 43.3501 9.12991C36.3501 6.45991 25.6001 5.85991 18.7901 6.82991L18.4301 70.3899C25.8601 70.1199 36.1201 71.0699 42.9501 73.2999C48.4379 75.0789 53.6113 77.7112 58.2801 81.0999Z"
      fill="white" />
  </g>
  <defs>
    <clipPath id="clip0_376_746">
      <rect width="122.88" height="96.44" fill="white" />
    </clipPath>
  </defs>
</svg>