<svg width="107" height="123" viewBox="0 0 107 123" fill="none" xmlns="http://www.w3.org/2000/svg">
  <g clip-path="url(#clip0_376_752)">
    <path
      d="M46.77 116.58C48.51 116.58 49.92 117.99 49.92 119.73C49.92 121.47 48.51 122.88 46.77 122.88H7.33C5.31 122.88 3.48 122.06 2.15 120.73C0.82 119.4 0 117.57 0 115.55V7.33C0 5.31 0.82 3.48 2.15 2.15C3.48 0.82 5.31 0 7.33 0H97.35C99.37 0 101.2 0.83 102.53 2.15C103.86 3.48 104.68 5.31 104.68 7.33V57.47C104.68 59.21 103.27 60.62 101.53 60.62C99.79 60.62 98.38 59.21 98.38 57.47V7.33C98.38 7.05 98.26 6.79 98.07 6.61C97.88 6.42 97.62 6.3 97.35 6.3H7.33C7.05 6.3 6.79 6.42 6.6 6.6C6.42 6.8 6.3 7.05 6.3 7.33V115.54C6.3 115.82 6.42 116.08 6.61 116.26C6.8 116.45 7.06 116.57 7.34 116.57H46.77V116.58ZM98.7 74.34C98.19 73.85 97.6 73.62 96.92 73.63C96.24 73.64 95.66 73.91 95.18 74.41L91.27 78.48L102.24 89.07L106.19 84.96C106.66 84.48 106.86 83.86 106.85 83.18C106.84 82.51 106.6 81.9 106.12 81.44L98.7 74.34ZM78.21 114.01C76.76 114.47 75.32 114.95 73.88 115.42C72.43 115.9 70.99 116.39 69.55 116.87C66.14 117.99 64.23 118.61 63.83 118.72C63.44 118.84 63.67 117.24 64.53 113.91L67.24 103.46L87.79 82.08L98.75 92.63L78.21 114.01ZM31.58 41.08C29.84 41.08 28.43 39.67 28.43 37.93C28.43 36.19 29.84 34.78 31.58 34.78H73.12C74.86 34.78 76.27 36.19 76.27 37.93C76.27 39.67 74.86 41.08 73.12 41.08H31.58ZM31.58 85.77C29.84 85.77 28.42 84.34 28.42 82.58C28.42 80.82 29.83 79.39 31.58 79.39H52.05C53.79 79.39 55.21 80.82 55.21 82.58C55.21 84.34 53.8 85.77 52.05 85.77H31.58ZM31.58 63.41C29.84 63.41 28.43 62 28.43 60.26C28.43 58.52 29.84 57.11 31.58 57.11H73.12C74.86 57.11 76.27 58.52 76.27 60.26C76.27 62 74.86 63.41 73.12 63.41H31.58Z"
      fill="white" />
  </g>
  <defs>
    <clipPath id="clip0_376_752">
      <rect width="106.86" height="122.88" fill="white" />
    </clipPath>
  </defs>
</svg>