<svg width="123" height="123" viewBox="0 0 123 123" fill="none" xmlns="http://www.w3.org/2000/svg">
    <g clip-path="url(#clip0_375_747)">
        <path
            d="M43.84 78.5501L53.58 107.19L58.48 90.1901L56.08 87.5601C55 85.9801 54.76 84.6001 55.36 83.4101C56.66 80.8401 59.35 81.3201 61.86 81.3201C64.49 81.3201 67.75 80.8201 68.57 84.1201C68.85 85.2201 68.5 86.3801 67.73 87.5601L65.33 90.1901L70.23 107.19L79.05 78.5501C85.41 84.2701 104.24 85.4201 111.25 89.3301C113.47 90.5701 115.47 92.1401 117.08 94.2601C119.52 97.4901 121.02 101.7 121.43 107.05L122.89 116.38C122.53 120.16 120.39 122.34 116.16 122.67H61.9H6.73C2.5 122.35 0.36 120.17 0 116.38L1.46 107.05C1.87 101.7 3.37 97.4901 5.81 94.2601C7.42 92.1301 9.42 90.5601 11.64 89.3301C18.65 85.4201 37.48 84.2701 43.84 78.5501ZM39.43 37.5601C38.22 37.6101 37.31 37.8601 36.69 38.2801C36.33 38.5201 36.07 38.8301 35.9 39.1901C35.71 39.5901 35.63 40.0801 35.64 40.6501C35.69 42.3101 36.56 44.4701 38.23 46.9601L38.25 47.0001L43.69 55.6601C45.87 59.1301 48.16 62.6701 51 65.2701C53.73 67.7701 57.05 69.4601 61.44 69.4701C66.19 69.4801 69.67 67.7201 72.48 65.0801C75.41 62.3301 77.73 58.5701 80.01 54.8101L86.14 44.7101C87.28 42.1001 87.7 40.3601 87.44 39.3301C87.28 38.7201 86.61 38.4201 85.47 38.3701C85.23 38.3601 84.98 38.3601 84.72 38.3601C84.45 38.3701 84.16 38.3901 83.86 38.4101C83.7 38.4201 83.54 38.4101 83.39 38.3801C82.84 38.4101 82.28 38.3701 81.71 38.2901L83.81 29.0001C72.6 28.8601 64.93 26.9101 55.86 21.1101C52.88 19.2101 51.98 17.0301 49 17.2401C46.75 17.6701 44.86 18.6801 43.35 20.3001C41.91 21.8501 40.82 23.9701 40.11 26.6801L41.3 37.6301C40.64 37.6701 40.01 37.6501 39.43 37.5601ZM87.57 35.6101C89.08 36.0701 90.05 37.0301 90.44 38.5801C90.88 40.3001 90.4 42.7101 88.95 46.0101C88.92 46.0701 88.89 46.1301 88.86 46.1901L82.66 56.4101C80.27 60.3501 77.84 64.2901 74.6 67.3301C71.25 70.4701 67.11 72.5601 61.46 72.5501C56.18 72.5401 52.21 70.5201 48.95 67.5401C45.8 64.6601 43.39 60.9401 41.1 57.3001L35.66 48.6501C33.67 45.6801 32.64 42.9701 32.57 40.7401C32.54 39.6901 32.72 38.7401 33.1 37.9101C33.51 37.0301 34.13 36.3001 34.97 35.7401C35.36 35.4801 35.8 35.2501 36.29 35.0701C35.94 30.3801 35.8 24.4601 36.03 19.5101C36.15 18.3401 36.37 17.1601 36.7 15.9801C38.09 11.0101 41.58 7.01008 45.9 4.26008C47.42 3.29008 49.09 2.49008 50.85 1.85008C61.3 -1.94992 75.16 0.120083 82.58 8.14008C85.6 11.4101 87.5 15.7501 87.91 21.4801L87.57 35.6101Z"
            fill="white" />
    </g>
    <defs>
        <clipPath id="clip0_375_747">
            <rect width="122.88" height="122.66" fill="white" />
        </clipPath>
    </defs>
</svg>