<svg width="123" height="111" viewBox="0 0 123 111" fill="none" xmlns="http://www.w3.org/2000/svg">
  <g clip-path="url(#clip0_376_759)">
    <path
      d="M6.32 0V6.22H18.54V0H24.86V14.88H98.01V0H104.33V6.22H116.55V0H122.87V110.35H116.55V103.16H104.33V110.35H98.01V94.79H24.87V110.35H18.55V103.16H6.32V110.35H0V0H6.32ZM44.67 35.77H78.2C78.96 35.77 79.65 36.08 80.15 36.58C80.65 37.08 80.96 37.77 80.96 38.53V71.83C80.96 72.59 80.65 73.28 80.15 73.78C79.65 74.28 78.96 74.59 78.2 74.59H44.67C43.91 74.59 43.22 74.28 42.72 73.78C42.22 73.28 41.91 72.59 41.91 71.83V38.53C41.91 37.77 42.22 37.08 42.72 36.58C43.23 36.08 43.92 35.77 44.67 35.77ZM44.81 63.83L56.06 53.06C56.51 52.64 57.22 52.69 57.62 53.14C57.63 53.15 57.63 53.16 57.64 53.16L67.64 64.99L69.17 55.58C69.27 54.98 69.84 54.56 70.44 54.66C70.67 54.69 70.88 54.81 71.04 54.96L78.05 62.33V39.19C78.05 39.04 77.99 38.91 77.89 38.82C77.8 38.73 77.66 38.66 77.52 38.66H45.32C45.17 38.66 45.04 38.72 44.95 38.82C44.86 38.91 44.79 39.05 44.79 39.19V63.83H44.81ZM70.68 42.08C71.78 42.08 72.79 42.53 73.51 43.25C74.24 43.98 74.68 44.98 74.68 46.08C74.68 47.18 74.23 48.19 73.51 48.91C72.78 49.64 71.78 50.08 70.68 50.08C69.58 50.08 68.57 49.63 67.85 48.91C67.12 48.18 66.68 47.18 66.68 46.08C66.68 44.98 67.13 43.97 67.85 43.25C68.59 42.52 69.58 42.08 70.68 42.08ZM98.01 21.2H24.87V88.47H98.02V21.2H98.01ZM116.56 96.84V85.04H104.34V96.84H116.56ZM116.56 78.72V66.92H104.34V78.72H116.56ZM116.56 60.59V48.79H104.34V60.59H116.56ZM116.56 42.47V30.67H104.34V42.47H116.56ZM116.56 24.35V12.55H104.34V24.35H116.56ZM18.54 96.84V85.04H6.32V96.84H18.54ZM18.54 78.72V66.92H6.32V78.72H18.54ZM18.54 60.59V48.79H6.32V60.59H18.54ZM18.54 42.47V30.67H6.32V42.47H18.54ZM18.54 24.35V12.55H6.32V24.35H18.54Z"
      fill="white" />
  </g>
  <defs>
    <clipPath id="clip0_376_759">
      <rect width="122.88" height="110.35" fill="white" />
    </clipPath>
  </defs>
</svg>