<svg width="380" height="513" viewBox="0 0 380 513" fill="none" xmlns="http://www.w3.org/2000/svg">
  <g clip-path="url(#clip0_376_749)">
    <path
      d="M224.83 43.51L301.36 123.94L223.55 125.24L224.83 43.51ZM306.13 277.45L306.27 277.58C314.16 284.26 315.21 285.42 325.67 285.93C333.41 286.21 341.84 286.54 347.43 294.83C352.21 302.04 352.62 307.5 352.96 312.95L353.02 313.56C353.38 320.57 355.54 325.12 359.69 330.74C364.75 337.41 367.78 343.07 368.92 348.26C371.27 358.82 366.26 365.83 358.75 372.18C356.79 373.86 355.05 375.34 354.51 376.56C353.09 379.86 353.02 382.89 353.02 386.05C352.76 402.88 342.61 416.84 323.72 415.57C315.71 414.91 313.34 417.69 306.87 422.78C293.27 433.75 282.63 433.66 269.07 422.71C262.77 417.61 260.43 415.05 252.3 415.5C234.41 416.7 223.21 403.76 222.92 385.99C222.75 378.08 222.62 376.77 217.06 371.97C209.52 365.56 204.51 358.81 206.89 348.12C208.03 342.93 211.13 337.27 216.18 330.61C226.79 316.89 219.49 307.94 228.45 294.69L228.58 294.56C234.11 286.41 242.46 286.14 250.14 285.87C260.37 285.53 262.02 284.06 269.61 277.45C282.71 266.04 293.03 266.02 306.13 277.45ZM370.14 492.85L349.86 489.21L339.68 507.47C339.62 507.6 339.55 507.74 339.41 507.8C335.17 513.06 331.26 512.92 327.89 510.16C324.25 507.2 321.82 500.86 320.28 496.69L319.67 495.14L298.18 454.57C297.5 453.3 297.98 451.75 299.26 451.14C299.39 451.07 299.53 451.01 299.59 451.01C301.82 450.27 304.31 448.71 307.01 446.7C309.83 444.6 312.8 441.97 315.83 439.28C316.37 438.81 317.04 438.54 317.78 438.61C323.58 438.74 329.24 438.27 334.29 436.59C339.28 434.9 343.86 431.94 347.77 426.95C348.64 425.81 350.26 425.6 351.34 426.48C351.61 426.75 351.88 427.02 352.01 427.36L376.87 475.33L379.03 479.98C379.1 480.11 379.17 480.25 379.17 480.38C380.17 483.95 380.38 487.05 379.17 489.41C377.6 492.47 373.32 493.89 370.14 492.85ZM226.16 489.21L205.87 492.85C202.91 493.84 198.3 492.25 196.78 489.27C195.57 486.98 195.77 483.88 196.78 480.25L199.07 475.19L223.93 427.22C224.06 426.89 224.33 426.62 224.6 426.35C225.75 425.47 227.3 425.67 228.18 426.82C235.83 436.63 246.33 438.75 258.16 438.47C258.83 438.41 259.5 438.61 260.11 439.15C264.31 442.88 271.06 449.1 276.35 450.87C277.8 451.45 278.55 453.02 277.76 454.44L256.27 495L255.66 496.55C254.12 500.73 251.69 507.06 248.05 510.03C244.68 512.72 240.84 512.92 236.53 507.67C233.3 501.56 229.55 495.29 226.16 489.21ZM288.01 305.47C275.75 305.47 264.7 310.46 256.68 318.48C248.66 326.49 243.67 337.54 243.67 349.81C243.67 362.07 248.66 373.12 256.68 381.14C264.7 389.16 275.75 394.14 288.01 394.14C300.27 394.14 311.32 389.16 319.34 381.14C327.35 373.12 332.34 362.07 332.34 349.81C332.2 325.35 312.55 305.47 288.01 305.47ZM67.32 366.46H164.55V351.85H67.32V366.46ZM67.32 310.36H201.02L201.03 310.15C201.37 305.1 202.06 300.53 203.6 295.75H67.32V310.36ZM67.32 254.26H263.61C267.24 251.9 271.1 250.11 275.22 248.8L275.31 248.78V239.65H67.32V254.26ZM67.32 85.97H135.82V71.36H67.32V85.97ZM67.32 142.07H164.55V127.46H67.32V142.07ZM67.32 198.17H275.04V183.56H67.32V198.17ZM342.64 135.51C342.64 129.7 338.73 124.68 333.36 123.22L220.64 4.69C218.29 1.79 214.72 0 210.81 0H22.9C10.24 0 0 10.23 0 22.9V414.92C0 427.56 10.26 437.82 22.9 437.82H193.67L204.13 417.62L204.25 417.36H20.46V20.35H200.54V135.39C200.54 142.43 206.24 148.24 213.39 148.24H322.18V262.21C327.38 266.52 325.36 263.98 326.13 263.94C331.95 264.23 336.93 264.42 342.64 266.01V135.51Z"
      fill="white" />
  </g>
  <defs>
    <clipPath id="clip0_376_749">
      <rect width="380" height="512.05" fill="white" />
    </clipPath>
  </defs>
</svg>