<svg width="114" height="123" viewBox="0 0 114 123" fill="none" xmlns="http://www.w3.org/2000/svg">
  <g clip-path="url(#clip0_376_755)">
    <path
      d="M46.5 12.6001C58.3 12.6001 76.8 12.7001 88.6 12.7001C89.9 12.7001 91.2 12.8001 92.5 13.1001C93.7 13.3001 94.9 13.7001 96.1 14.2001C97.2 14.7001 98.3 15.3001 99.4 16.0001C100.4 16.7001 101.4 17.5001 102.3 18.4001C103.2 19.3001 104 20.3001 104.7 21.3001C105.4 22.3001 106 23.4001 106.5 24.6001C107 25.7001 107.3 26.9001 107.6 28.2001C107.8 29.5001 108 30.7001 108 32.1001V71.2001C108 72.5001 107.9 73.8001 107.6 75.1001C107.4 76.4001 107 77.5001 106.5 78.7001C106 79.8001 105.4 80.9001 104.7 82.0001C104 83.0001 103.2 84.0001 102.3 84.9001C101.3 85.8001 100.3 86.7001 99.3 87.3001C98.3 88.0001 97.2 88.6001 96.1 89.1001C95 89.6001 93.8 89.9001 92.6 90.2001C91.4 90.4001 90.1 90.6001 88.7 90.6001H73.8C73.3 90.6001 72.9 90.7001 72.5 90.9001C72.1 91.1001 71.8 91.4001 71.5 91.7001C70.3 93.2001 69.1 94.7001 67.8 96.2001C66.5 97.6001 65.2 99.0001 63.7 100.3C62.3 101.6 60.8 102.8 59.3 104C57.8 105.2 56.2 106.3 54.6 107.4C53.1 108.4 51.4 109.4 49.7 110.3C48 111.2 46.3 112 44.6 112.8C44.4 112.9 44.2 112.9 44 112.8C43.7 112.6 43.6 112.2 43.7 111.9C44 111.3 44.3 110.8 44.6 110.2C44.9 109.7 45.2 109.1 45.4 108.5C45.9 107.4 46.4 106.3 46.8 105.1C47.3 103.9 47.7 102.7 48.1 101.5C48.5 100.4 48.9 99.2001 49.2 98.0001C49.6 96.8001 49.9 95.6001 50.2 94.4001C50.3 94.0001 50.4 93.7001 50.4 93.3001C50.4 92.5001 50.1 91.8001 49.5 91.2001C49 90.7001 48.2 90.3001 47.4 90.3001H30.4C29.1 90.3001 27.8 90.2001 26.5 89.9001C25.3 89.7001 24.1 89.3001 23 88.9001C21.9 88.5001 20.8 87.9001 19.8 87.2001C18.7 86.5001 17.7 85.6001 16.7 84.7001C15.8 83.8001 15 82.8001 14.3 81.8001C13.6 80.8001 13 79.7001 12.5 78.5001C12 77.4001 11.7 76.2001 11.4 74.9001C11.2 73.6001 11 72.4001 11 71.0001V46.3001C11 42.3001 5.8 42.3001 5 45.1001V71.0001C5 72.7001 5.2 74.4001 5.5 76.0001C5.8 77.6001 6.3 79.2001 6.9 80.7001C7.5 82.2001 8.3 83.6001 9.2 85.0001C10.1 86.4001 11.2 87.7001 12.4 88.9001C13.6 90.1001 14.9 91.2001 16.3 92.1001C17.6 93.0001 19.1 93.8001 20.6 94.4001C22.1 95.0001 23.7 95.5001 25.3 95.8001C26.9 96.1001 28.6 96.3001 30.3 96.3001H42.6C42.7 96.3001 42.8 96.3001 42.8 96.3001C43.2 96.4001 43.4 96.8001 43.2 97.2001C43 98.0001 42.7 98.7001 42.5 99.5001C42.1 100.6 41.7 101.7 41.3 102.8C40.9 103.8 40.4 104.9 40 105.9C40 106 40 106 40 106.1C39.6 107.1 39.1 108.1 38.5 109.1C37.9 110.1 37.3 111 36.5 112C35.8 112.9 34.9 113.9 34 114.9C33.1 115.9 32.1 116.8 31 117.8C30.4 118.4 30.1 119.1 30 119.9C30 120.7 30.2 121.4 30.8 122C31.2 122.4 31.7 122.7 32.2 122.9C32.7 123.1 33.3 123.1 33.8 122.9C36 122.3 38.2 121.6 40.4 120.9C42.5 120.2 44.6 119.4 46.6 118.5C48.6 117.6 50.6 116.7 52.5 115.7C54.4 114.7 56.2 113.6 58 112.4C59.8 111.3 61.5 110 63.1 108.7C64.8 107.4 66.3 106 67.9 104.6C69.2 103.4 70.4 102.1 71.6 100.8C72.8 99.5001 74 98.1001 75.1 96.7001C75.2 96.5001 75.4 96.4001 75.7 96.4001H88.7C90.4 96.4001 92.1 96.2001 93.7 95.9001C95.3 95.6001 96.9 95.1001 98.4 94.5001C99.9 93.9001 101.3 93.1001 102.7 92.2001C104.1 91.3001 105.4 90.2001 106.6 89.0001C107.8 87.8001 108.9 86.5001 109.8 85.1001C110.7 83.7001 111.5 82.3001 112.1 80.8001C112.7 79.3001 113.2 77.7001 113.5 76.1001C113.8 74.5001 114 72.8001 114 71.1001V31.9001C114 30.2001 113.8 28.5001 113.5 26.9001C113.2 25.3001 112.7 23.7001 112.1 22.2001C111.5 20.7001 110.7 19.3001 109.8 17.9001C108.9 16.5001 107.8 15.2001 106.6 14.0001C105.4 12.8001 104.1 11.7001 102.7 10.8001C101.4 9.90009 99.9 9.10009 98.4 8.50009C96.9 7.90009 95.3 7.40009 93.7 7.10009C92.1 6.80009 90.4 6.60009 88.7 6.60009C76.4 6.60009 57.5 6.50009 45.2 6.50009C42.2 7.40009 42 12.6001 46.5 12.6001ZM24.3 39.2001C26.2 39.8001 28.1 40.4001 30 41.0001C31.9 41.6001 33.8 42.3001 35.7 42.9001C40.2 44.3001 42.7 45.2001 43.2 45.3001C43.7 45.4001 43.4 43.4001 42.3 39.0001L38.7 25.3001L38.4 25.0001L24.3 39.2001ZM33.2 19.7001L14.9 0.500094C14.3 9.37581e-05 13.7 -0.199906 13 0.200094L0.4 12.4001C-0.1 13.0001 -0.2 13.7001 0.5 14.4001L19.1 33.9001L33.2 19.7001ZM42.1 72.9001C40.5 72.9001 39.3 71.7001 39.2 70.1001C39.2 68.5001 40.4 67.3001 42 67.2001L67 66.8001L72.7 66.4001C74.3 66.3001 75.6 67.5001 75.7 69.0001C75.8 70.6001 74.6 71.9001 73.1 72.0001L67.4 72.4001C67.4 72.4001 44.6 72.8001 42.1 72.9001ZM51 55.1001C49.4 55.1001 48.2 53.8001 48.2 52.3001C48.2 50.7001 49.5 49.5001 51 49.5001H86.6C88.2 49.5001 89.4 50.8001 89.4 52.3001C89.4 53.9001 88.1 55.1001 86.6 55.1001H51ZM63.6 38.2001C62 38.2001 60.8 36.9001 60.8 35.4001C60.8 33.9001 62.1 32.6001 63.6 32.6001H86.6C88.2 32.6001 89.4 33.9001 89.4 35.4001C89.4 37.0001 88.1 38.2001 86.6 38.2001H63.6Z"
      fill="white" />
  </g>
  <defs>
    <clipPath id="clip0_376_755">
      <rect width="113.8" height="122.9" fill="white" />
    </clipPath>
  </defs>
</svg>