<svg width="60" height="61" viewBox="0 0 60 61" fill="none" xmlns="http://www.w3.org/2000/svg">
<path d="M30.0024 55.5313C16.1949 55.5313 5.00244 44.3388 5.00244 30.5313C5.00244 16.7238 16.1949 5.53125 30.0024 5.53125C43.8099 5.53125 55.0024 16.7238 55.0024 30.5313C55.0024 44.3388 43.8099 55.5313 30.0024 55.5313ZM22.2274 33.4563L22.2599 33.4388L24.4349 40.6138C24.7149 41.3913 25.0999 41.5313 25.5674 41.4663C26.0374 41.4038 26.2849 41.1513 26.5924 40.8562L29.5624 37.9863L35.9374 42.7063C37.1024 43.3488 37.9399 43.0163 38.2299 41.6263L42.3749 22.0713C42.8324 20.2513 42.0274 19.5213 40.6174 20.1013L16.2849 29.5013C14.6249 30.1663 14.6349 31.0963 15.9849 31.5088L22.2274 33.4563Z" fill="white"/>
</svg>
