<svg width="26" height="25" viewBox="0 0 26 25" fill="none" xmlns="http://www.w3.org/2000/svg">
<g clip-path="url(#clip0_755_2323)">
<path d="M20.156 0.5H5.88851C3.07432 0.5 0.792969 2.73858 0.792969 5.5V19.5C0.792969 22.2614 3.07432 24.5 5.88851 24.5H20.156C22.9702 24.5 25.2516 22.2614 25.2516 19.5V5.5C25.2516 2.73858 22.9702 0.5 20.156 0.5Z" fill="#F6F8FD"/>
<path d="M6.8691 11.666C10.6997 9.97266 13.2535 8.85621 14.5304 8.31684C18.1803 6.77664 18.9378 6.50914 19.4326 6.50008C19.5414 6.49831 19.7837 6.5256 19.9417 6.65529C20.0731 6.76466 20.11 6.91258 20.1285 7.01643C20.1449 7.12018 20.1675 7.35664 20.149 7.54122C19.9519 9.64954 19.0959 14.7657 18.6607 17.1272C18.478 18.1263 18.1147 18.4613 17.7636 18.4941C17 18.5653 16.421 17.9824 15.6821 17.4909C14.5263 16.7216 13.8734 16.2428 12.7505 15.4922C11.4532 14.6247 12.2948 14.1478 13.0338 13.3687C13.2268 13.1647 16.5894 10.0616 16.653 9.78016C16.6612 9.74495 16.6695 9.6137 16.5914 9.54454C16.5155 9.47516 16.4026 9.49891 16.3204 9.51766C16.2034 9.54433 14.3579 10.7835 10.7777 13.2349C10.2543 13.6003 9.78005 13.7785 9.35306 13.7691C8.885 13.7589 7.98175 13.4999 7.31047 13.2787C6.48932 13.0072 5.83447 12.8637 5.89194 12.4026C5.92068 12.1626 6.24708 11.917 6.8691 11.666Z" fill="#283891"/>
</g>
<defs>
<clipPath id="clip0_755_2323">
<rect width="24.4586" height="25" fill="white" transform="translate(0.792969)"/>
</clipPath>
</defs>
</svg>
