<svg width="1146" height="69" viewBox="0 0 1146 69" fill="none" xmlns="http://www.w3.org/2000/svg">
<rect x="78.5" width="918" height="68" fill="#283891"/>
<g clip-path="url(#clip0_915_1878)">
<path d="M78.5 -0.50319C78.5 22.093 78.5 44.6892 78.5 67.9701C54.0556 67.9701 54.0556 67.9701 47.6211 66.3755C45.2204 65.7957 43.1278 65.4816 40.5 65.3365C39.84 65.6841 39.18 66.0318 38.5 66.3899C37.18 66.3899 35.86 66.3899 34.5 66.3899C33.7988 65.9988 33.0975 65.6078 32.375 65.2048C29.5267 63.7698 27.9829 63.3769 24.375 62.7029C19.8998 61.848 18.9077 61.1663 16.5 59.0159C14.3281 58.4916 12.159 58.1462 9.86328 57.7999C6.60111 57.2972 3.60032 56.5852 0.5 55.8556C1.57401 54.3201 2.2781 53.3389 4.5 52.1686C3.51 51.6471 2.52 51.1257 1.5 50.5884C2.49 50.3277 2.49 50.3277 3.5 50.0617C3.31437 49.5837 3.12875 49.1057 2.9375 48.6132C2.52322 46.9922 2.69156 46.3085 3.5 44.7945C3.47937 44.2622 3.45875 43.7299 3.4375 43.1814C3.5 41.6342 3.5 41.6342 5.5 40.0541C5.88193 38.9418 5.88193 38.9418 6 37.7497C6.32392 35.8607 7.09872 34.4329 8.5 32.68C8.88131 31.4549 9.2246 30.226 9.5 28.993C10.16 28.993 10.82 28.993 11.5 28.993C11.6644 28.1741 11.6644 28.1741 11.832 27.3388C11.9915 26.6172 12.1517 25.8957 12.3125 25.1743C12.3828 24.8151 12.453 24.4559 12.5254 24.0859C13.0241 21.9214 13.7827 20.6232 16.5 18.9854C16.83 18.4639 17.16 17.9425 17.5 17.4052C18.49 17.1445 18.49 17.1445 19.5 16.8785C18.015 15.0534 18.015 15.0534 16.5 13.1915C18.81 12.67 21.12 12.1486 23.5 11.6113C22.84 10.916 22.18 10.2208 21.5 9.50444C22.16 9.33062 22.82 9.15681 23.5 8.97772C23.9491 8.04066 24.3354 7.09511 24.6875 6.14662C26.0574 3.3334 26.0574 3.3334 29.8125 2.06456C33.0494 1.65999 36.2085 1.32463 39.5 1.07696C40.6589 0.904503 41.8177 0.732045 43.0117 0.55436C48.1009 -0.127364 53.1463 -0.19412 58.375 -0.272751C60.2475 -0.304243 62.1199 -0.337747 63.9922 -0.373568C64.8106 -0.386172 65.629 -0.398775 66.4722 -0.411761C74.4354 -0.770802 74.4354 -0.770802 78.5 -0.50319Z" fill="#283891"/>
</g>
<g clip-path="url(#clip1_915_1878)">
<path d="M995.5 -8.96193e-05C1004.87 -0.0160201 1004.87 -0.0160201 1014.42 -0.0322725C1016.39 -0.0369603 1018.36 -0.0416482 1020.39 -0.0464782C1022.8 -0.0488039 1022.8 -0.0488039 1023.93 -0.049236C1024.72 -0.0500248 1025.5 -0.0518317 1026.29 -0.0544532C1027.48 -0.0582324 1028.68 -0.0587424 1029.87 -0.0585467C1030.88 -0.0602619 1030.88 -0.0602619 1031.91 -0.0620117C1033.46 -0.0076998 1034.82 0.180423 1036.33 0.514836C1037.21 0.575333 1038.09 0.617043 1038.97 0.641556C1039.45 0.658482 1039.94 0.675408 1040.44 0.692847C1041.46 0.724486 1042.48 0.75397 1043.5 0.78135C1044.22 0.807735 1044.22 0.807735 1044.97 0.834653C1045.63 0.854006 1045.63 0.854006 1046.3 0.87375C1047.46 1.02976 1047.46 1.02976 1049.06 2.05961C1049.06 1.37991 1049.06 0.700209 1049.06 -8.96193e-05C1049.93 -8.96193e-05 1050.8 -8.96193e-05 1051.71 -8.96193e-05C1051.71 0.169836 1051.71 0.339761 1051.71 0.514836C1052.28 0.557587 1052.28 0.557587 1052.86 0.601201C1054.57 0.731112 1056.29 0.864304 1058 0.997578C1058.9 1.06479 1058.9 1.06479 1059.82 1.13335C1060.39 1.17815 1060.96 1.22296 1061.55 1.26912C1062.07 1.30957 1062.6 1.35002 1063.14 1.39169C1064.43 1.54469 1064.43 1.54469 1065.49 2.05961C1065.49 1.71976 1065.49 1.37991 1065.49 1.02976C1068.12 1.02976 1070.74 1.02976 1073.45 1.02976C1073.62 1.87939 1073.8 2.72901 1073.98 3.60439C1073.45 3.77431 1072.93 3.94424 1072.39 4.11931C1073.44 4.62909 1073.44 4.62909 1074.51 5.14916C1074.86 3.95969 1075.21 2.77021 1075.57 1.54469C1081.39 1.22018 1081.39 1.22018 1083.65 2.57454C1083.96 2.91439 1084.27 3.25424 1084.58 3.60439C1084.23 4.28409 1083.88 4.96379 1083.52 5.66409C1084.05 5.66409 1084.57 5.66409 1085.11 5.66409C1085.21 5.18617 1085.21 5.18617 1085.31 4.6986C1085.64 3.60439 1085.64 3.60439 1086.7 2.57454C1088.03 2.5685 1088.03 2.5685 1089.72 2.73545C1093.08 3.04378 1096.43 3.2656 1099.79 3.45957C1101.55 3.60439 1101.55 3.60439 1102.9 3.87995C1104.98 4.26365 1107.05 4.10001 1109.16 4.03684C1110.56 4.11931 1110.56 4.11931 1111.62 5.14916C1111.45 5.48901 1111.27 5.82887 1111.09 6.17901C1109.17 6.17901 1107.24 6.17901 1105.26 6.17901C1105.44 6.51887 1105.61 6.85872 1105.79 7.20887C1106.85 7.23077 1107.91 7.22988 1108.97 7.20887C1109.15 7.03894 1109.32 6.86901 1109.5 6.69394C1110.74 6.67286 1111.98 6.6721 1113.22 6.69394C1113.22 7.03379 1113.22 7.37364 1113.22 7.72379C1113.57 7.55387 1113.92 7.38394 1114.28 7.20887C1114.62 6.16633 1114.62 6.16633 1114.81 5.14916C1120.04 5.04856 1125.06 4.95235 1130.18 6.17901C1130.18 6.68879 1130.18 7.19857 1130.18 7.72379C1128.96 7.89372 1127.73 8.06364 1126.47 8.23872C1129.97 8.74849 1133.47 9.25827 1137.08 9.78349C1137.08 10.1233 1137.08 10.4632 1137.08 10.8133C1135.21 10.9005 1133.34 10.9858 1131.48 11.0708C1130.95 11.0954 1130.43 11.1199 1129.88 11.1452C1127.15 11.2686 1124.43 11.3581 1121.7 11.3283C1121.7 11.6681 1121.7 12.008 1121.7 12.3581C1121 12.1882 1120.3 12.0183 1119.58 11.8432C1119.58 11.5033 1119.58 11.1635 1119.58 10.8133C1117.48 10.9833 1115.38 11.1532 1113.22 11.3283C1113.22 10.9884 1113.22 10.6486 1113.22 10.2984C1112.34 10.2606 1112.34 10.2606 1111.44 10.222C1105.99 9.97178 1100.57 9.59918 1095.14 9.04857C1090.28 8.5589 1090.28 8.5589 1085.64 9.78349C1091.94 10.5482 1091.94 10.5482 1098.37 11.3283C1098.37 11.838 1098.37 12.3478 1098.37 12.873C1096.22 12.911 1094.23 12.886 1092.09 12.6156C1088.52 12.2133 1084.95 12.3036 1081.37 12.3259C1080.65 12.3285 1079.93 12.3309 1079.21 12.333C1077.47 12.339 1075.72 12.3474 1073.98 12.3581C1073.98 12.698 1073.98 13.0378 1073.98 13.388C1074.5 13.5579 1075.03 13.7278 1075.57 13.9029C1075.57 13.563 1075.57 13.2232 1075.57 12.873C1077.32 12.873 1079.07 12.873 1080.87 12.873C1080.87 13.2129 1080.87 13.5527 1080.87 13.9029C1082.09 13.9029 1083.32 13.9029 1084.58 13.9029C1084.58 13.563 1084.58 13.2232 1084.58 12.873C1085.28 12.873 1085.98 12.873 1086.7 12.873C1086.88 13.3828 1087.05 13.8926 1087.23 14.4178C1088.46 14.5877 1089.68 14.7577 1090.94 14.9327C1090.94 14.423 1090.94 13.9132 1090.94 13.388C1092.66 13.4598 1094.37 13.5362 1096.08 13.6132C1096.81 13.6436 1096.81 13.6436 1097.55 13.6746C1098.02 13.6962 1098.49 13.7177 1098.97 13.74C1099.4 13.7588 1099.83 13.7777 1100.28 13.7972C1101.61 13.9082 1102.89 14.1392 1104.2 14.4178C1104.03 14.7577 1103.85 15.0975 1103.67 15.4477C1104.21 15.4972 1104.21 15.4972 1104.76 15.5476C1108.19 15.8639 1111.62 16.1887 1115.05 16.5228C1116.82 16.6941 1118.58 16.8614 1120.34 17.023C1137.55 18.6044 1137.55 18.6044 1142.38 21.1119C1142.85 22.2235 1142.85 22.2235 1142.91 23.1716C1138.03 23.2552 1133.19 23.0174 1128.31 22.7313C1120.8 22.293 1113.32 21.9855 1105.79 22.1417C1105.79 22.4816 1105.79 22.8214 1105.79 23.1716C1106.32 23.1908 1106.85 23.2101 1107.4 23.2299C1108.11 23.2637 1108.82 23.2979 1109.54 23.3325C1110.58 23.3773 1110.58 23.3773 1111.64 23.423C1113.85 23.7 1115.42 24.3814 1117.46 25.2313C1119.01 25.5333 1120.56 25.6773 1122.13 25.8105C1122.55 25.851 1122.97 25.8914 1123.4 25.9331C1124.6 26.0482 1125.8 26.156 1127 26.2611C1128.06 26.3567 1129.12 26.453 1130.18 26.5507C1130.58 26.5833 1130.97 26.6158 1131.38 26.6493C1132.3 26.776 1132.3 26.776 1133.36 27.291C1133.36 27.6308 1133.36 27.9707 1133.36 28.3208C1130.22 28.3208 1127.07 28.3208 1123.82 28.3208C1123.82 28.6607 1123.82 29.0005 1123.82 29.3507C1124.35 29.3507 1124.87 29.3507 1125.41 29.3507C1125.41 29.6905 1125.41 30.0304 1125.41 30.3805C1118.12 30.449 1110.88 30.2539 1103.6 29.8656C1101.73 29.7673 1099.85 29.6707 1097.97 29.5759C1097.31 29.5427 1097.31 29.5427 1096.64 29.5088C1093.68 29.3649 1090.73 29.3027 1087.76 29.3507C1089.16 29.5206 1090.56 29.6905 1092.01 29.8656C1092.01 30.3754 1092.01 30.8851 1092.01 31.4104C1091.66 31.4077 1091.32 31.405 1090.96 31.4022C1089.4 31.3915 1087.83 31.3848 1086.27 31.3782C1085.73 31.3739 1085.19 31.3695 1084.63 31.3651C1084.11 31.3634 1083.58 31.3618 1083.05 31.3601C1082.57 31.3574 1082.09 31.3547 1081.59 31.3519C1080.26 31.3593 1080.26 31.3593 1078.75 31.9253C1079.27 32.9448 1079.27 32.9448 1079.81 33.985C1081.56 33.985 1083.31 33.985 1085.11 33.985C1085.11 33.4752 1085.11 32.9654 1085.11 32.4402C1085.81 32.7801 1086.51 33.1199 1087.23 33.4701C1087.23 33.64 1087.23 33.8099 1087.23 33.985C1089.86 34.1549 1092.48 34.3248 1095.19 34.4999C1095.19 35.0097 1095.19 35.5195 1095.19 36.0447C1093.79 36.3845 1092.39 36.7244 1090.94 37.0745C1091.51 37.0254 1092.08 36.9763 1092.67 36.9257C1093.43 36.8677 1094.19 36.81 1094.95 36.7527C1095.52 36.7029 1095.52 36.7029 1096.09 36.6521C1098.7 36.4651 1100.66 36.7608 1103.14 37.5895C1103.32 37.2496 1103.49 36.9098 1103.67 36.5596C1104.01 36.628 1104.35 36.6963 1104.7 36.7668C1107.36 37.2933 1110 37.7639 1112.69 38.1044C1112.51 38.6142 1112.34 39.1239 1112.15 39.6492C1107.52 40.4751 1103.08 40.8139 1098.37 40.679C1098.37 41.0189 1098.37 41.3587 1098.37 41.7089C1100.64 41.8788 1102.92 42.0487 1105.26 42.2238C1105.26 41.8839 1105.26 41.5441 1105.26 41.1939C1106.49 41.1939 1107.71 41.1939 1108.97 41.1939C1108.97 42.2135 1108.97 43.233 1108.97 44.2835C1108.45 44.5384 1108.45 44.5384 1107.91 44.7984C1108.2 44.8102 1108.49 44.8219 1108.79 44.834C1111.83 44.9581 1114.88 45.0837 1117.93 45.2101C1119.06 45.2569 1120.19 45.3034 1121.32 45.3494C1139.18 46.0763 1139.18 46.0763 1140.79 46.8581C1140.79 47.198 1140.79 47.5378 1140.79 47.888C1140.44 48.0579 1140.09 48.2278 1139.73 48.4029C1141.3 48.5728 1142.88 48.7427 1144.5 48.9178C1144.5 49.4276 1144.5 49.9374 1144.5 50.4626C1141.24 51.5069 1138.27 52.1454 1134.83 51.8465C1134.13 51.7927 1133.44 51.739 1132.72 51.6837C1132.32 51.6527 1131.92 51.6217 1131.52 51.5898C1116.35 50.4822 1101.11 49.7877 1085.91 49.8189C1085.16 49.8197 1085.16 49.8197 1084.39 49.8204C1083 49.8237 1081.61 49.8318 1080.22 49.8431C1079.82 49.8453 1079.41 49.8476 1078.99 49.8499C1076.95 49.8432 1076.95 49.8432 1075.04 50.4626C1078.89 50.4626 1082.74 50.4626 1086.7 50.4626C1086.88 50.9724 1087.05 51.4821 1087.23 52.0074C1085.92 52.2623 1085.92 52.2623 1084.58 52.5223C1084.96 52.5163 1085.34 52.5103 1085.73 52.5042C1089.79 52.4685 1093.79 52.6824 1097.84 53.0372C1097.84 53.547 1097.84 54.0568 1097.84 54.582C1095.65 55.6107 1093.89 55.7037 1091.48 55.6119C1091.65 55.9517 1091.83 56.2915 1092.01 56.6417C1092.03 57.6713 1092.03 58.7016 1092.01 59.7313C1091.48 59.9012 1090.96 60.0711 1090.41 60.2462C1092.16 60.6579 1092.91 60.8108 1094.66 60.2462C1095.05 59.2086 1095.05 59.2086 1095.19 58.1865C1095.71 58.5263 1096.24 58.8662 1096.78 59.2163C1096.78 59.5562 1096.78 59.896 1096.78 60.2462C1097.08 60.2591 1097.38 60.272 1097.69 60.2853C1099.08 60.3455 1100.46 60.4085 1101.85 60.4715C1102.32 60.4917 1102.8 60.5119 1103.29 60.5328C1105.92 60.6547 1108.49 60.8632 1111.09 61.276C1111.09 62.1257 1111.09 62.9753 1111.09 63.8507C1109.66 64.5481 1108.44 64.3991 1106.85 64.3656C1106.85 64.7054 1106.85 65.0453 1106.85 65.3954C1105.54 65.6503 1105.54 65.6503 1104.2 65.9104C1104.2 65.5705 1104.2 65.2307 1104.2 64.8805C1103.15 64.8805 1102.1 64.8805 1101.02 64.8805C1101.02 64.5407 1101.02 64.2008 1101.02 63.8507C1100.26 63.9097 1099.49 63.9753 1098.73 64.0438C1098.1 64.0975 1098.1 64.0975 1097.45 64.1524C1096.1 64.3118 1096.1 64.3118 1094.66 65.3954C1094.13 65.2255 1093.61 65.0556 1093.07 64.8805C1090.72 64.7142 1088.5 64.5863 1086.31 65.4598C1084.6 66.1041 1083.63 65.4423 1081.93 64.8805C1079.93 65.0344 1079.93 65.0344 1078.22 65.3954C1078.22 65.7353 1078.22 66.0751 1078.22 66.4253C1076.82 66.4253 1075.42 66.4253 1073.98 66.4253C1073.98 65.9155 1073.98 65.4057 1073.98 64.8805C1073.45 64.8805 1072.93 64.8805 1072.39 64.8805C1072.39 65.3903 1072.39 65.9001 1072.39 66.4253C1071.96 66.3297 1071.53 66.2341 1071.09 66.1356C1069.28 65.9191 1067.76 66.0603 1065.96 66.2945C1063.96 66.466 1061.97 66.4442 1059.96 66.4253C1056.63 66.3967 1053.42 66.5329 1050.12 66.9402C1049.94 66.0906 1049.77 65.241 1049.59 64.3656C1049.24 64.3656 1048.89 64.3656 1048.52 64.3656C1048.45 64.6948 1048.37 65.024 1048.29 65.3633C1047.99 66.4253 1047.99 66.4253 1047.46 66.9402C1046.58 66.9611 1045.7 66.9622 1044.81 66.9402C1044.81 66.2605 1044.81 65.5808 1044.81 64.8805C1043.94 64.8805 1043.06 64.8805 1042.16 64.8805C1042.16 65.3903 1042.16 65.9001 1042.16 66.4253C1041.25 66.5266 1040.33 66.622 1039.41 66.7149C1038.9 66.7687 1038.39 66.8225 1037.86 66.8779C1036.36 66.9391 1035.14 66.7359 1033.68 66.4253C1032.97 66.583 1032.26 66.752 1031.56 66.9402C1030.5 66.4253 1030.5 66.4253 1029.97 64.8805C1029.97 65.5602 1029.97 66.2399 1029.97 66.9402C1029.46 66.8552 1028.96 66.7703 1028.44 66.6827C1026.67 66.4072 1025.33 66.4702 1023.57 66.7149C1022.54 66.8264 1022.54 66.8264 1021.48 66.9402C1021.31 66.7703 1021.13 66.6004 1020.95 66.4253C1020.43 67.105 1019.9 67.7847 1019.36 68.485C1018.78 68.3788 1018.2 68.2726 1017.6 68.1632C1015.61 67.7623 1015.61 67.7623 1014.06 68.9999C1013.53 68.9999 1013.01 68.9999 1012.47 68.9999C1012.21 68.4901 1012.21 68.4901 1011.94 67.9701C1011.41 68.14 1010.89 68.3099 1010.35 68.485C1009.64 68.3312 1008.93 68.1572 1008.23 67.9701C1007.35 67.8964 1006.46 67.8437 1005.58 67.8071C1005.09 67.7856 1004.59 67.764 1004.08 67.7418C1003.57 67.7215 1003.05 67.7013 1002.53 67.6804C1001.74 67.6471 1001.74 67.6471 1000.95 67.613C999.661 67.5585 998.376 67.506 997.091 67.4551C997.091 67.9649 997.091 68.4747 997.091 68.9999C996.566 68.83 996.041 68.6601 995.5 68.485C995.5 45.8849 995.5 23.2848 995.5 -8.96193e-05ZM1093.6 5.14916C1093.6 5.48901 1093.6 5.82887 1093.6 6.17901C1092.02 6.17901 1090.45 6.17901 1088.82 6.17901C1088.82 6.34894 1088.82 6.51887 1088.82 6.69394C1090.92 6.69394 1093.02 6.69394 1095.19 6.69394C1095.19 6.52401 1095.19 6.35409 1095.19 6.17901C1096.94 6.00909 1098.69 5.83916 1100.49 5.66409C1100.49 5.49416 1100.49 5.32424 1100.49 5.14916C1098.21 5.14916 1095.94 5.14916 1093.6 5.14916ZM1063.37 5.66409C1063.37 6.00394 1063.37 6.34379 1063.37 6.69394C1064.77 6.69394 1066.17 6.69394 1067.61 6.69394C1065.98 5.78529 1065.37 5.66409 1063.37 5.66409ZM1077.69 5.66409C1077.16 6.42875 1077.16 6.42875 1076.63 7.20887C1076.98 7.20887 1077.33 7.20887 1077.69 7.20887C1077.51 7.88857 1077.34 8.56827 1077.16 9.26857C1079.68 9.75909 1082.02 9.8264 1084.58 9.78349C1084.58 9.27372 1084.58 8.76394 1084.58 8.23872C1084.93 8.06879 1085.28 7.89887 1085.64 7.72379C1084.87 7.70989 1084.1 7.6999 1083.32 7.69161C1082.68 7.68265 1082.68 7.68265 1082.02 7.67351C1080.84 7.6493 1080.84 7.6493 1079.81 8.23872C1079.66 7.90949 1079.5 7.58026 1079.35 7.24105C1078.84 6.10071 1078.84 6.10071 1077.69 5.66409ZM1057.54 6.17901C1057.54 6.34894 1057.54 6.51887 1057.54 6.69394C1058.41 6.69394 1059.29 6.69394 1060.19 6.69394C1060.19 6.52401 1060.19 6.35409 1060.19 6.17901C1059.32 6.17901 1058.44 6.17901 1057.54 6.17901ZM1122.23 7.20887C1123.28 7.71864 1123.28 7.71864 1124.35 8.23872C1124.53 7.89887 1124.7 7.55901 1124.88 7.20887C1124.01 7.20887 1123.13 7.20887 1122.23 7.20887ZM1065.49 11.8432C1065.49 12.353 1065.49 12.8627 1065.49 13.388C1067.42 13.388 1069.34 13.388 1071.33 13.388C1071.33 13.0481 1071.33 12.7083 1071.33 12.3581C1069.38 11.7527 1067.52 11.8053 1065.49 11.8432ZM1095.19 14.9327C1095.19 15.1027 1095.19 15.2726 1095.19 15.4477C1096.06 15.4477 1096.94 15.4477 1097.84 15.4477C1097.84 15.2777 1097.84 15.1078 1097.84 14.9327C1096.96 14.9327 1096.09 14.9327 1095.19 14.9327ZM1086.17 21.6268C1086.17 21.7967 1086.17 21.9666 1086.17 22.1417C1087.22 22.1417 1088.27 22.1417 1089.35 22.1417C1089.35 21.9718 1089.35 21.8018 1089.35 21.6268C1088.3 21.6268 1087.25 21.6268 1086.17 21.6268ZM1094.13 21.6268C1094.48 21.9666 1094.83 22.3065 1095.19 22.6566C1095.19 22.3168 1095.19 21.9769 1095.19 21.6268C1094.84 21.6268 1094.49 21.6268 1094.13 21.6268ZM1100.49 22.6566C1100.49 22.8266 1100.49 22.9965 1100.49 23.1716C1101.36 23.1716 1102.24 23.1716 1103.14 23.1716C1103.14 23.0016 1103.14 22.8317 1103.14 22.6566C1102.27 22.6566 1101.39 22.6566 1100.49 22.6566ZM1073.98 28.3208C1073.98 28.4907 1073.98 28.6607 1073.98 28.8357C1076.78 28.8357 1079.58 28.8357 1082.46 28.8357C1082.46 28.6658 1082.46 28.4959 1082.46 28.3208C1079.66 28.3208 1076.86 28.3208 1073.98 28.3208ZM1071.86 30.3805C1070.81 30.7204 1069.76 31.0602 1068.67 31.4104C1068.67 31.5803 1068.67 31.7502 1068.67 31.9253C1069.9 31.9253 1071.12 31.9253 1072.39 31.9253C1072.21 31.4155 1072.04 30.9057 1071.86 30.3805ZM1092.01 45.3133C1093.71 45.8659 1094.65 45.8149 1096.42 45.6533C1096.96 45.6051 1097.51 45.557 1098.07 45.5074C1098.64 45.454 1099.21 45.4006 1099.79 45.3455C1100.37 45.2941 1100.94 45.2426 1101.53 45.1896C1102.95 45.0621 1104.37 44.9316 1105.79 44.7984C1105.79 44.6285 1105.79 44.4586 1105.79 44.2835C1104.09 44.1513 1102.39 44.0387 1100.69 43.9295C1100.21 43.892 1099.73 43.8545 1099.24 43.8158C1096.36 43.6428 1094.51 43.7417 1092.01 45.3133ZM1124.88 47.373C1124.88 47.543 1124.88 47.7129 1124.88 47.888C1126.63 47.888 1128.38 47.888 1130.18 47.888C1130.18 47.718 1130.18 47.5481 1130.18 47.373C1128.43 47.373 1126.68 47.373 1124.88 47.373ZM1068.67 48.9178C1068.5 49.2577 1068.32 49.5975 1068.14 49.9477C1069.19 49.9477 1070.24 49.9477 1071.33 49.9477C1069.91 48.8226 1069.91 48.8226 1068.67 48.9178ZM1061.78 49.4327C1061.78 49.6027 1061.78 49.7726 1061.78 49.9477C1063.01 49.9477 1064.23 49.9477 1065.49 49.9477C1065.49 49.7777 1065.49 49.6078 1065.49 49.4327C1064.27 49.4327 1063.04 49.4327 1061.78 49.4327ZM1010.35 49.9477C1010.35 50.1176 1010.35 50.2875 1010.35 50.4626C1014.55 50.8024 1018.75 51.1423 1023.07 51.4924C1022.9 51.1526 1022.72 50.8127 1022.54 50.4626C1019.93 49.8343 1017.33 49.8869 1014.66 49.9155C1014.03 49.919 1014.03 49.919 1013.4 49.9225C1012.38 49.9285 1011.36 49.9378 1010.35 49.9477ZM1033.15 50.4626C1032.97 50.8024 1032.8 51.1423 1032.62 51.4924C1035.6 51.5307 1038.58 51.5587 1041.56 51.5773C1042.58 51.5851 1043.59 51.5956 1044.61 51.609C1046.06 51.6277 1047.52 51.6365 1048.98 51.6433C1049.66 51.6553 1049.66 51.6553 1050.35 51.6675C1052.89 51.6791 1052.89 51.6791 1055.19 50.7106C1055.57 50.333 1055.57 50.333 1055.95 49.9477C1053.3 49.9349 1050.65 49.9256 1048 49.9194C1047.1 49.9168 1046.2 49.9133 1045.3 49.9088C1044 49.9025 1042.7 49.8996 1041.4 49.8974C1041 49.8947 1040.6 49.8921 1040.19 49.8893C1037.8 49.8891 1035.5 49.9957 1033.15 50.4626ZM1025.72 50.4626C1025.55 50.8024 1025.37 51.1423 1025.19 51.4924C1026.24 51.4924 1027.29 51.4924 1028.38 51.4924C1026.96 50.3674 1026.96 50.3674 1025.72 50.4626ZM1031.03 55.0969C1032.8 56.248 1033.1 56.2158 1035.1 55.9337C1035.75 55.8481 1035.75 55.8481 1036.4 55.7607C1036.73 55.7116 1037.05 55.6625 1037.39 55.6119C1037.39 55.4419 1037.39 55.272 1037.39 55.0969C1035.29 55.0969 1033.19 55.0969 1031.03 55.0969ZM1037.92 55.0969C1038.44 55.7766 1038.97 56.4563 1039.51 57.1566C1039.51 56.6469 1039.51 56.1371 1039.51 55.6119C1039.95 55.8625 1039.95 55.8625 1040.4 56.1182C1041.81 56.7181 1042.8 56.7747 1044.33 56.7785C1044.85 56.7798 1045.36 56.7811 1045.89 56.7825C1046.42 56.7785 1046.95 56.7745 1047.5 56.7704C1048.3 56.7764 1048.3 56.7764 1049.11 56.7825C1049.63 56.7812 1050.14 56.7798 1050.66 56.7785C1051.36 56.7767 1051.36 56.7767 1052.08 56.775C1053.44 56.7171 1053.44 56.7171 1054.89 55.6119C1052.84 55.1442 1050.95 55.037 1048.85 55.0466C1047.89 55.0491 1047.89 55.0491 1046.91 55.0517C1046.25 55.056 1045.59 55.0603 1044.91 55.0647C1044.24 55.0671 1043.57 55.0694 1042.88 55.0718C1041.23 55.0778 1039.57 55.0863 1037.92 55.0969ZM1059.66 55.0969C1059.49 55.4368 1059.31 55.7766 1059.13 56.1268C1059.98 56.2136 1060.83 56.2991 1061.68 56.3842C1062.16 56.432 1062.63 56.4798 1063.12 56.5291C1064.48 56.6643 1064.48 56.6643 1066.02 56.6417C1066.02 57.1515 1066.02 57.6613 1066.02 58.1865C1067.6 58.1865 1069.17 58.1865 1070.8 58.1865C1070.1 58.0166 1069.4 57.8466 1068.67 57.6716C1068.67 57.1618 1068.67 56.652 1068.67 56.1268C1069.02 56.2967 1069.37 56.4666 1069.73 56.6417C1071.33 56.8133 1071.33 56.8133 1072.92 56.6417C1073.27 56.1319 1073.62 55.6221 1073.98 55.0969C1069.25 55.0969 1064.53 55.0969 1059.66 55.0969ZM1076.63 55.0969C1076.8 55.9466 1076.98 56.7962 1077.16 57.6716C1076.63 57.9264 1076.63 57.9264 1076.1 58.1865C1076.97 58.1865 1077.85 58.1865 1078.75 58.1865C1078.57 57.6767 1078.4 57.1669 1078.22 56.6417C1079.27 56.6417 1080.32 56.6417 1081.4 56.6417C1081.4 57.1515 1081.4 57.6613 1081.4 58.1865C1082.63 58.1865 1083.85 58.1865 1085.11 58.1865C1085.11 57.6767 1085.11 57.1669 1085.11 56.6417C1085.46 56.6417 1085.81 56.6417 1086.17 56.6417C1086.17 56.3018 1086.17 55.962 1086.17 55.6119C1084.05 55.1195 1082.09 55.0434 1079.91 55.0647C1079.29 55.0694 1078.68 55.074 1078.04 55.0788C1077.58 55.0848 1077.11 55.0908 1076.63 55.0969ZM1087.76 55.6119C1087.59 55.9517 1087.41 56.2915 1087.23 56.6417C1087.58 56.6417 1087.93 56.6417 1088.29 56.6417C1088.12 56.3018 1087.94 55.962 1087.76 55.6119ZM1086.17 56.6417C1086.17 57.1515 1086.17 57.6613 1086.17 58.1865C1086.52 58.1865 1086.87 58.1865 1087.23 58.1865C1087.23 57.6767 1087.23 57.1669 1087.23 56.6417C1086.88 56.6417 1086.53 56.6417 1086.17 56.6417ZM1057.01 57.6716C1057.01 57.8415 1057.01 58.0114 1057.01 58.1865C1057.88 58.1865 1058.76 58.1865 1059.66 58.1865C1059.66 58.0166 1059.66 57.8466 1059.66 57.6716C1058.79 57.6716 1057.91 57.6716 1057.01 57.6716ZM1080.87 58.1865C1081.4 59.2163 1081.4 59.2163 1081.4 59.2163L1080.87 58.1865ZM1078.75 58.7014C1078.4 59.3811 1078.05 60.0608 1077.69 60.7611C1078.21 60.7611 1078.74 60.7611 1079.28 60.7611C1079.1 60.0814 1078.93 59.4017 1078.75 58.7014Z" fill="#283891"/>
<path d="M1108.91 33.9851C1108.91 33.6452 1108.91 33.3054 1108.91 32.9552C1109.44 33.0667 1109.44 33.0667 1109.97 33.1805C1114.19 33.9482 1117.93 33.9388 1122.18 33.5878C1124.9 33.4022 1126.98 33.6089 1129.59 34.5C1130.29 34.717 1130.29 34.717 1131 34.9385C1131.6 35.1356 1131.6 35.1356 1132.21 35.3367C1132.62 35.4708 1133.03 35.6049 1133.45 35.7431C1133.75 35.8426 1134.05 35.9422 1134.36 36.0448C1134.36 36.5545 1134.36 37.0643 1134.36 37.5895C1134.05 37.5712 1133.73 37.553 1133.4 37.5341C1131.97 37.4532 1130.53 37.3765 1129.1 37.2999C1128.59 37.271 1128.09 37.2421 1127.58 37.2124C1127.1 37.1875 1126.62 37.1626 1126.13 37.137C1125.69 37.1127 1125.25 37.0884 1124.79 37.0634C1123.76 36.9577 1123.76 36.9577 1123.23 37.5895C1122.25 37.6268 1121.26 37.6327 1120.28 37.6217C1119.74 37.6171 1119.21 37.6124 1118.65 37.6076C1118.24 37.6017 1117.82 37.5957 1117.4 37.5895C1117.4 37.2497 1117.4 36.9098 1117.4 36.5597C1116.7 36.3898 1116 36.2198 1115.28 36.0448C1115.28 36.3846 1115.28 36.7245 1115.28 37.0746C1111.23 37.2046 1107.96 36.8485 1104.09 35.7209C1103.04 35.4187 1103.04 35.4187 1102.02 36.0448C1101.2 36.0806 1100.38 36.0883 1099.57 36.0769C1098.92 36.07 1098.92 36.07 1098.25 36.0629C1097.76 36.0539 1097.76 36.0539 1097.25 36.0448C1096.9 35.1951 1096.55 34.3455 1096.19 33.4701C1098.74 30.9933 1106.1 32.4832 1108.91 33.9851Z" fill="#283891"/>
<path d="M1111.03 52.0074C1112.82 52.2386 1114.61 52.4764 1116.4 52.7155C1116.91 52.7805 1117.41 52.8456 1117.93 52.9126C1120.51 53.2608 1122.9 53.6622 1125.35 54.5821C1125.35 55.0918 1125.35 55.6016 1125.35 56.1268C1125.84 56.1 1125.84 56.1 1126.34 56.0725C1126.77 56.0586 1127.2 56.0447 1127.64 56.0303C1128.27 56.0034 1128.27 56.0034 1128.92 55.976C1130.12 56.1268 1130.12 56.1268 1131.07 56.8409C1131.71 57.6716 1131.71 57.6716 1131.71 58.7015C1130.28 59.3989 1129.06 59.2499 1127.47 59.2164C1127.47 58.7066 1127.47 58.1968 1127.47 57.6716C1126.95 57.8416 1126.42 58.0115 1125.88 58.1866C1124.52 58.2227 1123.17 58.2348 1121.8 58.2187C1121.43 58.2164 1121.06 58.2141 1120.68 58.2117C1119.76 58.2056 1118.84 58.1964 1117.93 58.1866C1117.93 57.6768 1117.93 57.167 1117.93 56.6418C1119.68 56.4718 1121.43 56.3019 1123.23 56.1268C1118.51 55.9569 1113.78 55.787 1108.91 55.6119C1108.91 56.1217 1108.91 56.6315 1108.91 57.1567C1107.42 57.2854 1107.42 57.2854 1105.73 57.1567C1104.74 56.2234 1104.74 56.2234 1104.14 55.097C1104.14 54.5872 1104.14 54.0774 1104.14 53.5522C1107.55 53.2973 1107.55 53.2973 1111.03 53.0373C1111.03 52.6974 1111.03 52.3576 1111.03 52.0074Z" fill="#283891"/>
<path d="M1112.62 41.1941C1112.92 41.2684 1113.22 41.3428 1113.52 41.4194C1114.81 41.7233 1116.1 41.9785 1117.4 42.2239C1117.4 41.8841 1117.4 41.5442 1117.4 41.1941C1118.97 41.1941 1120.55 41.1941 1122.17 41.1941C1122.17 41.5339 1122.17 41.8738 1122.17 42.2239C1126.96 42.8781 1131.63 43.4336 1136.49 43.2538C1136.49 43.7636 1136.49 44.2733 1136.49 44.7986C1128.71 46.6142 1119.48 45.1468 1111.56 44.7986C1111.87 43.5701 1112.21 42.3955 1112.62 41.1941Z" fill="#283891"/>
<path d="M1105.73 11.8433C1109.54 11.7392 1113.17 12.048 1116.93 12.5835C1121.86 13.2497 1126.74 13.6998 1131.71 13.903C1131.54 14.5827 1131.36 15.2624 1131.18 15.9627C1121.56 16.146 1121.56 16.146 1117.6 15.1944C1115.5 14.7602 1113.37 14.6744 1111.23 14.5447C1109.97 14.4179 1109.97 14.4179 1109.44 13.903C1108.21 13.7137 1106.97 13.5413 1105.73 13.3881C1105.73 12.8783 1105.73 12.3685 1105.73 11.8433Z" fill="#283891"/>
<path d="M1119.52 38.1045C1122.49 38.2744 1125.47 38.4443 1128.53 38.6194C1128.36 39.1292 1128.18 39.639 1128 40.1642C1126.89 40.1781 1125.77 40.1881 1124.65 40.1964C1124.03 40.2024 1123.41 40.2083 1122.77 40.2145C1121.11 40.1642 1121.11 40.1642 1119.52 39.6493C1119.52 39.1395 1119.52 38.6297 1119.52 38.1045Z" fill="#283891"/>
<path d="M1118.99 61.2762C1119.16 61.7859 1119.34 62.2957 1119.52 62.8209C1117.46 63.4352 1115.85 63.8508 1113.69 63.8508C1113.88 62.5957 1113.88 62.5957 1114.22 61.2762C1115.84 60.486 1117.24 60.993 1118.99 61.2762Z" fill="#283891"/>
<path d="M1125.88 61.2761C1125.71 61.7859 1125.53 62.2957 1125.35 62.8209C1122.48 63.4547 1122.48 63.4547 1120.91 62.8531C1120.63 62.6725 1120.34 62.492 1120.05 62.306C1121.97 60.4394 1123.33 60.7514 1125.88 61.2761Z" fill="#283891"/>
<path d="M1100.96 53.5522C1101.31 53.5522 1101.66 53.5522 1102.02 53.5522C1102.37 54.5718 1102.72 55.5914 1103.08 56.6418C1101.33 56.8117 1099.58 56.9816 1097.78 57.1567C1097.6 56.6469 1097.43 56.1372 1097.25 55.6119C1098.47 55.6119 1099.7 55.6119 1100.96 55.6119C1100.96 54.9322 1100.96 54.2525 1100.96 53.5522Z" fill="#283891"/>
<path d="M1100.43 51.4926C1102.7 51.4926 1104.98 51.4926 1107.32 51.4926C1107.5 52.0023 1107.67 52.5121 1107.85 53.0373C1104.18 52.7824 1104.18 52.7824 1100.43 52.5224C1100.43 52.1826 1100.43 51.8427 1100.43 51.4926Z" fill="#283891"/>
<path d="M1113.69 56.1268C1114.91 56.1268 1116.13 56.1268 1117.4 56.1268C1117.4 56.9765 1117.4 57.8261 1117.4 58.7015C1116.17 58.3616 1114.95 58.0218 1113.69 57.6716C1113.69 57.1618 1113.69 56.6521 1113.69 56.1268Z" fill="#283891"/>
<path d="M1131.71 55.097C1133.11 55.267 1134.51 55.4369 1135.96 55.612C1135.96 55.9518 1135.96 56.2917 1135.96 56.6418C1134.56 56.6418 1133.16 56.6418 1131.71 56.6418C1131.71 56.132 1131.71 55.6223 1131.71 55.097Z" fill="#283891"/>
<path d="M1100.43 11.3284C1102 11.5833 1102 11.5833 1103.61 11.8433C1103.61 12.3531 1103.61 12.8628 1103.61 13.3881C1102.04 13.1332 1102.04 13.1332 1100.43 12.8731C1100.43 12.3634 1100.43 11.8536 1100.43 11.3284Z" fill="#283891"/>
<path d="M1109.97 56.1268C1111.02 56.3817 1111.02 56.3817 1112.09 56.6418C1112.09 56.9816 1112.09 57.3215 1112.09 57.6716C1111.22 58.0115 1110.34 58.3513 1109.44 58.7015C1109.62 57.8518 1109.79 57.0022 1109.97 56.1268Z" fill="#283891"/>
<path d="M1096.72 29.8657C1096.72 30.3755 1096.72 30.8853 1096.72 31.4105C1095.67 31.5804 1094.62 31.7503 1093.54 31.9254C1093.54 31.4156 1093.54 30.9059 1093.54 30.3806C1095.13 29.8657 1095.13 29.8657 1096.72 29.8657Z" fill="#283891"/>
<path d="M1133.3 6.17908C1134 6.349 1134.7 6.51893 1135.43 6.694C1135.43 7.03385 1135.43 7.3737 1135.43 7.72385C1134.73 7.72385 1134.03 7.72385 1133.3 7.72385C1133.3 7.21408 1133.3 6.7043 1133.3 6.17908Z" fill="#283891"/>
<path d="M1097.25 50.9777C1097.95 50.9777 1098.65 50.9777 1099.37 50.9777C1099.37 51.4874 1099.37 51.9972 1099.37 52.5224C1098.67 52.3525 1097.97 52.1826 1097.25 52.0075C1097.25 51.6677 1097.25 51.3278 1097.25 50.9777Z" fill="#283891"/>
<path d="M1135.96 15.4478C1136.83 15.4478 1137.71 15.4478 1138.61 15.4478C1138.61 15.7876 1138.61 16.1275 1138.61 16.4776C1137.73 16.4776 1136.86 16.4776 1135.96 16.4776C1135.96 16.1378 1135.96 15.7979 1135.96 15.4478Z" fill="#283891"/>
<path d="M1135.43 36.0448C1135.95 36.0448 1136.48 36.0448 1137.02 36.0448C1136.84 36.5546 1136.67 37.0644 1136.49 37.5896C1136.14 37.5896 1135.79 37.5896 1135.43 37.5896C1135.43 37.0798 1135.43 36.57 1135.43 36.0448Z" fill="#283891"/>
<path d="M1124.29 11.8433C1124.99 11.8433 1125.69 11.8433 1126.41 11.8433C1126.41 12.1831 1126.41 12.523 1126.41 12.8731C1125.71 12.8731 1125.01 12.8731 1124.29 12.8731C1124.29 12.5333 1124.29 12.1934 1124.29 11.8433Z" fill="#283891"/>
<path d="M1130.12 39.1343C1130.65 39.1343 1131.17 39.1343 1131.71 39.1343C1131.71 39.4741 1131.71 39.814 1131.71 40.1641C1131.19 40.1641 1130.66 40.1641 1130.12 40.1641C1130.12 39.8243 1130.12 39.4844 1130.12 39.1343Z" fill="#283891"/>
</g>
<defs>
<clipPath id="clip0_915_1878">
<rect width="78" height="69" fill="white" transform="translate(0.5)"/>
</clipPath>
<clipPath id="clip1_915_1878">
<rect width="149" height="69" fill="white" transform="translate(996.5)"/>
</clipPath>
</defs>
</svg>
