<svg width="79" height="69" viewBox="0 0 79 69" fill="none" xmlns="http://www.w3.org/2000/svg">
<g clip-path="url(#clip0_646_2381)">
<path d="M78.5 -0.50316C78.5 22.093 78.5 44.6892 78.5 67.9701C54.0556 67.9701 54.0556 67.9701 47.6211 66.3756C45.2204 65.7957 43.1278 65.4816 40.5 65.3365C39.84 65.6842 39.18 66.0318 38.5 66.39C37.18 66.39 35.86 66.39 34.5 66.39C33.7988 65.9989 33.0975 65.6078 32.375 65.2048C29.5267 63.7698 27.9829 63.3769 24.375 62.7029C19.8998 61.848 18.9077 61.1663 16.5 59.0159C14.3281 58.4917 12.159 58.1463 9.86328 57.7999C6.60111 57.2972 3.60032 56.5852 0.5 55.8556C1.57401 54.3201 2.2781 53.3389 4.5 52.1686C3.51 51.6471 2.52 51.1257 1.5 50.5884C2.49 50.3277 2.49 50.3277 3.5 50.0617C3.31437 49.5837 3.12875 49.1057 2.9375 48.6132C2.52322 46.9923 2.69156 46.3086 3.5 44.7945C3.47937 44.2622 3.45875 43.7299 3.4375 43.1815C3.5 41.6342 3.5 41.6342 5.5 40.0541C5.88193 38.9418 5.88193 38.9418 6 37.7497C6.32392 35.8607 7.09872 34.433 8.5 32.68C8.88131 31.4549 9.2246 30.226 9.5 28.993C10.16 28.993 10.82 28.993 11.5 28.993C11.6644 28.1742 11.6644 28.1742 11.832 27.3388C11.9915 26.6173 12.1517 25.8958 12.3125 25.1743C12.3828 24.8151 12.453 24.456 12.5254 24.0859C13.0241 21.9214 13.7827 20.6232 16.5 18.9854C16.83 18.4639 17.16 17.9425 17.5 17.4052C18.49 17.1445 18.49 17.1445 19.5 16.8785C18.015 15.0534 18.015 15.0534 16.5 13.1915C18.81 12.67 21.12 12.1486 23.5 11.6113C22.84 10.9161 22.18 10.2208 21.5 9.50447C22.16 9.33066 22.82 9.15684 23.5 8.97775C23.9491 8.04069 24.3354 7.09514 24.6875 6.14665C26.0574 3.33343 26.0574 3.33343 29.8125 2.06459C33.0494 1.66002 36.2085 1.32466 39.5 1.07699C40.6589 0.904534 41.8177 0.732075 43.0117 0.55439C48.1009 -0.127334 53.1463 -0.194089 58.375 -0.272721C60.2475 -0.304213 62.1199 -0.337716 63.9922 -0.373538C64.8106 -0.386141 65.629 -0.398745 66.4722 -0.41173C74.4354 -0.770772 74.4354 -0.770772 78.5 -0.50316Z" fill="#283891"/>
</g>
<defs>
<clipPath id="clip0_646_2381">
<rect width="78" height="69" fill="white" transform="translate(0.5)"/>
</clipPath>
</defs>
</svg>
