<svg width="516" height="69" viewBox="0 0 516 69" fill="none" xmlns="http://www.w3.org/2000/svg">
<rect x="78" width="296" height="68" fill="#283891"/>
<g clip-path="url(#clip0_915_1877)">
<path d="M78.5 -0.50316C78.5 22.093 78.5 44.6892 78.5 67.9701C54.0556 67.9701 54.0556 67.9701 47.6211 66.3756C45.2204 65.7957 43.1278 65.4816 40.5 65.3365C39.84 65.6842 39.18 66.0318 38.5 66.39C37.18 66.39 35.86 66.39 34.5 66.39C33.7988 65.9989 33.0975 65.6078 32.375 65.2048C29.5267 63.7698 27.9829 63.3769 24.375 62.7029C19.8998 61.848 18.9077 61.1663 16.5 59.0159C14.3281 58.4917 12.159 58.1463 9.86328 57.7999C6.60111 57.2972 3.60032 56.5852 0.5 55.8556C1.57401 54.3201 2.2781 53.3389 4.5 52.1686C3.51 51.6471 2.52 51.1257 1.5 50.5884C2.49 50.3277 2.49 50.3277 3.5 50.0617C3.31437 49.5837 3.12875 49.1057 2.9375 48.6132C2.52322 46.9923 2.69156 46.3086 3.5 44.7945C3.47937 44.2622 3.45875 43.7299 3.4375 43.1815C3.5 41.6342 3.5 41.6342 5.5 40.0541C5.88193 38.9418 5.88193 38.9418 6 37.7497C6.32392 35.8607 7.09872 34.433 8.5 32.68C8.88131 31.4549 9.2246 30.226 9.5 28.993C10.16 28.993 10.82 28.993 11.5 28.993C11.6644 28.1742 11.6644 28.1742 11.832 27.3388C11.9915 26.6173 12.1517 25.8958 12.3125 25.1743C12.3828 24.8151 12.453 24.456 12.5254 24.0859C13.0241 21.9214 13.7827 20.6232 16.5 18.9854C16.83 18.4639 17.16 17.9425 17.5 17.4052C18.49 17.1445 18.49 17.1445 19.5 16.8785C18.015 15.0534 18.015 15.0534 16.5 13.1915C18.81 12.67 21.12 12.1486 23.5 11.6113C22.84 10.9161 22.18 10.2208 21.5 9.50447C22.16 9.33066 22.82 9.15684 23.5 8.97775C23.9491 8.04069 24.3354 7.09514 24.6875 6.14665C26.0574 3.33343 26.0574 3.33343 29.8125 2.06459C33.0494 1.66002 36.2085 1.32466 39.5 1.07699C40.6589 0.904534 41.8177 0.732075 43.0117 0.55439C48.1009 -0.127334 53.1463 -0.194089 58.375 -0.272721C60.2475 -0.304213 62.1199 -0.337716 63.9922 -0.373538C64.8106 -0.386141 65.629 -0.398745 66.4722 -0.41173C74.4354 -0.770772 74.4354 -0.770772 78.5 -0.50316Z" fill="#283891"/>
</g>
<g clip-path="url(#clip1_915_1877)">
<path d="M365.5 -2.85842e-05C374.867 -0.0159591 374.867 -0.0159591 384.423 -0.0322114C386.392 -0.0368993 388.361 -0.0415872 390.39 -0.0464171C392.801 -0.0487428 392.801 -0.0487428 393.932 -0.049175C394.718 -0.0499637 395.505 -0.0517707 396.291 -0.0543921C397.485 -0.0581714 398.679 -0.0586813 399.872 -0.0584857C400.881 -0.0602009 400.881 -0.0602009 401.91 -0.0619507C403.461 -0.00763876 404.822 0.180484 406.329 0.514897C407.208 0.575394 408.088 0.617104 408.968 0.641617C409.455 0.658543 409.941 0.675469 410.443 0.692908C411.46 0.724547 412.478 0.754031 413.496 0.781411C414.224 0.807796 414.224 0.807796 414.966 0.834714C415.628 0.854067 415.628 0.854067 416.304 0.873811C417.464 1.02982 417.464 1.02982 419.055 2.05967C419.055 1.37997 419.055 0.70027 419.055 -2.85842e-05C419.93 -2.85842e-05 420.805 -2.85842e-05 421.706 -2.85842e-05C421.706 0.169897 421.706 0.339822 421.706 0.514897C422.276 0.557648 422.276 0.557648 422.858 0.601262C424.573 0.731173 426.288 0.864365 428.003 0.997639C428.9 1.06485 428.9 1.06485 429.815 1.13341C430.386 1.17822 430.957 1.22302 431.545 1.26918C432.073 1.30963 432.6 1.35008 433.144 1.39175C434.432 1.54475 434.432 1.54475 435.493 2.05967C435.493 1.71982 435.493 1.37997 435.493 1.02982C438.118 1.02982 440.742 1.02982 443.447 1.02982C443.622 1.87945 443.797 2.72908 443.977 3.60445C443.452 3.77437 442.927 3.9443 442.386 4.11937C443.436 4.62915 443.436 4.62915 444.507 5.14923C444.857 3.95975 445.207 2.77027 445.568 1.54475C451.388 1.22024 451.388 1.22024 453.654 2.5746C453.96 2.91445 454.266 3.2543 454.582 3.60445C454.232 4.28415 453.882 4.96385 453.521 5.66415C454.046 5.66415 454.571 5.66415 455.112 5.66415C455.211 5.18624 455.211 5.18624 455.311 4.69867C455.642 3.60445 455.642 3.60445 456.703 2.5746C458.035 2.56856 458.035 2.56856 459.719 2.73551C463.077 3.04384 466.426 3.26566 469.793 3.45963C471.55 3.60445 471.55 3.60445 472.902 3.88001C474.984 4.26371 477.052 4.10007 479.162 4.03691C480.564 4.11937 480.564 4.11937 481.625 5.14923C481.45 5.48908 481.275 5.82893 481.094 6.17908C479.17 6.17908 477.245 6.17908 475.262 6.17908C475.437 6.51893 475.612 6.85878 475.792 7.20893C476.852 7.23083 477.913 7.22994 478.973 7.20893C479.148 7.039 479.323 6.86908 479.504 6.694C480.741 6.67293 481.978 6.67216 483.215 6.694C483.215 7.03385 483.215 7.3737 483.215 7.72385C483.565 7.55393 483.915 7.384 484.276 7.20893C484.622 6.16639 484.622 6.16639 484.806 5.14923C490.038 5.04862 495.063 4.95241 500.183 6.17908C500.183 6.68885 500.183 7.19863 500.183 7.72385C498.958 7.89378 497.734 8.0637 496.472 8.23878C499.971 8.74855 503.471 9.25833 507.077 9.78355C507.077 10.1234 507.077 10.4633 507.077 10.8134C505.21 10.9006 503.343 10.9859 501.476 11.0709C500.95 11.0954 500.425 11.12 499.884 11.1453C497.152 11.2687 494.434 11.3581 491.699 11.3283C491.699 11.6682 491.699 12.008 491.699 12.3582C490.999 12.1883 490.299 12.0183 489.578 11.8433C489.578 11.5034 489.578 11.1636 489.578 10.8134C487.479 10.9833 485.379 11.1533 483.215 11.3283C483.215 10.9885 483.215 10.6486 483.215 10.2985C482.337 10.2606 482.337 10.2606 481.44 10.222C475.991 9.97184 470.571 9.59924 465.144 9.04863C460.281 8.55896 460.281 8.55896 455.642 9.78355C461.942 10.5482 461.942 10.5482 468.368 11.3283C468.368 11.8381 468.368 12.3479 468.368 12.8731C466.217 12.9111 464.229 12.8861 462.088 12.6156C458.525 12.2134 454.949 12.3037 451.367 12.326C450.648 12.3286 449.929 12.3309 449.21 12.333C447.466 12.3391 445.721 12.3475 443.977 12.3582C443.977 12.698 443.977 13.0379 443.977 13.388C444.502 13.558 445.027 13.7279 445.568 13.903C445.568 13.5631 445.568 13.2233 445.568 12.8731C447.317 12.8731 449.067 12.8731 450.87 12.8731C450.87 13.213 450.87 13.5528 450.87 13.903C452.095 13.903 453.32 13.903 454.582 13.903C454.582 13.5631 454.582 13.2233 454.582 12.8731C455.282 12.8731 455.982 12.8731 456.703 12.8731C456.878 13.3829 457.053 13.8927 457.233 14.4179C458.458 14.5878 459.683 14.7577 460.945 14.9328C460.945 14.423 460.945 13.9133 460.945 13.388C462.657 13.4599 464.369 13.5362 466.082 13.6133C466.807 13.6437 466.807 13.6437 467.547 13.6747C468.017 13.6962 468.487 13.7178 468.971 13.74C469.401 13.7589 469.832 13.7778 470.275 13.7972C471.614 13.9083 472.889 14.1393 474.201 14.4179C474.026 14.7577 473.851 15.0976 473.671 15.4477C474.211 15.4972 474.211 15.4972 474.761 15.5477C478.193 15.8639 481.624 16.1888 485.053 16.5228C486.816 16.6942 488.578 16.8615 490.342 17.0231C507.546 18.6044 507.546 18.6044 512.379 21.1119C512.85 22.2236 512.85 22.2236 512.909 23.1716C508.025 23.2552 503.186 23.0175 498.315 22.7313C490.8 22.2931 483.323 21.9856 475.792 22.1418C475.792 22.4816 475.792 22.8215 475.792 23.1716C476.323 23.1909 476.854 23.2101 477.401 23.2299C478.113 23.2638 478.825 23.298 479.537 23.3325C480.579 23.3773 480.579 23.3773 481.643 23.423C483.853 23.7 485.421 24.3815 487.457 25.2313C489.006 25.5334 490.557 25.6773 492.13 25.8106C492.549 25.8511 492.967 25.8915 493.399 25.9332C494.599 26.0483 495.8 26.156 497.002 26.2612C498.062 26.3568 499.123 26.4531 500.183 26.5508C500.577 26.5833 500.971 26.6159 501.376 26.6494C502.304 26.7761 502.304 26.7761 503.365 27.291C503.365 27.6309 503.365 27.9707 503.365 28.3209C500.215 28.3209 497.065 28.3209 493.82 28.3209C493.82 28.6607 493.82 29.0006 493.82 29.3507C494.345 29.3507 494.87 29.3507 495.411 29.3507C495.411 29.6906 495.411 30.0304 495.411 30.3806C488.122 30.4491 480.882 30.2539 473.605 29.8656C471.725 29.7674 469.846 29.6708 467.966 29.576C467.309 29.5428 467.309 29.5428 466.639 29.5089C463.677 29.365 460.73 29.3028 457.763 29.3507C459.163 29.5206 460.563 29.6906 462.005 29.8656C462.005 30.3754 462.005 30.8852 462.005 31.4104C461.66 31.4077 461.315 31.405 460.96 31.4022C459.397 31.3915 457.835 31.3848 456.272 31.3782C455.729 31.3739 455.186 31.3696 454.626 31.3652C454.105 31.3635 453.584 31.3618 453.047 31.3601C452.567 31.3574 452.086 31.3547 451.591 31.352C450.259 31.3593 450.259 31.3593 448.749 31.9253C449.274 32.9449 449.274 32.9449 449.81 33.985C451.559 33.985 453.309 33.985 455.112 33.985C455.112 33.4753 455.112 32.9655 455.112 32.4403C455.812 32.7801 456.512 33.12 457.233 33.4701C457.233 33.64 457.233 33.81 457.233 33.985C459.858 34.155 462.483 34.3249 465.187 34.5C465.187 35.0097 465.187 35.5195 465.187 36.0447C463.787 36.3846 462.387 36.7244 460.945 37.0746C461.514 37.0255 462.084 36.9764 462.67 36.9258C463.432 36.8678 464.193 36.8101 464.955 36.7528C465.515 36.703 465.515 36.703 466.087 36.6522C468.699 36.4652 470.662 36.7609 473.141 37.5895C473.316 37.2497 473.491 36.9098 473.671 36.5597C474.011 36.628 474.35 36.6964 474.7 36.7668C477.356 37.2934 479.997 37.764 482.685 38.1044C482.51 38.6142 482.335 39.124 482.155 39.6492C477.515 40.4751 473.084 40.814 468.368 40.6791C468.368 41.0189 468.368 41.3588 468.368 41.7089C470.643 41.8789 472.918 42.0488 475.262 42.2239C475.262 41.884 475.262 41.5442 475.262 41.194C476.486 41.194 477.711 41.194 478.973 41.194C478.973 42.2136 478.973 43.2331 478.973 44.2836C478.448 44.5384 478.448 44.5384 477.913 44.7985C478.202 44.8102 478.491 44.822 478.789 44.8341C481.835 44.9582 484.88 45.0838 487.926 45.2102C489.058 45.257 490.191 45.3034 491.323 45.3495C509.178 46.0763 509.178 46.0763 510.788 46.8582C510.788 47.198 510.788 47.5379 510.788 47.888C510.438 48.058 510.088 48.2279 509.728 48.403C511.303 48.5729 512.877 48.7428 514.5 48.9179C514.5 49.4277 514.5 49.9374 514.5 50.4627C511.237 51.507 508.273 52.1455 504.831 51.8465C504.134 51.7928 503.437 51.7391 502.718 51.6837C502.321 51.6527 501.925 51.6217 501.516 51.5898C486.353 50.4823 471.113 49.7878 455.907 49.819C455.158 49.8197 455.158 49.8197 454.393 49.8205C453.003 49.8237 451.614 49.8318 450.224 49.8431C449.817 49.8454 449.409 49.8476 448.99 49.85C446.946 49.8432 446.946 49.8432 445.037 50.4627C448.887 50.4627 452.737 50.4627 456.703 50.4627C456.878 50.9724 457.053 51.4822 457.233 52.0074C455.921 52.2623 455.921 52.2623 454.582 52.5224C454.961 52.5164 455.341 52.5104 455.731 52.5043C459.794 52.4685 463.793 52.6825 467.838 53.0373C467.838 53.5471 467.838 54.0568 467.838 54.5821C465.653 55.6108 463.887 55.7038 461.475 55.6119C461.65 55.9518 461.825 56.2916 462.005 56.6418C462.027 57.6714 462.028 58.7017 462.005 59.7313C461.48 59.9012 460.955 60.0712 460.415 60.2462C462.158 60.6579 462.912 60.8109 464.657 60.2462C465.045 59.2086 465.045 59.2086 465.187 58.1865C465.712 58.5264 466.237 58.8662 466.778 59.2164C466.778 59.5562 466.778 59.8961 466.778 60.2462C467.079 60.2591 467.381 60.272 467.692 60.2853C469.078 60.3456 470.463 60.4085 471.848 60.4715C472.323 60.4918 472.798 60.512 473.287 60.5329C475.922 60.6547 478.49 60.8632 481.094 61.2761C481.094 62.1257 481.094 62.9753 481.094 63.8507C479.658 64.5481 478.438 64.3991 476.852 64.3656C476.852 64.7055 476.852 65.0453 476.852 65.3955C475.54 65.6504 475.54 65.6504 474.201 65.9104C474.201 65.5706 474.201 65.2307 474.201 64.8806C473.151 64.8806 472.101 64.8806 471.02 64.8806C471.02 64.5407 471.02 64.2009 471.02 63.8507C470.257 63.9097 469.495 63.9754 468.733 64.0438C468.096 64.0976 468.096 64.0976 467.447 64.1524C466.103 64.3119 466.103 64.3119 464.657 65.3955C464.132 65.2256 463.607 65.0556 463.066 64.8806C460.717 64.7143 458.504 64.5863 456.305 65.4599C454.599 66.1041 453.632 65.4424 451.931 64.8806C449.933 65.0345 449.933 65.0345 448.219 65.3955C448.219 65.7353 448.219 66.0752 448.219 66.4253C446.819 66.4253 445.419 66.4253 443.977 66.4253C443.977 65.9156 443.977 65.4058 443.977 64.8806C443.452 64.8806 442.927 64.8806 442.386 64.8806C442.386 65.3903 442.386 65.9001 442.386 66.4253C441.96 66.3298 441.533 66.2342 441.094 66.1357C439.278 65.9192 437.763 66.0603 435.961 66.2946C433.956 66.4661 431.97 66.4443 429.958 66.4253C426.635 66.3968 423.419 66.5329 420.116 66.9403C419.941 66.0906 419.766 65.241 419.585 64.3656C419.235 64.3656 418.885 64.3656 418.525 64.3656C418.448 64.6949 418.372 65.0241 418.293 65.3633C417.995 66.4253 417.995 66.4253 417.464 66.9403C416.581 66.9612 415.697 66.9623 414.813 66.9403C414.813 66.2606 414.813 65.5809 414.813 64.8806C413.938 64.8806 413.063 64.8806 412.162 64.8806C412.162 65.3903 412.162 65.9001 412.162 66.4253C411.246 66.5266 410.329 66.622 409.411 66.715C408.901 66.7688 408.39 66.8225 407.864 66.8779C406.356 66.9392 405.144 66.7359 403.678 66.4253C402.968 66.583 402.259 66.7521 401.557 66.9403C400.496 66.4253 400.496 66.4253 399.966 64.8806C399.966 65.5603 399.966 66.24 399.966 66.9403C399.463 66.8553 398.96 66.7703 398.442 66.6828C396.668 66.4073 395.327 66.4703 393.57 66.715C392.537 66.8265 392.537 66.8265 391.482 66.9403C391.307 66.7703 391.132 66.6004 390.952 66.4253C390.427 67.105 389.902 67.7847 389.361 68.485C388.782 68.3788 388.202 68.2726 387.605 68.1632C385.605 67.7624 385.605 67.7624 384.059 69C383.534 69 383.009 69 382.468 69C382.205 68.4902 382.205 68.4902 381.938 67.9701C381.413 68.14 380.888 68.31 380.347 68.485C379.636 68.3312 378.929 68.1572 378.226 67.9701C377.346 67.8965 376.465 67.8438 375.583 67.8072C375.087 67.7856 374.592 67.764 374.081 67.7418C373.568 67.7216 373.055 67.7013 372.526 67.6805C371.744 67.6471 371.744 67.6471 370.945 67.6131C369.661 67.5586 368.376 67.506 367.091 67.4552C367.091 67.965 367.091 68.4747 367.091 69C366.566 68.83 366.041 68.6601 365.5 68.485C365.5 45.885 365.5 23.2849 365.5 -2.85842e-05ZM463.596 5.14923C463.596 5.48908 463.596 5.82893 463.596 6.17908C462.021 6.17908 460.446 6.17908 458.824 6.17908C458.824 6.349 458.824 6.51893 458.824 6.694C460.924 6.694 463.023 6.694 465.187 6.694C465.187 6.52408 465.187 6.35415 465.187 6.17908C466.937 6.00915 468.686 5.83922 470.489 5.66415C470.489 5.49423 470.489 5.3243 470.489 5.14923C468.215 5.14923 465.94 5.14923 463.596 5.14923ZM433.372 5.66415C433.372 6.004 433.372 6.34385 433.372 6.694C434.772 6.694 436.172 6.694 437.614 6.694C435.976 5.78535 435.369 5.66415 433.372 5.66415ZM447.689 5.66415C447.164 6.42881 447.164 6.42881 446.628 7.20893C446.978 7.20893 447.328 7.20893 447.689 7.20893C447.514 7.88863 447.339 8.56833 447.158 9.26863C449.684 9.75915 452.019 9.82646 454.582 9.78355C454.582 9.27378 454.582 8.764 454.582 8.23878C454.932 8.06885 455.282 7.89893 455.642 7.72385C454.869 7.70995 454.096 7.69996 453.323 7.69167C452.677 7.68271 452.677 7.68271 452.018 7.67357C450.844 7.64936 450.844 7.64936 449.81 8.23878C449.657 7.90955 449.503 7.58032 449.346 7.24111C448.84 6.10078 448.84 6.10078 447.689 5.66415ZM427.539 6.17908C427.539 6.349 427.539 6.51893 427.539 6.694C428.414 6.694 429.289 6.694 430.19 6.694C430.19 6.52408 430.19 6.35415 430.19 6.17908C429.315 6.17908 428.441 6.17908 427.539 6.17908ZM492.23 7.20893C493.279 7.7187 493.279 7.7187 494.351 8.23878C494.526 7.89893 494.701 7.55908 494.881 7.20893C494.006 7.20893 493.131 7.20893 492.23 7.20893ZM435.493 11.8433C435.493 12.353 435.493 12.8628 435.493 13.388C437.418 13.388 439.342 13.388 441.326 13.388C441.326 13.0482 441.326 12.7083 441.326 12.3582C439.377 11.7528 437.524 11.8053 435.493 11.8433ZM465.187 14.9328C465.187 15.1027 465.187 15.2727 465.187 15.4477C466.062 15.4477 466.937 15.4477 467.838 15.4477C467.838 15.2778 467.838 15.1079 467.838 14.9328C466.963 14.9328 466.088 14.9328 465.187 14.9328ZM456.173 21.6268C456.173 21.7968 456.173 21.9667 456.173 22.1418C457.222 22.1418 458.272 22.1418 459.354 22.1418C459.354 21.9718 459.354 21.8019 459.354 21.6268C458.304 21.6268 457.254 21.6268 456.173 21.6268ZM464.126 21.6268C464.476 21.9667 464.826 22.3065 465.187 22.6567C465.187 22.3168 465.187 21.977 465.187 21.6268C464.837 21.6268 464.487 21.6268 464.126 21.6268ZM470.489 22.6567C470.489 22.8266 470.489 22.9965 470.489 23.1716C471.364 23.1716 472.239 23.1716 473.141 23.1716C473.141 23.0017 473.141 22.8318 473.141 22.6567C472.266 22.6567 471.391 22.6567 470.489 22.6567ZM443.977 28.3209C443.977 28.4908 443.977 28.6607 443.977 28.8358C446.777 28.8358 449.576 28.8358 452.461 28.8358C452.461 28.6659 452.461 28.4959 452.461 28.3209C449.661 28.3209 446.861 28.3209 443.977 28.3209ZM441.856 30.3806C440.806 30.7204 439.756 31.0603 438.674 31.4104C438.674 31.5803 438.674 31.7503 438.674 31.9253C439.899 31.9253 441.124 31.9253 442.386 31.9253C442.211 31.4156 442.036 30.9058 441.856 30.3806ZM462.005 45.3134C463.712 45.866 464.647 45.815 466.419 45.6533C466.964 45.6052 467.509 45.5571 468.071 45.5075C468.639 45.4541 469.208 45.4006 469.793 45.3456C470.368 45.2941 470.942 45.2427 471.534 45.1897C472.954 45.0622 474.373 44.9317 475.792 44.7985C475.792 44.6286 475.792 44.4586 475.792 44.2836C474.091 44.1513 472.39 44.0387 470.688 43.9295C470.209 43.892 469.73 43.8545 469.236 43.8159C466.365 43.6429 464.51 43.7417 462.005 45.3134ZM494.881 47.3731C494.881 47.543 494.881 47.713 494.881 47.888C496.631 47.888 498.38 47.888 500.183 47.888C500.183 47.7181 500.183 47.5482 500.183 47.3731C498.433 47.3731 496.684 47.3731 494.881 47.3731ZM438.674 48.9179C438.499 49.2577 438.324 49.5976 438.144 49.9477C439.194 49.9477 440.244 49.9477 441.326 49.9477C439.906 48.8227 439.906 48.8227 438.674 48.9179ZM431.781 49.4328C431.781 49.6027 431.781 49.7727 431.781 49.9477C433.006 49.9477 434.231 49.9477 435.493 49.9477C435.493 49.7778 435.493 49.6079 435.493 49.4328C434.268 49.4328 433.043 49.4328 431.781 49.4328ZM380.347 49.9477C380.347 50.1177 380.347 50.2876 380.347 50.4627C384.547 50.8025 388.746 51.1424 393.073 51.4925C392.898 51.1527 392.723 50.8128 392.543 50.4627C389.93 49.8344 387.327 49.887 384.655 49.9156C384.032 49.919 384.032 49.919 383.396 49.9226C382.38 49.9286 381.363 49.9378 380.347 49.9477ZM403.148 50.4627C402.973 50.8025 402.798 51.1424 402.617 51.4925C405.599 51.5307 408.581 51.5587 411.563 51.5774C412.577 51.5851 413.591 51.5957 414.606 51.609C416.064 51.6278 417.522 51.6366 418.981 51.6434C419.66 51.6553 419.66 51.6553 420.353 51.6675C422.894 51.6792 422.894 51.6792 425.191 50.7107C425.566 50.333 425.566 50.333 425.948 49.9477C423.298 49.9349 420.647 49.9256 417.997 49.9194C417.096 49.9169 416.196 49.9134 415.295 49.9089C413.996 49.9026 412.697 49.8997 411.398 49.8974C410.999 49.8948 410.601 49.8921 410.19 49.8894C407.801 49.8891 405.5 49.9958 403.148 50.4627ZM395.724 50.4627C395.549 50.8025 395.374 51.1424 395.194 51.4925C396.244 51.4925 397.294 51.4925 398.375 51.4925C396.956 50.3674 396.956 50.3674 395.724 50.4627ZM401.027 55.097C402.805 56.2481 403.099 56.2158 405.103 55.9337C405.746 55.8481 405.746 55.8481 406.402 55.7608C406.728 55.7116 407.054 55.6625 407.39 55.6119C407.39 55.442 407.39 55.2721 407.39 55.097C405.29 55.097 403.19 55.097 401.027 55.097ZM407.92 55.097C408.445 55.7767 408.97 56.4564 409.511 57.1567C409.511 56.6469 409.511 56.1371 409.511 55.6119C409.952 55.8626 409.952 55.8626 410.402 56.1183C411.811 56.7181 412.801 56.7747 414.335 56.7785C414.847 56.7799 415.359 56.7812 415.887 56.7826C416.419 56.7786 416.95 56.7746 417.498 56.7705C418.298 56.7765 418.298 56.7765 419.114 56.7826C419.626 56.7812 420.137 56.7799 420.665 56.7785C421.365 56.7768 421.365 56.7768 422.079 56.775C423.444 56.7171 423.444 56.7171 424.888 55.6119C422.84 55.1443 420.947 55.037 418.846 55.0467C417.89 55.0492 417.89 55.0492 416.914 55.0517C416.254 55.056 415.593 55.0604 414.913 55.0648C414.242 55.0671 413.571 55.0695 412.88 55.0718C411.226 55.0779 409.573 55.0864 407.92 55.097ZM429.66 55.097C429.485 55.4368 429.31 55.7767 429.13 56.1268C429.98 56.2136 430.831 56.2992 431.682 56.3843C432.155 56.4321 432.629 56.4799 433.117 56.5291C434.476 56.6644 434.476 56.6644 436.023 56.6418C436.023 57.1515 436.023 57.6613 436.023 58.1865C437.598 58.1865 439.173 58.1865 440.795 58.1865C440.095 58.0166 439.396 57.8467 438.674 57.6716C438.674 57.1618 438.674 56.6521 438.674 56.1268C439.024 56.2968 439.374 56.4667 439.735 56.6418C441.326 56.8134 441.326 56.8134 442.916 56.6418C443.266 56.132 443.616 55.6222 443.977 55.097C439.252 55.097 434.528 55.097 429.66 55.097ZM446.628 55.097C446.803 55.9466 446.978 56.7962 447.158 57.6716C446.633 57.9265 446.633 57.9265 446.098 58.1865C446.973 58.1865 447.848 58.1865 448.749 58.1865C448.574 57.6768 448.399 57.167 448.219 56.6418C449.269 56.6418 450.319 56.6418 451.4 56.6418C451.4 57.1515 451.4 57.6613 451.4 58.1865C452.625 58.1865 453.85 58.1865 455.112 58.1865C455.112 57.6768 455.112 57.167 455.112 56.6418C455.462 56.6418 455.812 56.6418 456.173 56.6418C456.173 56.3019 456.173 55.9621 456.173 55.6119C454.053 55.1195 452.085 55.0435 449.909 55.0648C449.293 55.0695 448.677 55.0741 448.043 55.0789C447.576 55.0849 447.109 55.0908 446.628 55.097ZM457.763 55.6119C457.588 55.9518 457.413 56.2916 457.233 56.6418C457.583 56.6418 457.933 56.6418 458.294 56.6418C458.119 56.3019 457.944 55.9621 457.763 55.6119ZM456.173 56.6418C456.173 57.1515 456.173 57.6613 456.173 58.1865C456.523 58.1865 456.873 58.1865 457.233 58.1865C457.233 57.6768 457.233 57.167 457.233 56.6418C456.883 56.6418 456.533 56.6418 456.173 56.6418ZM427.009 57.6716C427.009 57.8415 427.009 58.0115 427.009 58.1865C427.884 58.1865 428.759 58.1865 429.66 58.1865C429.66 58.0166 429.66 57.8467 429.66 57.6716C428.785 57.6716 427.91 57.6716 427.009 57.6716ZM450.87 58.1865C451.4 59.2164 451.4 59.2164 451.4 59.2164L450.87 58.1865ZM448.749 58.7015C448.399 59.3812 448.049 60.0609 447.689 60.7612C448.214 60.7612 448.739 60.7612 449.279 60.7612C449.104 60.0815 448.929 59.4018 448.749 58.7015Z" fill="#283891"/>
<path d="M478.913 33.9851C478.913 33.6452 478.913 33.3054 478.913 32.9552C479.438 33.0667 479.438 33.0667 479.973 33.1805C484.19 33.9482 487.927 33.9388 492.18 33.5878C494.902 33.4022 496.976 33.6089 499.593 34.5C500.289 34.717 500.289 34.717 500.999 34.9385C501.599 35.1356 501.599 35.1356 502.211 35.3367C502.62 35.4708 503.029 35.6049 503.451 35.7431C503.753 35.8426 504.054 35.9422 504.365 36.0448C504.365 36.5545 504.365 37.0643 504.365 37.5895C504.046 37.5712 503.728 37.553 503.4 37.5341C501.965 37.4532 500.53 37.3765 499.095 37.2999C498.594 37.271 498.093 37.2421 497.576 37.2124C497.099 37.1875 496.623 37.1626 496.131 37.137C495.69 37.1127 495.248 37.0884 494.793 37.0634C493.757 36.9577 493.757 36.9577 493.23 37.5895C492.247 37.6268 491.263 37.6327 490.28 37.6217C489.743 37.6171 489.207 37.6124 488.654 37.6076C488.239 37.6017 487.824 37.5957 487.397 37.5895C487.397 37.2497 487.397 36.9098 487.397 36.5597C486.697 36.3898 485.997 36.2198 485.276 36.0448C485.276 36.3846 485.276 36.7245 485.276 37.0746C481.229 37.2046 477.962 36.8485 474.089 35.7209C473.039 35.4187 473.039 35.4187 472.02 36.0448C471.203 36.0806 470.385 36.0883 469.567 36.0769C468.917 36.07 468.917 36.07 468.254 36.0629C467.756 36.0539 467.756 36.0539 467.247 36.0448C466.897 35.1951 466.547 34.3455 466.187 33.4701C468.737 30.9933 476.097 32.4832 478.913 33.9851Z" fill="#283891"/>
<path d="M481.034 52.0075C482.824 52.2386 484.613 52.4765 486.403 52.7155C486.907 52.7805 487.411 52.8456 487.931 52.9126C490.513 53.2609 492.904 53.6622 495.351 54.5821C495.351 55.0919 495.351 55.6017 495.351 56.1269C495.84 56.1 495.84 56.1 496.339 56.0726C496.767 56.0586 497.196 56.0447 497.637 56.0303C498.274 56.0034 498.274 56.0034 498.923 55.976C500.123 56.1269 500.123 56.1269 501.073 56.8409C501.714 57.6717 501.714 57.6717 501.714 58.7015C500.277 59.3989 499.057 59.2499 497.472 59.2164C497.472 58.7067 497.472 58.1969 497.472 57.6717C496.947 57.8416 496.422 58.0115 495.881 58.1866C494.517 58.2228 493.168 58.2348 491.804 58.2188C491.432 58.2164 491.06 58.2141 490.677 58.2117C489.76 58.2057 488.844 58.1964 487.927 58.1866C487.927 57.6768 487.927 57.167 487.927 56.6418C489.677 56.4719 491.427 56.302 493.23 56.1269C488.505 55.957 483.78 55.787 478.913 55.612C478.913 56.1217 478.913 56.6315 478.913 57.1567C477.421 57.2855 477.421 57.2855 475.731 57.1567C474.737 56.2234 474.737 56.2234 474.141 55.097C474.141 54.5873 474.141 54.0775 474.141 53.5523C477.553 53.2974 477.553 53.2974 481.034 53.0373C481.034 52.6975 481.034 52.3576 481.034 52.0075Z" fill="#283891"/>
<path d="M482.625 41.194C482.92 41.2684 483.215 41.3427 483.519 41.4193C484.806 41.7232 486.097 41.9785 487.397 42.2239C487.397 41.884 487.397 41.5442 487.397 41.194C488.972 41.194 490.546 41.194 492.169 41.194C492.169 41.5339 492.169 41.8737 492.169 42.2239C496.963 42.8781 501.631 43.4335 506.486 43.2537C506.486 43.7635 506.486 44.2733 506.486 44.7985C498.71 46.6141 489.476 45.1468 481.564 44.7985C481.869 43.5701 482.212 42.3954 482.625 41.194Z" fill="#283891"/>
<path d="M475.731 11.8433C479.542 11.7392 483.165 12.048 486.933 12.5835C491.862 13.2496 496.741 13.6998 501.714 13.903C501.539 14.5827 501.364 15.2624 501.183 15.9627C491.556 16.146 491.556 16.146 487.602 15.1943C485.501 14.7602 483.371 14.6744 481.231 14.5446C479.973 14.4179 479.973 14.4179 479.443 13.903C478.209 13.7137 476.971 13.5413 475.731 13.3881C475.731 12.8783 475.731 12.3685 475.731 11.8433Z" fill="#283891"/>
<path d="M489.518 38.1045C492.492 38.2744 495.467 38.4443 498.532 38.6194C498.357 39.1292 498.182 39.639 498.002 40.1642C496.886 40.1781 495.77 40.1881 494.655 40.1964C494.033 40.2024 493.412 40.2083 492.772 40.2145C491.109 40.1642 491.109 40.1642 489.518 39.6493C489.518 39.1395 489.518 38.6297 489.518 38.1045Z" fill="#283891"/>
<path d="M488.988 61.2761C489.163 61.7859 489.338 62.2957 489.518 62.8209C487.462 63.4351 485.85 63.8507 483.685 63.8507C483.884 62.5956 483.884 62.5956 484.215 61.2761C485.843 60.486 487.238 60.993 488.988 61.2761Z" fill="#283891"/>
<path d="M495.881 61.2761C495.706 61.7859 495.531 62.2957 495.351 62.8209C492.479 63.4547 492.479 63.4547 490.91 62.8531C490.625 62.6725 490.341 62.492 490.048 62.306C491.97 60.4394 493.326 60.7514 495.881 61.2761Z" fill="#283891"/>
<path d="M470.959 53.5522C471.309 53.5522 471.659 53.5522 472.02 53.5522C472.37 54.5718 472.719 55.5914 473.08 56.6418C471.33 56.8117 469.58 56.9816 467.778 57.1567C467.603 56.6469 467.428 56.1372 467.247 55.6119C468.472 55.6119 469.697 55.6119 470.959 55.6119C470.959 54.9322 470.959 54.2525 470.959 53.5522Z" fill="#283891"/>
<path d="M470.429 51.4925C472.704 51.4925 474.978 51.4925 477.322 51.4925C477.497 52.0023 477.672 52.5121 477.852 53.0373C474.178 52.7824 474.178 52.7824 470.429 52.5224C470.429 52.1825 470.429 51.8427 470.429 51.4925Z" fill="#283891"/>
<path d="M483.685 56.1269C484.91 56.1269 486.135 56.1269 487.397 56.1269C487.397 56.9765 487.397 57.8261 487.397 58.7015C486.172 58.3616 484.947 58.0218 483.685 57.6716C483.685 57.1619 483.685 56.6521 483.685 56.1269Z" fill="#283891"/>
<path d="M501.714 55.097C503.113 55.2669 504.513 55.4369 505.955 55.6119C505.955 55.9518 505.955 56.2916 505.955 56.6418C504.556 56.6418 503.156 56.6418 501.714 56.6418C501.714 56.132 501.714 55.6222 501.714 55.097Z" fill="#283891"/>
<path d="M470.429 11.3284C472.004 11.5833 472.004 11.5833 473.61 11.8433C473.61 12.3531 473.61 12.8628 473.61 13.3881C472.035 13.1332 472.035 13.1332 470.429 12.8731C470.429 12.3634 470.429 11.8536 470.429 11.3284Z" fill="#283891"/>
<path d="M479.973 56.1269C481.023 56.3817 481.023 56.3817 482.094 56.6418C482.094 56.9816 482.094 57.3215 482.094 57.6716C481.219 58.0115 480.344 58.3513 479.443 58.7015C479.618 57.8519 479.793 57.0022 479.973 56.1269Z" fill="#283891"/>
<path d="M466.717 29.8657C466.717 30.3754 466.717 30.8852 466.717 31.4104C465.667 31.5804 464.617 31.7503 463.536 31.9254C463.536 31.4156 463.536 30.9058 463.536 30.3806C465.126 29.8657 465.126 29.8657 466.717 29.8657Z" fill="#283891"/>
<path d="M503.304 6.17911C504.004 6.34903 504.704 6.51896 505.425 6.69403C505.425 7.03388 505.425 7.37373 505.425 7.72388C504.725 7.72388 504.025 7.72388 503.304 7.72388C503.304 7.21411 503.304 6.70433 503.304 6.17911Z" fill="#283891"/>
<path d="M467.247 50.9776C467.947 50.9776 468.647 50.9776 469.368 50.9776C469.368 51.4874 469.368 51.9972 469.368 52.5224C468.668 52.3525 467.968 52.1825 467.247 52.0075C467.247 51.6676 467.247 51.3277 467.247 50.9776Z" fill="#283891"/>
<path d="M505.956 15.4478C506.83 15.4478 507.705 15.4478 508.607 15.4478C508.607 15.7876 508.607 16.1275 508.607 16.4776C507.732 16.4776 506.857 16.4776 505.956 16.4776C505.956 16.1378 505.956 15.7979 505.956 15.4478Z" fill="#283891"/>
<path d="M505.425 36.0448C505.95 36.0448 506.475 36.0448 507.016 36.0448C506.841 36.5545 506.666 37.0643 506.486 37.5895C506.136 37.5895 505.786 37.5895 505.425 37.5895C505.425 37.0798 505.425 36.57 505.425 36.0448Z" fill="#283891"/>
<path d="M494.29 11.8433C494.99 11.8433 495.69 11.8433 496.411 11.8433C496.411 12.1831 496.411 12.523 496.411 12.8731C495.711 12.8731 495.011 12.8731 494.29 12.8731C494.29 12.5333 494.29 12.1934 494.29 11.8433Z" fill="#283891"/>
<path d="M500.123 39.1343C500.648 39.1343 501.173 39.1343 501.714 39.1343C501.714 39.4742 501.714 39.814 501.714 40.1642C501.189 40.1642 500.664 40.1642 500.123 40.1642C500.123 39.8243 500.123 39.4845 500.123 39.1343Z" fill="#283891"/>
</g>
<defs>
<clipPath id="clip0_915_1877">
<rect width="78" height="69" fill="white" transform="translate(0.5)"/>
</clipPath>
<clipPath id="clip1_915_1877">
<rect width="149" height="69" fill="white" transform="translate(366.5)"/>
</clipPath>
</defs>
</svg>
