<svg width="150" height="69" viewBox="0 0 150 69" fill="none" xmlns="http://www.w3.org/2000/svg">
<g clip-path="url(#clip0_646_2383)">
<path d="M-0.5 -2.85842e-05C8.86702 -0.0159591 8.86702 -0.0159591 18.4233 -0.0322114C20.3923 -0.0368993 22.3613 -0.0415872 24.39 -0.0464171C26.8014 -0.0487428 26.8014 -0.0487428 27.9317 -0.049175C28.7181 -0.0499637 29.5045 -0.0517707 30.2909 -0.0543921C31.4847 -0.0581714 32.6785 -0.0586813 33.8723 -0.0584857C34.8808 -0.0602009 34.8808 -0.0602009 35.9097 -0.0619507C37.4606 -0.00763876 38.8222 0.180484 40.3292 0.514897C41.2077 0.575394 42.0877 0.617104 42.968 0.641617C43.4547 0.658543 43.9413 0.675469 44.4428 0.692908C45.4604 0.724547 46.4781 0.754031 47.4958 0.781411C48.2238 0.807796 48.2238 0.807796 48.9664 0.834714C49.6284 0.854067 49.6284 0.854067 50.3037 0.873811C51.4644 1.02982 51.4644 1.02982 53.0552 2.05967C53.0552 1.37997 53.0552 0.70027 53.0552 -2.85842e-05C53.9301 -2.85842e-05 54.805 -2.85842e-05 55.7064 -2.85842e-05C55.7064 0.169897 55.7064 0.339822 55.7064 0.514897C56.2763 0.557648 56.2763 0.557648 56.8578 0.601262C58.5731 0.731173 60.2881 0.864365 62.0031 0.997639C62.9002 1.06485 62.9002 1.06485 63.8155 1.13341C64.3862 1.17822 64.957 1.22302 65.545 1.26918C66.0726 1.30963 66.6002 1.35008 67.1438 1.39175C68.4324 1.54475 68.4324 1.54475 69.4929 2.05967C69.4929 1.71982 69.4929 1.37997 69.4929 1.02982C72.1176 1.02982 74.7423 1.02982 77.4466 1.02982C77.6216 1.87945 77.7966 2.72908 77.9769 3.60445C77.4519 3.77437 76.927 3.9443 76.3861 4.11937C77.436 4.62915 77.436 4.62915 78.5071 5.14923C78.8571 3.95975 79.207 2.77027 79.5676 1.54475C85.3876 1.22024 85.3876 1.22024 87.6539 2.5746C87.9601 2.91445 88.2664 3.2543 88.5818 3.60445C88.2319 4.28415 87.8819 4.96385 87.5214 5.66415C88.0463 5.66415 88.5712 5.66415 89.1121 5.66415C89.2105 5.18624 89.2105 5.18624 89.3109 4.69867C89.6423 3.60445 89.6423 3.60445 90.7029 2.5746C92.0347 2.56856 92.0347 2.56856 93.7186 2.73551C97.0767 3.04384 100.426 3.26566 103.793 3.45963C105.55 3.60445 105.55 3.60445 106.902 3.88001C108.984 4.26371 111.052 4.10007 113.162 4.03691C114.564 4.11937 114.564 4.11937 115.625 5.14923C115.45 5.48908 115.275 5.82893 115.094 6.17908C113.17 6.17908 111.245 6.17908 109.262 6.17908C109.437 6.51893 109.612 6.85878 109.792 7.20893C110.852 7.23083 111.913 7.22994 112.973 7.20893C113.148 7.039 113.323 6.86908 113.504 6.694C114.741 6.67293 115.978 6.67216 117.215 6.694C117.215 7.03385 117.215 7.3737 117.215 7.72385C117.565 7.55393 117.915 7.384 118.276 7.20893C118.622 6.16639 118.622 6.16639 118.806 5.14923C124.038 5.04862 129.063 4.95241 134.183 6.17908C134.183 6.68885 134.183 7.19863 134.183 7.72385C132.958 7.89378 131.734 8.0637 130.472 8.23878C133.971 8.74855 137.471 9.25833 141.077 9.78355C141.077 10.1234 141.077 10.4633 141.077 10.8134C139.21 10.9006 137.343 10.9859 135.476 11.0709C134.95 11.0954 134.425 11.12 133.884 11.1453C131.152 11.2687 128.434 11.3581 125.699 11.3283C125.699 11.6682 125.699 12.008 125.699 12.3582C124.999 12.1883 124.299 12.0183 123.578 11.8433C123.578 11.5034 123.578 11.1636 123.578 10.8134C121.479 10.9833 119.379 11.1533 117.215 11.3283C117.215 10.9885 117.215 10.6486 117.215 10.2985C116.337 10.2606 116.337 10.2606 115.44 10.222C109.991 9.97184 104.571 9.59924 99.1442 9.04863C94.2806 8.55896 94.2806 8.55896 89.6423 9.78355C95.9417 10.5482 95.9417 10.5482 102.368 11.3283C102.368 11.8381 102.368 12.3479 102.368 12.8731C100.217 12.9111 98.2292 12.8861 96.0882 12.6156C92.5246 12.2134 88.9494 12.3037 85.3672 12.326C84.6481 12.3286 83.9291 12.3309 83.21 12.333C81.4656 12.3391 79.7212 12.3475 77.9769 12.3582C77.9769 12.698 77.9769 13.0379 77.9769 13.388C78.5018 13.558 79.0268 13.7279 79.5676 13.903C79.5676 13.5631 79.5676 13.2233 79.5676 12.8731C81.3174 12.8731 83.0673 12.8731 84.8701 12.8731C84.8701 13.213 84.8701 13.5528 84.8701 13.903C86.095 13.903 87.3199 13.903 88.5818 13.903C88.5818 13.5631 88.5818 13.2233 88.5818 12.8731C89.2818 12.8731 89.9817 12.8731 90.7029 12.8731C90.8778 13.3829 91.0528 13.8927 91.2331 14.4179C92.458 14.5878 93.6828 14.7577 94.9448 14.9328C94.9448 14.423 94.9448 13.9133 94.9448 13.388C96.6573 13.4599 98.3694 13.5362 100.082 13.6133C100.807 13.6437 100.807 13.6437 101.547 13.6747C102.017 13.6962 102.487 13.7178 102.971 13.74C103.401 13.7589 103.832 13.7778 104.275 13.7972C105.614 13.9083 106.889 14.1393 108.201 14.4179C108.026 14.7577 107.851 15.0976 107.671 15.4477C108.211 15.4972 108.211 15.4972 108.761 15.5477C112.193 15.8639 115.624 16.1888 119.053 16.5228C120.816 16.6942 122.578 16.8615 124.342 17.0231C141.546 18.6044 141.546 18.6044 146.379 21.1119C146.85 22.2236 146.85 22.2236 146.909 23.1716C142.025 23.2552 137.186 23.0175 132.315 22.7313C124.8 22.2931 117.323 21.9856 109.792 22.1418C109.792 22.4816 109.792 22.8215 109.792 23.1716C110.323 23.1909 110.854 23.2101 111.401 23.2299C112.113 23.2638 112.825 23.298 113.537 23.3325C114.579 23.3773 114.579 23.3773 115.643 23.423C117.853 23.7 119.421 24.3815 121.457 25.2313C123.006 25.5334 124.557 25.6773 126.13 25.8106C126.549 25.8511 126.967 25.8915 127.399 25.9332C128.599 26.0483 129.8 26.156 131.002 26.2612C132.062 26.3568 133.123 26.4531 134.183 26.5508C134.577 26.5833 134.971 26.6159 135.376 26.6494C136.304 26.7761 136.304 26.7761 137.365 27.291C137.365 27.6309 137.365 27.9707 137.365 28.3209C134.215 28.3209 131.065 28.3209 127.82 28.3209C127.82 28.6607 127.82 29.0006 127.82 29.3507C128.345 29.3507 128.87 29.3507 129.411 29.3507C129.411 29.6906 129.411 30.0304 129.411 30.3806C122.122 30.4491 114.882 30.2539 107.605 29.8656C105.725 29.7674 103.846 29.6708 101.966 29.576C101.309 29.5428 101.309 29.5428 100.639 29.5089C97.6768 29.365 94.7299 29.3028 91.7633 29.3507C93.1632 29.5206 94.5631 29.6906 96.0053 29.8656C96.0053 30.3754 96.0053 30.8852 96.0053 31.4104C95.6603 31.4077 95.3152 31.405 94.9597 31.4022C93.3972 31.3915 91.8346 31.3848 90.272 31.3782C89.729 31.3739 89.1859 31.3696 88.6264 31.3652C88.1052 31.3635 87.584 31.3618 87.047 31.3601C86.5666 31.3574 86.0863 31.3547 85.5913 31.352C84.2588 31.3593 84.2588 31.3593 82.7491 31.9253C83.2741 32.9449 83.2741 32.9449 83.8096 33.985C85.5594 33.985 87.3093 33.985 89.1121 33.985C89.1121 33.4753 89.1121 32.9655 89.1121 32.4403C89.812 32.7801 90.512 33.12 91.2331 33.4701C91.2331 33.64 91.2331 33.81 91.2331 33.985C93.8578 34.155 96.4826 34.3249 99.1868 34.5C99.1868 35.0097 99.1868 35.5195 99.1868 36.0447C97.787 36.3846 96.3871 36.7244 94.9448 37.0746C95.5142 37.0255 96.0836 36.9764 96.6702 36.9258C97.4317 36.8678 98.1933 36.8101 98.9548 36.7528C99.5152 36.703 99.5152 36.703 100.087 36.6522C102.699 36.4652 104.662 36.7609 107.141 37.5895C107.316 37.2497 107.491 36.9098 107.671 36.5597C108.011 36.628 108.35 36.6964 108.7 36.7668C111.356 37.2934 113.997 37.764 116.685 38.1044C116.51 38.6142 116.335 39.124 116.155 39.6492C111.515 40.4751 107.084 40.814 102.368 40.6791C102.368 41.0189 102.368 41.3588 102.368 41.7089C104.643 41.8789 106.918 42.0488 109.262 42.2239C109.262 41.884 109.262 41.5442 109.262 41.194C110.486 41.194 111.711 41.194 112.973 41.194C112.973 42.2136 112.973 43.2331 112.973 44.2836C112.448 44.5384 112.448 44.5384 111.913 44.7985C112.202 44.8102 112.491 44.822 112.789 44.8341C115.835 44.9582 118.88 45.0838 121.926 45.2102C123.058 45.257 124.191 45.3034 125.323 45.3495C143.178 46.0763 143.178 46.0763 144.788 46.8582C144.788 47.198 144.788 47.5379 144.788 47.888C144.438 48.058 144.088 48.2279 143.728 48.403C145.303 48.5729 146.877 48.7428 148.5 48.9179C148.5 49.4277 148.5 49.9374 148.5 50.4627C145.237 51.507 142.273 52.1455 138.831 51.8465C138.134 51.7928 137.437 51.7391 136.718 51.6837C136.321 51.6527 135.925 51.6217 135.516 51.5898C120.353 50.4823 105.113 49.7878 89.9075 49.819C89.1579 49.8197 89.1579 49.8197 88.3932 49.8205C87.0033 49.8237 85.6137 49.8318 84.2239 49.8431C83.8166 49.8454 83.4094 49.8476 82.9899 49.85C80.9459 49.8432 80.9459 49.8432 79.0374 50.4627C82.887 50.4627 86.7366 50.4627 90.7029 50.4627C90.8778 50.9724 91.0528 51.4822 91.2331 52.0074C89.9207 52.2623 89.9207 52.2623 88.5818 52.5224C88.9612 52.5164 89.3406 52.5104 89.7314 52.5043C93.7936 52.4685 97.7931 52.6825 101.838 53.0373C101.838 53.5471 101.838 54.0568 101.838 54.5821C99.6532 55.6108 97.8867 55.7038 95.4751 55.6119C95.6501 55.9518 95.8251 56.2916 96.0053 56.6418C96.0265 57.6714 96.0284 58.7017 96.0053 59.7313C95.4804 59.9012 94.9554 60.0712 94.4146 60.2462C96.1575 60.6579 96.9122 60.8109 98.6566 60.2462C99.0454 59.2086 99.0454 59.2086 99.1868 58.1865C99.7118 58.5264 100.237 58.8662 100.778 59.2164C100.778 59.5562 100.778 59.8961 100.778 60.2462C101.079 60.2591 101.381 60.272 101.692 60.2853C103.078 60.3456 104.463 60.4085 105.848 60.4715C106.323 60.4918 106.798 60.512 107.287 60.5329C109.922 60.6547 112.49 60.8632 115.094 61.2761C115.094 62.1257 115.094 62.9753 115.094 63.8507C113.658 64.5481 112.438 64.3991 110.852 64.3656C110.852 64.7055 110.852 65.0453 110.852 65.3955C109.54 65.6504 109.54 65.6504 108.201 65.9104C108.201 65.5706 108.201 65.2307 108.201 64.8806C107.151 64.8806 106.101 64.8806 105.02 64.8806C105.02 64.5407 105.02 64.2009 105.02 63.8507C104.257 63.9097 103.495 63.9754 102.733 64.0438C102.096 64.0976 102.096 64.0976 101.447 64.1524C100.103 64.3119 100.103 64.3119 98.6566 65.3955C98.1316 65.2256 97.6067 65.0556 97.0658 64.8806C94.7167 64.7143 92.504 64.5863 90.3052 65.4599C88.5991 66.1041 87.6322 65.4424 85.9306 64.8806C83.9329 65.0345 83.9329 65.0345 82.2189 65.3955C82.2189 65.7353 82.2189 66.0752 82.2189 66.4253C80.819 66.4253 79.4191 66.4253 77.9769 66.4253C77.9769 65.9156 77.9769 65.4058 77.9769 64.8806C77.4519 64.8806 76.927 64.8806 76.3861 64.8806C76.3861 65.3903 76.3861 65.9001 76.3861 66.4253C75.9596 66.3298 75.5331 66.2342 75.0936 66.1357C73.2779 65.9192 71.7627 66.0603 69.961 66.2946C67.9559 66.4661 65.9699 66.4443 63.9584 66.4253C60.6349 66.3968 57.4189 66.5329 54.1157 66.9403C53.9407 66.0906 53.7657 65.241 53.5854 64.3656C53.2354 64.3656 52.8855 64.3656 52.5249 64.3656C52.4484 64.6949 52.3718 65.0241 52.2929 65.3633C51.9947 66.4253 51.9947 66.4253 51.4644 66.9403C50.5809 66.9612 49.6966 66.9623 48.8132 66.9403C48.8132 66.2606 48.8132 65.5809 48.8132 64.8806C47.9383 64.8806 47.0633 64.8806 46.1619 64.8806C46.1619 65.3903 46.1619 65.9001 46.1619 66.4253C45.2456 66.5266 44.3285 66.622 43.4113 66.715C42.9007 66.7688 42.3901 66.8225 41.864 66.8779C40.3563 66.9392 39.1436 66.7359 37.6779 66.4253C36.9675 66.583 36.2595 66.7521 35.5569 66.9403C34.4964 66.4253 34.4964 66.4253 33.9662 64.8806C33.9662 65.5603 33.9662 66.24 33.9662 66.9403C33.4631 66.8553 32.96 66.7703 32.4417 66.6828C30.6683 66.4073 29.3275 66.4703 27.5701 66.715C26.5366 66.8265 26.5366 66.8265 25.4822 66.9403C25.3072 66.7703 25.1322 66.6004 24.952 66.4253C24.427 67.105 23.9021 67.7847 23.3612 68.485C22.7816 68.3788 22.202 68.2726 21.6048 68.1632C19.605 67.7624 19.605 67.7624 18.0587 69C17.5338 69 17.0088 69 16.468 69C16.2055 68.4902 16.2055 68.4902 15.9377 67.9701C15.4128 68.14 14.8878 68.31 14.347 68.485C13.6356 68.3312 12.9288 68.1572 12.226 67.9701C11.3465 67.8965 10.465 67.8438 9.58302 67.8072C9.08746 67.7856 8.59191 67.764 8.08134 67.7418C7.56801 67.7216 7.05468 67.7013 6.5258 67.6805C5.74351 67.6471 5.74351 67.6471 4.94541 67.6131C3.66059 67.5586 2.37572 67.506 1.09075 67.4552C1.09075 67.965 1.09075 68.4747 1.09075 69C0.565801 68.83 0.0408541 68.6601 -0.5 68.485C-0.5 45.885 -0.5 23.2849 -0.5 -2.85842e-05ZM97.5961 5.14923C97.5961 5.48908 97.5961 5.82893 97.5961 6.17908C96.0212 6.17908 94.4464 6.17908 92.8238 6.17908C92.8238 6.349 92.8238 6.51893 92.8238 6.694C94.9236 6.694 97.0234 6.694 99.1868 6.694C99.1868 6.52408 99.1868 6.35415 99.1868 6.17908C100.937 6.00915 102.686 5.83922 104.489 5.66415C104.489 5.49423 104.489 5.3243 104.489 5.14923C102.215 5.14923 99.9398 5.14923 97.5961 5.14923ZM67.3719 5.66415C67.3719 6.004 67.3719 6.34385 67.3719 6.694C68.7717 6.694 70.1716 6.694 71.6139 6.694C69.9764 5.78535 69.3693 5.66415 67.3719 5.66415ZM81.6886 5.66415C81.1637 6.42881 81.1637 6.42881 80.6281 7.20893C80.9781 7.20893 81.328 7.20893 81.6886 7.20893C81.5136 7.88863 81.3386 8.56833 81.1584 9.26863C83.684 9.75915 86.019 9.82646 88.5818 9.78355C88.5818 9.27378 88.5818 8.764 88.5818 8.23878C88.9318 8.06885 89.2818 7.89893 89.6423 7.72385C88.8691 7.70995 88.0958 7.69996 87.3225 7.69167C86.6766 7.68271 86.6766 7.68271 86.0176 7.67357C84.8439 7.64936 84.8439 7.64936 83.8096 8.23878C83.6565 7.90955 83.5034 7.58032 83.3456 7.24111C82.8402 6.10078 82.8402 6.10078 81.6886 5.66415ZM61.5391 6.17908C61.5391 6.349 61.5391 6.51893 61.5391 6.694C62.4141 6.694 63.289 6.694 64.1904 6.694C64.1904 6.52408 64.1904 6.35415 64.1904 6.17908C63.3155 6.17908 62.4406 6.17908 61.5391 6.17908ZM126.23 7.20893C127.279 7.7187 127.279 7.7187 128.351 8.23878C128.526 7.89893 128.701 7.55908 128.881 7.20893C128.006 7.20893 127.131 7.20893 126.23 7.20893ZM69.4929 11.8433C69.4929 12.353 69.4929 12.8628 69.4929 13.388C71.4177 13.388 73.3425 13.388 75.3256 13.388C75.3256 13.0482 75.3256 12.7083 75.3256 12.3582C73.3774 11.7528 71.5241 11.8053 69.4929 11.8433ZM99.1868 14.9328C99.1868 15.1027 99.1868 15.2727 99.1868 15.4477C100.062 15.4477 100.937 15.4477 101.838 15.4477C101.838 15.2778 101.838 15.1079 101.838 14.9328C100.963 14.9328 100.088 14.9328 99.1868 14.9328ZM90.1726 21.6268C90.1726 21.7968 90.1726 21.9667 90.1726 22.1418C91.2225 22.1418 92.2724 22.1418 93.3541 22.1418C93.3541 21.9718 93.3541 21.8019 93.3541 21.6268C92.3042 21.6268 91.2543 21.6268 90.1726 21.6268ZM98.1263 21.6268C98.4763 21.9667 98.8263 22.3065 99.1868 22.6567C99.1868 22.3168 99.1868 21.977 99.1868 21.6268C98.8369 21.6268 98.4869 21.6268 98.1263 21.6268ZM104.489 22.6567C104.489 22.8266 104.489 22.9965 104.489 23.1716C105.364 23.1716 106.239 23.1716 107.141 23.1716C107.141 23.0017 107.141 22.8318 107.141 22.6567C106.266 22.6567 105.391 22.6567 104.489 22.6567ZM77.9769 28.3209C77.9769 28.4908 77.9769 28.6607 77.9769 28.8358C80.7766 28.8358 83.5763 28.8358 86.4609 28.8358C86.4609 28.6659 86.4609 28.4959 86.4609 28.3209C83.6611 28.3209 80.8614 28.3209 77.9769 28.3209ZM75.8559 30.3806C74.806 30.7204 73.7561 31.0603 72.6744 31.4104C72.6744 31.5803 72.6744 31.7503 72.6744 31.9253C73.8993 31.9253 75.1241 31.9253 76.3861 31.9253C76.2111 31.4156 76.0362 30.9058 75.8559 30.3806ZM96.0053 45.3134C97.7124 45.866 98.6468 45.815 100.419 45.6533C100.964 45.6052 101.509 45.5571 102.071 45.5075C102.639 45.4541 103.208 45.4006 103.793 45.3456C104.368 45.2941 104.942 45.2427 105.534 45.1897C106.954 45.0622 108.373 44.9317 109.792 44.7985C109.792 44.6286 109.792 44.4586 109.792 44.2836C108.091 44.1513 106.39 44.0387 104.688 43.9295C104.209 43.892 103.73 43.8545 103.236 43.8159C100.365 43.6429 98.5099 43.7417 96.0053 45.3134ZM128.881 47.3731C128.881 47.543 128.881 47.713 128.881 47.888C130.631 47.888 132.38 47.888 134.183 47.888C134.183 47.7181 134.183 47.5482 134.183 47.3731C132.433 47.3731 130.684 47.3731 128.881 47.3731ZM72.6744 48.9179C72.4994 49.2577 72.3244 49.5976 72.1441 49.9477C73.194 49.9477 74.2439 49.9477 75.3256 49.9477C73.9064 48.8227 73.9064 48.8227 72.6744 48.9179ZM65.7811 49.4328C65.7811 49.6027 65.7811 49.7727 65.7811 49.9477C67.006 49.9477 68.2309 49.9477 69.4929 49.9477C69.4929 49.7778 69.4929 49.6079 69.4929 49.4328C68.268 49.4328 67.0431 49.4328 65.7811 49.4328ZM14.347 49.9477C14.347 50.1177 14.347 50.2876 14.347 50.4627C18.5465 50.8025 22.7461 51.1424 27.073 51.4925C26.898 51.1527 26.723 50.8128 26.5427 50.4627C23.9303 49.8344 21.3269 49.887 18.6552 49.9156C18.0319 49.919 18.0319 49.919 17.3959 49.9226C16.3796 49.9286 15.3633 49.9378 14.347 49.9477ZM37.1477 50.4627C36.9727 50.8025 36.7977 51.1424 36.6174 51.4925C39.5992 51.5307 42.5808 51.5587 45.5628 51.5774C46.5771 51.5851 47.5913 51.5957 48.6055 51.609C50.0639 51.6278 51.5221 51.6366 52.9806 51.6434C53.6601 51.6553 53.6601 51.6553 54.3533 51.6675C56.8941 51.6792 56.8941 51.6792 59.1908 50.7107C59.5658 50.333 59.5658 50.333 59.9484 49.9477C57.2978 49.9349 54.6472 49.9256 51.9966 49.9194C51.0961 49.9169 50.1956 49.9134 49.2951 49.9089C47.996 49.9026 46.6968 49.8997 45.3976 49.8974C44.9992 49.8948 44.6008 49.8921 44.1904 49.8894C41.8005 49.8891 39.4997 49.9958 37.1477 50.4627ZM29.7242 50.4627C29.5492 50.8025 29.3742 51.1424 29.194 51.4925C30.2438 51.4925 31.2937 51.4925 32.3754 51.4925C30.9563 50.3674 30.9563 50.3674 29.7242 50.4627ZM35.0267 55.097C36.8048 56.2481 37.0986 56.2158 39.103 55.9337C39.7458 55.8481 39.7458 55.8481 40.4017 55.7608C40.7277 55.7116 41.0538 55.6625 41.3897 55.6119C41.3897 55.442 41.3897 55.2721 41.3897 55.097C39.2899 55.097 37.1901 55.097 35.0267 55.097ZM41.9199 55.097C42.4449 55.7767 42.9698 56.4564 43.5107 57.1567C43.5107 56.6469 43.5107 56.1371 43.5107 55.6119C43.952 55.8626 43.952 55.8626 44.4022 56.1183C45.811 56.7181 46.8013 56.7747 48.3347 56.7785C48.847 56.7799 49.3593 56.7812 49.8871 56.7826C50.4186 56.7786 50.95 56.7746 51.4976 56.7705C52.2978 56.7765 52.2978 56.7765 53.1142 56.7826C53.6258 56.7812 54.1374 56.7799 54.6646 56.7785C55.3649 56.7768 55.3649 56.7768 56.0794 56.775C57.4438 56.7171 57.4438 56.7171 58.8879 55.6119C56.84 55.1443 54.9474 55.037 52.846 55.0467C51.8899 55.0492 51.8899 55.0492 50.9145 55.0517C50.2539 55.056 49.5932 55.0604 48.9126 55.0648C48.2417 55.0671 47.5708 55.0695 46.8796 55.0718C45.2264 55.0779 43.5732 55.0864 41.9199 55.097ZM63.6601 55.097C63.4852 55.4368 63.3102 55.7767 63.1299 56.1268C63.9804 56.2136 64.831 56.2992 65.6817 56.3843C66.1554 56.4321 66.6291 56.4799 67.1171 56.5291C68.4764 56.6644 68.4764 56.6644 70.0231 56.6418C70.0231 57.1515 70.0231 57.6613 70.0231 58.1865C71.598 58.1865 73.1728 58.1865 74.7954 58.1865C74.0954 58.0166 73.3955 57.8467 72.6744 57.6716C72.6744 57.1618 72.6744 56.6521 72.6744 56.1268C73.0243 56.2968 73.3743 56.4667 73.7349 56.6418C75.3256 56.8134 75.3256 56.8134 76.9164 56.6418C77.2663 56.132 77.6163 55.6222 77.9769 55.097C73.2523 55.097 68.5278 55.097 63.6601 55.097ZM80.6281 55.097C80.8031 55.9466 80.9781 56.7962 81.1584 57.6716C80.6334 57.9265 80.6334 57.9265 80.0979 58.1865C80.9728 58.1865 81.8477 58.1865 82.7491 58.1865C82.5741 57.6768 82.3991 57.167 82.2189 56.6418C83.2688 56.6418 84.3186 56.6418 85.4004 56.6418C85.4004 57.1515 85.4004 57.6613 85.4004 58.1865C86.6252 58.1865 87.8501 58.1865 89.1121 58.1865C89.1121 57.6768 89.1121 57.167 89.1121 56.6418C89.4621 56.6418 89.812 56.6418 90.1726 56.6418C90.1726 56.3019 90.1726 55.9621 90.1726 55.6119C88.0527 55.1195 86.0854 55.0435 83.909 55.0648C83.2932 55.0695 82.6773 55.0741 82.0428 55.0789C81.576 55.0849 81.1091 55.0908 80.6281 55.097ZM91.7633 55.6119C91.5884 55.9518 91.4134 56.2916 91.2331 56.6418C91.5831 56.6418 91.933 56.6418 92.2936 56.6418C92.1186 56.3019 91.9436 55.9621 91.7633 55.6119ZM90.1726 56.6418C90.1726 57.1515 90.1726 57.6613 90.1726 58.1865C90.5226 58.1865 90.8725 58.1865 91.2331 58.1865C91.2331 57.6768 91.2331 57.167 91.2331 56.6418C90.8831 56.6418 90.5332 56.6418 90.1726 56.6418ZM61.0089 57.6716C61.0089 57.8415 61.0089 58.0115 61.0089 58.1865C61.8838 58.1865 62.7587 58.1865 63.6601 58.1865C63.6601 58.0166 63.6601 57.8467 63.6601 57.6716C62.7852 57.6716 61.9103 57.6716 61.0089 57.6716ZM84.8701 58.1865C85.4004 59.2164 85.4004 59.2164 85.4004 59.2164L84.8701 58.1865ZM82.7491 58.7015C82.3991 59.3812 82.0492 60.0609 81.6886 60.7612C82.2136 60.7612 82.7385 60.7612 83.2794 60.7612C83.1044 60.0815 82.9294 59.4018 82.7491 58.7015Z" fill="#283891"/>
<path d="M112.913 33.9851C112.913 33.6452 112.913 33.3054 112.913 32.9552C113.438 33.0667 113.438 33.0667 113.973 33.1805C118.19 33.9482 121.927 33.9388 126.18 33.5878C128.902 33.4022 130.976 33.6089 133.593 34.5C134.289 34.717 134.289 34.717 134.999 34.9385C135.599 35.1356 135.599 35.1356 136.211 35.3367C136.62 35.4708 137.029 35.6049 137.451 35.7431C137.753 35.8426 138.054 35.9422 138.365 36.0448C138.365 36.5545 138.365 37.0643 138.365 37.5895C138.046 37.5712 137.728 37.553 137.4 37.5341C135.965 37.4532 134.53 37.3765 133.095 37.2999C132.594 37.271 132.093 37.2421 131.576 37.2124C131.099 37.1875 130.623 37.1626 130.131 37.137C129.69 37.1127 129.248 37.0884 128.793 37.0634C127.757 36.9577 127.757 36.9577 127.23 37.5895C126.247 37.6268 125.263 37.6327 124.28 37.6217C123.743 37.6171 123.207 37.6124 122.654 37.6076C122.239 37.6017 121.824 37.5957 121.397 37.5895C121.397 37.2497 121.397 36.9098 121.397 36.5597C120.697 36.3898 119.997 36.2198 119.276 36.0448C119.276 36.3846 119.276 36.7245 119.276 37.0746C115.229 37.2046 111.962 36.8485 108.089 35.7209C107.039 35.4187 107.039 35.4187 106.02 36.0448C105.203 36.0806 104.385 36.0883 103.567 36.0769C102.917 36.07 102.917 36.07 102.254 36.0629C101.756 36.0539 101.756 36.0539 101.247 36.0448C100.897 35.1951 100.547 34.3455 100.187 33.4701C102.737 30.9933 110.097 32.4832 112.913 33.9851Z" fill="#283891"/>
<path d="M115.034 52.0075C116.824 52.2386 118.613 52.4765 120.403 52.7155C120.907 52.7805 121.411 52.8456 121.931 52.9126C124.513 53.2609 126.904 53.6622 129.351 54.5821C129.351 55.0919 129.351 55.6017 129.351 56.1269C129.84 56.1 129.84 56.1 130.339 56.0726C130.767 56.0586 131.196 56.0447 131.637 56.0303C132.274 56.0034 132.274 56.0034 132.923 55.976C134.123 56.1269 134.123 56.1269 135.073 56.8409C135.714 57.6717 135.714 57.6717 135.714 58.7015C134.277 59.3989 133.057 59.2499 131.472 59.2164C131.472 58.7067 131.472 58.1969 131.472 57.6717C130.947 57.8416 130.422 58.0115 129.881 58.1866C128.517 58.2228 127.168 58.2348 125.804 58.2188C125.432 58.2164 125.06 58.2141 124.677 58.2117C123.76 58.2057 122.844 58.1964 121.927 58.1866C121.927 57.6768 121.927 57.167 121.927 56.6418C123.677 56.4719 125.427 56.302 127.23 56.1269C122.505 55.957 117.78 55.787 112.913 55.612C112.913 56.1217 112.913 56.6315 112.913 57.1567C111.421 57.2855 111.421 57.2855 109.731 57.1567C108.737 56.2234 108.737 56.2234 108.141 55.097C108.141 54.5873 108.141 54.0775 108.141 53.5523C111.553 53.2974 111.553 53.2974 115.034 53.0373C115.034 52.6975 115.034 52.3576 115.034 52.0075Z" fill="#283891"/>
<path d="M116.625 41.194C116.92 41.2684 117.215 41.3427 117.519 41.4193C118.806 41.7232 120.097 41.9785 121.397 42.2239C121.397 41.884 121.397 41.5442 121.397 41.194C122.972 41.194 124.546 41.194 126.169 41.194C126.169 41.5339 126.169 41.8737 126.169 42.2239C130.963 42.8781 135.631 43.4335 140.486 43.2537C140.486 43.7635 140.486 44.2733 140.486 44.7985C132.71 46.6141 123.476 45.1468 115.564 44.7985C115.869 43.5701 116.212 42.3954 116.625 41.194Z" fill="#283891"/>
<path d="M109.731 11.8433C113.542 11.7392 117.165 12.048 120.933 12.5835C125.862 13.2496 130.741 13.6998 135.714 13.903C135.539 14.5827 135.364 15.2624 135.183 15.9627C125.556 16.146 125.556 16.146 121.602 15.1943C119.501 14.7602 117.371 14.6744 115.231 14.5446C113.973 14.4179 113.973 14.4179 113.443 13.903C112.209 13.7137 110.971 13.5413 109.731 13.3881C109.731 12.8783 109.731 12.3685 109.731 11.8433Z" fill="#283891"/>
<path d="M123.518 38.1045C126.492 38.2744 129.467 38.4443 132.532 38.6194C132.357 39.1292 132.182 39.639 132.002 40.1642C130.886 40.1781 129.77 40.1881 128.655 40.1964C128.033 40.2024 127.412 40.2083 126.772 40.2145C125.109 40.1642 125.109 40.1642 123.518 39.6493C123.518 39.1395 123.518 38.6297 123.518 38.1045Z" fill="#283891"/>
<path d="M122.988 61.2761C123.163 61.7859 123.338 62.2957 123.518 62.8209C121.462 63.4351 119.85 63.8507 117.685 63.8507C117.884 62.5956 117.884 62.5956 118.215 61.2761C119.843 60.486 121.238 60.993 122.988 61.2761Z" fill="#283891"/>
<path d="M129.881 61.2761C129.706 61.7859 129.531 62.2957 129.351 62.8209C126.479 63.4547 126.479 63.4547 124.91 62.8531C124.625 62.6725 124.341 62.492 124.048 62.306C125.97 60.4394 127.326 60.7514 129.881 61.2761Z" fill="#283891"/>
<path d="M104.959 53.5522C105.309 53.5522 105.659 53.5522 106.02 53.5522C106.37 54.5718 106.719 55.5914 107.08 56.6418C105.33 56.8117 103.58 56.9816 101.778 57.1567C101.603 56.6469 101.428 56.1372 101.247 55.6119C102.472 55.6119 103.697 55.6119 104.959 55.6119C104.959 54.9322 104.959 54.2525 104.959 53.5522Z" fill="#283891"/>
<path d="M104.429 51.4925C106.704 51.4925 108.978 51.4925 111.322 51.4925C111.497 52.0023 111.672 52.5121 111.852 53.0373C108.178 52.7824 108.178 52.7824 104.429 52.5224C104.429 52.1825 104.429 51.8427 104.429 51.4925Z" fill="#283891"/>
<path d="M117.685 56.1269C118.91 56.1269 120.135 56.1269 121.397 56.1269C121.397 56.9765 121.397 57.8261 121.397 58.7015C120.172 58.3616 118.947 58.0218 117.685 57.6716C117.685 57.1619 117.685 56.6521 117.685 56.1269Z" fill="#283891"/>
<path d="M135.714 55.097C137.113 55.2669 138.513 55.4369 139.955 55.6119C139.955 55.9518 139.955 56.2916 139.955 56.6418C138.556 56.6418 137.156 56.6418 135.714 56.6418C135.714 56.132 135.714 55.6222 135.714 55.097Z" fill="#283891"/>
<path d="M104.429 11.3284C106.004 11.5833 106.004 11.5833 107.61 11.8433C107.61 12.3531 107.61 12.8628 107.61 13.3881C106.035 13.1332 106.035 13.1332 104.429 12.8731C104.429 12.3634 104.429 11.8536 104.429 11.3284Z" fill="#283891"/>
<path d="M113.973 56.1269C115.023 56.3817 115.023 56.3817 116.094 56.6418C116.094 56.9816 116.094 57.3215 116.094 57.6716C115.219 58.0115 114.344 58.3513 113.443 58.7015C113.618 57.8519 113.793 57.0022 113.973 56.1269Z" fill="#283891"/>
<path d="M100.717 29.8657C100.717 30.3754 100.717 30.8852 100.717 31.4104C99.6672 31.5804 98.6173 31.7503 97.5356 31.9254C97.5356 31.4156 97.5356 30.9058 97.5356 30.3806C99.1263 29.8657 99.1263 29.8657 100.717 29.8657Z" fill="#283891"/>
<path d="M137.304 6.17911C138.004 6.34903 138.704 6.51896 139.425 6.69403C139.425 7.03388 139.425 7.37373 139.425 7.72388C138.725 7.72388 138.025 7.72388 137.304 7.72388C137.304 7.21411 137.304 6.70433 137.304 6.17911Z" fill="#283891"/>
<path d="M101.247 50.9776C101.947 50.9776 102.647 50.9776 103.368 50.9776C103.368 51.4874 103.368 51.9972 103.368 52.5224C102.668 52.3525 101.968 52.1825 101.247 52.0075C101.247 51.6676 101.247 51.3277 101.247 50.9776Z" fill="#283891"/>
<path d="M139.956 15.4478C140.83 15.4478 141.705 15.4478 142.607 15.4478C142.607 15.7876 142.607 16.1275 142.607 16.4776C141.732 16.4776 140.857 16.4776 139.956 16.4776C139.956 16.1378 139.956 15.7979 139.956 15.4478Z" fill="#283891"/>
<path d="M139.425 36.0448C139.95 36.0448 140.475 36.0448 141.016 36.0448C140.841 36.5545 140.666 37.0643 140.486 37.5895C140.136 37.5895 139.786 37.5895 139.425 37.5895C139.425 37.0798 139.425 36.57 139.425 36.0448Z" fill="#283891"/>
<path d="M128.29 11.8433C128.99 11.8433 129.69 11.8433 130.411 11.8433C130.411 12.1831 130.411 12.523 130.411 12.8731C129.711 12.8731 129.011 12.8731 128.29 12.8731C128.29 12.5333 128.29 12.1934 128.29 11.8433Z" fill="#283891"/>
<path d="M134.123 39.1343C134.648 39.1343 135.173 39.1343 135.714 39.1343C135.714 39.4742 135.714 39.814 135.714 40.1642C135.189 40.1642 134.664 40.1642 134.123 40.1642C134.123 39.8243 134.123 39.4845 134.123 39.1343Z" fill="#283891"/>
</g>
<defs>
<clipPath id="clip0_646_2383">
<rect width="149" height="69" fill="white" transform="translate(0.5)"/>
</clipPath>
</defs>
</svg>
