<svg width="1194" height="512" viewBox="0 0 1194 512" fill="none" xmlns="http://www.w3.org/2000/svg">
<g opacity="0.15">
<path d="M293.354 511.194C497.727 384.824 512.208 299.349 485.75 244.071C456.219 182.378 362.461 130.659 399.12 116.594C422.593 107.587 482.749 120.474 603.968 151.449C971.555 245.37 1024.53 281.719 1115.5 271.424C1242.95 257.012 1227.01 175.699 1397.42 134.003C1522.58 103.381 1669.31 113.434 1778.19 127.873" stroke="#A0A3BD" stroke-miterlimit="10"/>
<path d="M279.41 507.301C477.547 384.122 499.696 298.976 479.766 245.925C457.493 186.639 367.76 137.8 405.267 124.824C429.38 116.48 488.453 129.161 605.531 159.07C961.308 249.942 1016.24 286.41 1105.98 275.789C1233.17 260.526 1208.24 175.333 1377.42 130.865C1381.11 129.895 1384.77 128.961 1388.48 128.066C1511.18 98.5597 1659.35 108.265 1769.44 122.139" stroke="#A0A3BD" stroke-miterlimit="10"/>
<path d="M265.487 503.403C457.374 383.425 487.244 298.729 473.802 247.779C458.816 190.987 373.098 144.941 411.437 133.053C436.2 125.372 494.195 137.848 607.113 166.694C951.03 254.518 1008.06 291.235 1096.5 280.147C1223.54 264.221 1189.5 174.918 1357.45 127.718C1361.13 126.682 1364.8 125.649 1368.58 124.696C1491.84 93.576 1646.26 102.668 1760.69 116.399" stroke="#A0A3BD" stroke-miterlimit="10"/>
<path d="M251.55 499.51C437.205 382.709 474.811 298.642 467.829 249.634C460.104 195.443 378.45 152.085 417.594 141.288C443.025 134.271 499.895 146.542 608.682 174.319C940.784 259.106 999.83 295.983 1087.01 284.508C1213.84 267.814 1170.73 174.471 1337.47 124.574C1341.17 123.466 1344.87 122.364 1348.65 121.332C1471.4 87.7898 1633.13 97.0783 1751.92 110.664" stroke="#A0A3BD" stroke-miterlimit="10"/>
<path d="M237.614 495.617C417.041 382.007 462.364 298.733 461.852 251.491C461.295 200.021 383.828 159.232 423.757 149.52C449.863 143.169 505.616 155.234 610.26 181.944C930.527 263.686 991.592 300.724 1077.52 288.866C1204.15 271.39 1151.93 173.99 1317.47 121.423C1321.2 120.247 1324.92 119.069 1328.75 117.952C1451.54 82.4209 1620.03 91.4769 1743.18 104.921" stroke="#A0A3BD" stroke-miterlimit="10"/>
<path d="M223.678 491.724C396.878 381.306 449.862 299.026 455.891 253.346C462.303 204.737 389.212 166.383 429.926 157.75C456.725 152.068 511.339 163.922 611.841 189.568C920.281 268.263 983.366 305.454 1068.03 293.223C1194.46 274.959 1133.12 173.48 1297.51 118.281C1301.24 117.027 1304.97 115.769 1308.84 114.586C1431.7 77.0783 1606.95 85.8807 1734.45 99.1858" stroke="#A0A3BD" stroke-miterlimit="10"/>
<path d="M209.746 487.826C376.705 380.599 437.227 299.537 449.911 255.203C462.957 209.592 394.633 173.536 436.08 165.985C463.582 160.973 517.058 172.621 613.404 197.194C910.024 272.843 975.128 310.181 1058.54 297.584C1184.77 278.519 1114.25 172.949 1277.52 115.139C1281.29 113.807 1285.02 112.474 1288.92 111.221C1411.84 71.7515 1593.82 80.2933 1725.68 93.452" stroke="#A0A3BD" stroke-miterlimit="10"/>
<path d="M195.811 483.933C356.534 379.897 405.658 298.441 443.938 257.059C444.073 214.328 400.059 180.7 442.241 174.216C470.455 169.88 522.77 181.305 614.992 204.828C899.778 277.432 966.891 314.908 1049.05 301.952C1175.08 282.078 1095.38 172.401 1257.55 112.004C1261.31 110.6 1265.08 109.187 1269.02 107.859C1392.04 66.4388 1580.76 74.6961 1716.95 87.7195" stroke="#A0A3BD" stroke-miterlimit="10"/>
<path d="M181.874 480.04C336.366 379.19 390.436 298.308 437.965 258.914C442.339 218.893 405.497 187.871 448.403 182.449C477.336 178.792 528.479 189.993 616.554 212.445C889.489 282.009 958.644 319.611 1039.56 306.303C1165.37 285.61 1076.44 171.816 1237.55 108.852C1241.34 107.372 1245.11 105.883 1249.1 104.481C1372.23 61.1228 1567.62 69.098 1708.18 81.9736" stroke="#A0A3BD" stroke-miterlimit="10"/>
<path d="M167.938 476.147C316.196 378.489 375.216 298.179 431.989 260.771C440.598 223.456 410.944 195.05 454.563 190.68C484.22 187.708 534.199 198.684 618.125 220.07C879.264 286.589 950.396 324.313 1030.06 310.66C1155.66 289.138 1057.48 171.222 1217.57 105.703C1221.37 104.15 1225.17 102.585 1229.19 101.109C1352.42 55.8214 1554.51 63.4998 1699.44 76.2341" stroke="#A0A3BD" stroke-miterlimit="10"/>
<path d="M154.005 472.249C296.031 377.782 359.997 298.048 426.019 262.628C438.866 228.022 416.4 202.239 460.722 198.915C491.109 196.634 539.922 207.377 619.695 227.69C868.997 291.159 942.138 329.007 1020.57 315.016C1145.93 292.654 1038.49 170.61 1197.58 102.556C1201.39 100.925 1205.22 99.2883 1209.27 97.7371C1332.65 50.5269 1541.4 57.9022 1690.67 70.4928" stroke="#A0A3BD" stroke-miterlimit="10"/>
<path d="M140.067 468.356C275.854 377.08 344.785 297.914 420.058 264.49C437.145 232.592 421.864 209.44 466.889 207.156C498.007 205.574 545.645 216.075 621.279 235.329C858.751 295.752 933.89 333.704 1011.09 319.386C1136.23 296.174 1019.49 170.005 1177.62 99.4235C1181.45 97.7161 1185.28 96.0091 1189.38 94.3859C1312.92 45.26 1528.31 52.3232 1681.95 64.7721" stroke="#A0A3BD" stroke-miterlimit="10"/>
<path d="M126.131 464.463C255.687 376.374 329.55 297.787 414.073 266.34C435.399 237.151 427.304 216.641 473.044 215.379C504.888 214.501 551.357 224.76 622.848 242.947C848.506 300.32 925.632 338.384 1001.58 323.738C1126.49 299.665 1000.41 169.365 1157.63 96.2721C1161.46 94.4889 1165.33 92.7052 1169.47 91.0011C1293.18 39.9727 1515.2 46.7073 1673.19 59.021" stroke="#A0A3BD" stroke-miterlimit="10"/>
<path d="M112.208 460.565C235.516 375.672 314.33 297.658 408.107 268.198C433.666 241.719 432.747 223.854 479.207 223.612C511.778 223.443 557.075 233.45 624.423 250.571C838.24 304.903 917.363 343.063 992.1 328.099C1116.75 303.151 981.304 168.717 1137.64 93.1282C1141.49 91.2673 1145.38 89.4096 1149.54 87.6344C1273.44 34.6987 1502.08 41.1209 1664.46 53.2801" stroke="#A0A3BD" stroke-miterlimit="10"/>
<path d="M98.2646 456.672C215.345 374.965 299.112 297.526 402.132 270.052C431.93 246.282 438.184 231.071 485.374 231.848C518.662 232.393 562.798 242.143 625.984 258.204C827.972 309.491 909.073 347.737 982.594 332.465C1106.98 306.634 962.176 168.089 1117.65 89.9899C1121.51 88.0532 1125.43 86.1235 1129.62 84.2729C1253.72 29.4361 1488.96 35.534 1655.67 47.5547" stroke="#A0A3BD" stroke-miterlimit="10"/>
<path d="M84.3276 452.779C195.174 374.259 283.889 297.396 396.155 271.908C430.196 250.846 443.608 238.296 491.53 240.076C525.53 241.34 568.51 250.832 627.574 265.821C817.728 314.061 900.804 352.393 973.119 336.816C1097.22 310.091 943.026 167.424 1097.69 86.846C1101.56 84.8325 1105.51 82.8303 1109.75 80.9002C1234.04 24.1641 1475.87 29.9302 1646.92 41.8026" stroke="#A0A3BD" stroke-miterlimit="10"/>
<path d="M70.3911 448.886C175.008 373.557 268.674 297.273 390.182 273.765C428.431 255.412 449.024 245.527 497.692 248.309C532.392 250.295 574.228 259.522 629.137 273.441C807.464 318.635 892.492 357.044 963.613 341.168C1087.42 313.536 923.823 166.761 1077.69 83.6866C1081.57 81.5945 1085.54 79.5217 1089.79 77.5204C1214.37 18.9034 1462.78 24.333 1638.17 36.0721" stroke="#A0A3BD" stroke-miterlimit="10"/>
<path d="M56.4473 444.984C154.829 372.846 253.436 297.13 384.201 275.616C426.711 259.97 454.418 252.753 503.836 256.536C539.227 259.237 579.934 268.206 630.704 281.067C797.201 323.214 884.192 361.695 954.118 345.529C1077.62 316.984 904.621 166.106 1057.72 80.552C1061.6 78.3828 1065.61 76.2379 1069.89 74.1617C1194.71 13.6454 1449.66 18.7438 1629.44 30.3425" stroke="#A0A3BD" stroke-miterlimit="10"/>
<path d="M42.5171 441.091C134.675 372.153 264.402 318.672 378.24 277.477C420.837 262.062 459.827 259.995 510.011 264.775C546.092 268.203 585.666 276.903 632.295 288.697C786.962 327.804 875.891 366.351 944.644 349.894C1067.8 320.415 885.376 165.441 1037.74 77.403C1041.62 75.1589 1045.67 72.9386 1049.97 70.7886C1175.05 8.38515 1436.54 13.149 1620.67 24.5951" stroke="#A0A3BD" stroke-miterlimit="10"/>
<path d="M28.5835 437.198C114.503 371.437 226.379 302.369 372.263 279.33C424.89 271.019 465.205 267.23 516.169 273.004C552.932 277.162 591.376 285.59 633.862 296.32C776.707 332.376 867.569 370.993 935.148 354.251C1057.95 323.832 866.1 164.772 1017.74 74.2563C1021.64 71.9326 1025.72 69.6469 1030.06 67.4172C1155.7 3.22686 1423.45 7.54992 1611.94 18.8543" stroke="#A0A3BD" stroke-miterlimit="10"/>
<path d="M14.6494 433.305C94.3257 370.735 209.046 299.58 366.294 281.187C422.073 274.664 470.58 274.472 522.331 281.238C559.768 286.126 597.099 294.284 635.435 303.946C766.454 336.961 859.396 375.747 925.653 358.612C1047.8 327.027 846.5 164.025 997.768 71.1133C1001.66 68.7101 1005.78 66.3555 1010.15 64.0501C1135.94 -2.07744 1410.33 1.95412 1603.17 13.1181" stroke="#A0A3BD" stroke-miterlimit="10"/>
<path d="M0.714844 429.412C74.1588 370.038 192.562 296.62 360.321 283.047C613.225 262.591 806.346 392.067 916.168 362.973C1041.36 329.802 816.313 154.669 990.239 60.6821C1116.19 -7.37888 1397.25 -3.64445 1594.43 7.38335" stroke="#A0A3BD" stroke-miterlimit="10"/>
</g>
</svg>
