<svg width="1600" height="422" viewBox="0 0 1600 422" fill="none" xmlns="http://www.w3.org/2000/svg">
<g opacity="0.5">
<path d="M-228.816 652.036C482.319 959.792 731.172 444.591 1487.44 722.119C2084.99 941.4 2146.17 1478.27 2727.13 1728.76M2728.32 1724.98C2147.06 1473.04 2080.58 944.383 1490.12 713.556C861.104 467.656 380.964 935.584 -225.478 641.374M2729.8 1720.25C2148.25 1466.86 2084.34 935.282 1493.08 704.112C863.5 457.965 383.541 930.086 -224 636.652M2731.17 1715.86C2149.36 1461.11 2087.85 926.816 1495.83 695.327C865.722 448.948 385.942 924.973 -222.625 632.259M2732.8 1710.67C2150.66 1454.31 2091.99 916.819 1499.07 684.953C868.339 438.3 388.781 918.936 -221.002 627.072M2734.42 1705.49C2151.96 1447.53 2096.14 906.83 1502.32 674.586C870.947 427.658 391.622 912.905 -219.379 621.889M2735.81 1701.06C2153.06 1441.72 2099.7 898.287 1505.09 665.719C873.171 418.556 394.056 907.748 -217.992 617.456M2737.13 1696.82C2154.12 1436.17 2103.1 890.12 1507.75 657.242C875.292 409.852 396.385 902.818 -216.665 613.217M2738.36 1692.91C2155.09 1431.05 2106.24 882.595 1510.19 649.431C877.242 401.833 398.534 898.276 -215.442 609.311M2740.2 1687.02C2156.55 1423.33 2111 871.232 1513.88 637.634C880.179 389.721 401.784 891.419 -213.596 603.413M2741.81 1681.88C2157.81 1416.61 2115.14 861.345 1517.1 627.37C882.726 379.181 404.616 885.454 -211.99 598.281M2743.34 1676.99C2159.02 1410.2 2119.09 851.924 1520.16 617.589C885.146 369.137 407.319 879.77 -210.459 593.39M2745.27 1670.83C2160.53 1402.13 2124.08 840.052 1524.02 605.261C888.187 356.476 410.732 872.608 -208.53 587.227M2747.32 1664.28C2162.13 1393.56 2129.4 827.447 1528.11 592.171C891.404 343.032 414.362 865.004 -206.481 580.682M2749.1 1658.58C2163.51 1386.09 2134.03 816.463 1531.69 580.764C894.198 331.315 417.53 858.379 -204.696 574.978M2751.1 1652.21C2165.06 1377.74 2139.23 804.187 1535.68 568.014C897.309 318.218 421.079 850.976 -202.7 568.603M2753.44 1644.72C2166.87 1367.93 2145.34 789.777 1540.36 553.046C900.948 302.84 425.253 842.285 -200.358 561.119M2755.65 1637.66C2168.56 1358.68 2151.12 776.185 1544.78 538.925C904.366 288.332 429.199 834.088 -198.148 554.059M2758.84 1627.47C2171 1345.34 2159.48 756.577 1551.16 518.553C909.274 267.399 434.906 822.264 -194.959 543.873M2762.59 1615.51C2173.84 1329.66 2169.34 733.544 1558.65 494.619C915.004 242.801 441.634 808.373 -191.213 531.906M2766.71 1602.31C2176.95 1312.37 2180.25 708.153 1566.91 468.231C921.276 215.676 449.078 793.06 -187.084 518.711M2771.27 1587.76C2180.36 1293.29 2192.33 680.154 1576.02 439.127C928.139 185.754 457.323 776.169 -182.529 504.159M2776.22 1571.95C2184.02 1272.56 2205.52 649.735 1585.92 407.501C935.534 153.233 466.322 757.813 -177.579 488.346M2781.66 1554.55C2188.01 1249.75 2220.1 616.281 1596.81 372.712C943.592 117.451 476.27 737.615 -172.134 470.952M2787.6 1535.58C2192.32 1224.87 2236.09 579.793 1608.69 334.761C952.293 78.4058 487.18 715.571 -166.195 451.976M2793.05 1518.18C2196.23 1202.04 2250.82 546.353 1619.58 299.972C960.189 42.6057 497.235 695.349 -160.75 434.582M2798 1502.37C2199.75 1181.29 2264.27 515.959 1629.48 268.346C967.301 10.0528 506.419 676.952 -155.8 418.769M2803.94 1483.4C2203.93 1156.38 2280.49 479.493 1641.36 230.395C975.753 -29.0201 517.497 654.853 -149.861 399.793M2810.37 1462.84C2208.41 1129.37 2298.15 439.997 1654.22 189.281C984.811 -71.3606 529.567 630.881 -143.426 379.236M2817.3 1440.7C2213.18 1100.28 2317.26 397.473 1668.08 145.005C994.452 -116.972 542.645 605.02 -136.497 357.098M2824.65 1417.23C2218.17 1069.42 2337.64 352.408 1682.77 98.0728C1004.55 -165.334 556.597 577.548 -129.152 333.632M2830.68 1397.96C2221.92 1043.47 2364.77 289.581 1695.55 57.262C933.652 -207.229 638.173 580.193 -122.292 311.717" stroke="url(#paint0_radial_595_2356)" stroke-opacity="0.6" stroke-width="3.04199"/>
<path d="M-228.816 652.036C482.319 959.792 731.172 444.591 1487.44 722.119C2084.99 941.4 2146.17 1478.27 2727.13 1728.76M2728.32 1724.98C2147.06 1473.04 2080.58 944.383 1490.12 713.556C861.104 467.656 380.964 935.584 -225.478 641.374M2729.8 1720.25C2148.25 1466.86 2084.34 935.282 1493.08 704.112C863.5 457.965 383.541 930.086 -224 636.652M2731.17 1715.86C2149.36 1461.11 2087.85 926.816 1495.83 695.327C865.722 448.948 385.942 924.973 -222.625 632.259M2732.8 1710.67C2150.66 1454.31 2091.99 916.819 1499.07 684.953C868.339 438.3 388.781 918.936 -221.002 627.072M2734.42 1705.49C2151.96 1447.53 2096.14 906.83 1502.32 674.586C870.947 427.658 391.622 912.905 -219.379 621.889M2735.81 1701.06C2153.06 1441.72 2099.7 898.287 1505.09 665.719C873.171 418.556 394.056 907.748 -217.992 617.456M2737.13 1696.82C2154.12 1436.17 2103.1 890.12 1507.75 657.242C875.292 409.852 396.385 902.818 -216.665 613.217M2738.36 1692.91C2155.09 1431.05 2106.24 882.595 1510.19 649.431C877.242 401.833 398.534 898.276 -215.442 609.311M2740.2 1687.02C2156.55 1423.33 2111 871.232 1513.88 637.634C880.179 389.721 401.784 891.419 -213.596 603.413M2741.81 1681.88C2157.81 1416.61 2115.14 861.345 1517.1 627.37C882.726 379.181 404.616 885.454 -211.99 598.281M2743.34 1676.99C2159.02 1410.2 2119.09 851.924 1520.16 617.589C885.146 369.137 407.319 879.77 -210.459 593.39M2745.27 1670.83C2160.53 1402.13 2124.08 840.052 1524.02 605.261C888.187 356.476 410.732 872.608 -208.53 587.227M2747.32 1664.28C2162.13 1393.56 2129.4 827.447 1528.11 592.171C891.404 343.032 414.362 865.004 -206.481 580.682M2749.1 1658.58C2163.51 1386.09 2134.03 816.463 1531.69 580.764C894.198 331.315 417.53 858.379 -204.696 574.978M2751.1 1652.21C2165.06 1377.74 2139.23 804.187 1535.68 568.014C897.309 318.218 421.079 850.976 -202.7 568.603M2753.44 1644.72C2166.87 1367.93 2145.34 789.777 1540.36 553.046C900.948 302.84 425.253 842.285 -200.358 561.119M2755.65 1637.66C2168.56 1358.68 2151.12 776.185 1544.78 538.925C904.366 288.332 429.199 834.088 -198.148 554.059M2758.84 1627.47C2171 1345.34 2159.48 756.577 1551.16 518.553C909.274 267.399 434.906 822.264 -194.959 543.873M2762.59 1615.51C2173.84 1329.66 2169.34 733.544 1558.65 494.619C915.004 242.801 441.634 808.373 -191.213 531.906M2766.71 1602.31C2176.95 1312.37 2180.25 708.153 1566.91 468.231C921.276 215.676 449.078 793.06 -187.084 518.711M2771.27 1587.76C2180.36 1293.29 2192.33 680.154 1576.02 439.127C928.139 185.754 457.323 776.169 -182.529 504.159M2776.22 1571.95C2184.02 1272.56 2205.52 649.735 1585.92 407.501C935.534 153.233 466.322 757.813 -177.579 488.346M2781.66 1554.55C2188.01 1249.75 2220.1 616.281 1596.81 372.712C943.592 117.451 476.27 737.615 -172.134 470.952M2787.6 1535.58C2192.32 1224.87 2236.09 579.793 1608.69 334.761C952.293 78.4058 487.18 715.571 -166.195 451.976M2793.05 1518.18C2196.23 1202.04 2250.82 546.353 1619.58 299.972C960.189 42.6057 497.235 695.349 -160.75 434.582M2798 1502.37C2199.75 1181.29 2264.27 515.959 1629.48 268.346C967.301 10.0528 506.419 676.952 -155.8 418.769M2803.94 1483.4C2203.93 1156.38 2280.49 479.493 1641.36 230.395C975.753 -29.0201 517.497 654.853 -149.861 399.793M2810.37 1462.84C2208.41 1129.37 2298.15 439.997 1654.22 189.281C984.811 -71.3606 529.567 630.881 -143.426 379.236M2817.3 1440.7C2213.18 1100.28 2317.26 397.473 1668.08 145.005C994.452 -116.972 542.645 605.02 -136.497 357.098M2824.65 1417.23C2218.17 1069.42 2337.64 352.408 1682.77 98.0728C1004.55 -165.334 556.597 577.548 -129.152 333.632M2830.68 1397.96C2221.92 1043.47 2364.77 289.581 1695.55 57.262C933.652 -207.229 638.173 580.193 -122.292 311.717" stroke="url(#paint1_linear_595_2356)" stroke-width="3.04199"/>
</g>
<defs>
<radialGradient id="paint0_radial_595_2356" cx="0" cy="0" r="1" gradientUnits="userSpaceOnUse" gradientTransform="translate(140.244 538.594) rotate(13.4489) scale(2338.85 436.829)">
<stop stop-color="white" stop-opacity="0.2"/>
<stop offset="0.518016" stop-color="white" stop-opacity="0.9"/>
<stop offset="1" stop-color="white"/>
</radialGradient>
<linearGradient id="paint1_linear_595_2356" x1="1347.43" y1="-205.03" x2="2692.02" y2="817.105" gradientUnits="userSpaceOnUse">
<stop stop-color="white" stop-opacity="0"/>
<stop offset="1" stop-color="white"/>
</linearGradient>
</defs>
</svg>
