<svg width="1599" height="151" viewBox="0 0 1599 151" fill="none" xmlns="http://www.w3.org/2000/svg">
<g opacity="0.15">
<path d="M294.993 150.171C590.895 113.163 611.862 88.1309 573.555 71.9422C530.799 53.8751 395.049 38.7288 448.126 34.6098C482.112 31.9719 569.21 35.7462 744.717 44.8171C1276.93 72.3227 1353.63 82.9677 1485.34 79.9527C1669.87 75.7321 1646.8 51.919 1893.53 39.708C2074.73 30.7401 2287.18 33.6844 2444.83 37.9128" stroke="#A0A3BD" stroke-miterlimit="10"/>
<path d="M274.804 149.031C561.678 112.957 593.746 88.0214 564.89 72.4851C532.642 55.1229 402.722 40.82 457.027 37.0197C491.939 34.5762 577.468 38.29 746.98 47.0491C1262.1 73.6616 1341.63 84.3413 1471.56 81.2309C1655.71 76.761 1619.62 51.8116 1864.56 38.7889C1869.9 38.505 1875.2 38.2313 1880.58 37.9693C2058.23 29.3281 2272.76 32.1704 2432.15 36.2336" stroke="#A0A3BD" stroke-miterlimit="10"/>
<path d="M254.646 147.889C532.47 112.753 575.717 87.9493 556.255 73.028C534.559 56.3961 410.451 42.9114 465.961 39.4298C501.813 37.1803 585.782 40.834 749.271 49.2818C1247.21 75.0018 1329.78 85.7544 1457.83 82.5073C1641.78 77.8433 1592.48 51.6902 1835.66 37.8675C1840.98 37.5641 1846.3 37.2615 1851.76 36.9824C2030.23 27.8687 2253.81 30.5315 2419.49 34.5527" stroke="#A0A3BD" stroke-miterlimit="10"/>
<path d="M234.466 146.749C503.269 112.543 557.716 87.9238 547.607 73.5714C536.423 57.7012 418.199 45.0035 474.874 41.8414C511.695 39.7864 594.035 43.3801 751.542 51.5149C1232.38 76.3452 1317.87 87.1449 1444.1 83.7843C1627.72 78.8955 1565.3 51.5593 1806.72 36.9467C1812.08 36.6222 1817.44 36.2995 1822.9 35.9971C2000.63 26.1741 2234.8 28.8943 2406.78 32.873" stroke="#A0A3BD" stroke-miterlimit="10"/>
<path d="M214.29 145.609C474.073 112.338 539.695 87.9503 538.954 74.1151C538.147 59.0419 425.985 47.0964 483.798 44.2523C521.596 42.3923 602.318 45.9254 753.827 53.7478C1217.53 77.6864 1305.94 88.5334 1430.35 85.0606C1613.7 79.9427 1538.08 51.4185 1777.77 36.0237C1783.16 35.6792 1788.55 35.3343 1794.09 35.0074C1971.88 24.6017 2215.83 27.2538 2394.14 31.191" stroke="#A0A3BD" stroke-miterlimit="10"/>
<path d="M194.111 144.469C444.881 112.132 521.594 88.0359 530.322 74.6583C539.606 60.4228 433.781 49.1907 492.729 46.6622C531.53 44.9983 610.603 48.4699 756.117 55.9805C1202.69 79.0268 1294.03 89.9186 1416.62 86.3367C1599.66 80.9878 1510.85 51.2689 1748.87 35.1037C1754.27 34.7363 1759.67 34.3679 1765.28 34.0214C1943.16 23.037 2196.89 25.6149 2381.49 29.5114" stroke="#A0A3BD" stroke-miterlimit="10"/>
<path d="M173.941 143.328C415.673 111.925 503.301 88.1857 521.665 75.2023C540.554 61.8446 441.63 51.2856 501.64 49.074C541.459 47.6061 618.884 51.0174 758.38 58.2139C1187.84 80.3683 1282.11 91.3029 1402.87 87.6137C1585.63 82.0305 1483.53 51.1134 1719.93 34.1834C1725.38 33.7933 1730.79 33.403 1736.43 33.0362C1914.39 21.4771 2177.89 23.9786 2368.8 27.8322" stroke="#A0A3BD" stroke-miterlimit="10"/>
<path d="M153.764 142.188C386.468 111.72 457.594 87.8648 513.018 75.7458C513.212 63.2319 449.487 53.3836 510.561 51.4847C551.41 50.215 627.154 53.5609 760.679 60.4496C1173.01 81.7122 1270.18 92.6874 1389.14 88.8932C1571.61 83.0729 1456.21 50.9533 1691.01 33.2655C1696.46 32.8544 1701.91 32.4405 1707.62 32.0516C1885.73 19.9214 2158.97 22.3396 2356.15 26.1536" stroke="#A0A3BD" stroke-miterlimit="10"/>
<path d="M133.586 141.047C357.268 111.513 435.554 87.8257 504.369 76.2891C510.701 64.5685 457.359 55.4837 519.481 53.8957C561.373 52.8247 635.42 56.105 762.94 62.6803C1158.11 83.0525 1258.24 94.0645 1375.39 90.1672C1557.54 84.1071 1428.79 50.7817 1662.06 32.3421C1667.54 31.9088 1673.01 31.4726 1678.78 31.0621C1857.04 18.3644 2139.95 20.7 2343.46 24.4707" stroke="#A0A3BD" stroke-miterlimit="10"/>
<path d="M113.409 139.907C328.065 111.307 413.517 87.788 495.716 76.833C508.181 65.9049 465.247 57.586 528.401 56.3064C571.34 55.4359 643.703 58.6503 765.216 64.9132C1143.31 84.3938 1246.3 95.4418 1361.64 91.4432C1543.49 85.1403 1401.34 50.6079 1633.13 31.4202C1638.62 30.9654 1644.13 30.5071 1649.95 30.0747C1828.37 16.8119 2120.97 19.0606 2330.8 22.79" stroke="#A0A3BD" stroke-miterlimit="10"/>
<path d="M93.2358 138.766C298.869 111.101 391.482 87.7497 487.072 77.3769C505.674 67.2423 473.145 59.6916 537.317 58.718C581.314 58.0499 651.988 61.1963 767.487 67.145C1128.44 85.7323 1234.34 96.8163 1347.89 92.7192C1529.4 86.1701 1373.84 50.4288 1604.19 30.4985C1609.7 30.021 1615.24 29.5416 1621.11 29.0874C1799.74 15.2615 2101.98 17.4214 2318.11 21.1087" stroke="#A0A3BD" stroke-miterlimit="10"/>
<path d="M73.0547 137.626C269.655 110.895 369.458 87.7105 478.442 77.922C503.181 68.5806 481.057 61.8004 546.246 61.1312C591.301 60.6679 660.274 63.7435 769.781 69.3821C1113.61 87.0773 1222.4 98.192 1334.17 93.9986C1515.36 87.2008 1346.33 50.2513 1575.29 29.5811C1580.83 29.0811 1586.37 28.5812 1592.31 28.1058C1771.17 13.719 2083.03 15.7875 2305.48 19.4332" stroke="#A0A3BD" stroke-miterlimit="10"/>
<path d="M52.8782 136.486C240.457 110.688 347.399 87.6733 469.777 78.4638C500.654 69.9156 488.933 63.9092 555.158 63.5397C601.264 63.2824 668.544 66.2869 772.053 71.6132C1098.77 88.4151 1210.44 99.5624 1320.41 95.2733C1501.25 88.2233 1318.71 50.0639 1546.33 28.6583C1551.89 28.136 1557.5 27.6137 1563.48 27.1146C1742.6 12.1706 2064.05 14.1429 2292.8 17.749" stroke="#A0A3BD" stroke-miterlimit="10"/>
<path d="M32.72 135.344C211.252 110.482 325.363 87.6353 461.138 79.0079C498.145 71.2533 496.814 66.0214 564.082 65.9504C611.24 65.901 676.824 68.8315 774.334 73.8455C1083.91 89.7571 1198.47 100.933 1306.68 96.5502C1487.15 89.244 1291.05 49.8742 1517.4 27.7374C1522.97 27.1924 1528.61 26.6484 1534.62 26.1285C1714.02 10.6259 2045.06 12.5067 2280.16 16.0676" stroke="#A0A3BD" stroke-miterlimit="10"/>
<path d="M12.531 134.204C182.047 110.275 303.329 87.597 452.488 79.551C495.631 72.5896 504.686 68.1351 573.01 68.3627C621.207 68.5221 685.109 71.3774 776.594 76.0812C1069.04 91.1009 1186.47 102.302 1292.91 97.8289C1473 90.2641 1263.35 49.6903 1488.45 26.8184C1494.04 26.2512 1499.72 25.6861 1505.78 25.1442C1685.47 9.08482 2026.06 10.8706 2267.44 14.391" stroke="#A0A3BD" stroke-miterlimit="10"/>
<path d="M-7.64722 133.064C152.843 110.069 281.289 87.5587 443.835 80.0946C493.121 73.9262 512.54 70.2509 581.924 70.7723C631.15 71.1423 693.379 73.9221 778.896 78.3119C1054.21 92.4394 1174.49 103.665 1279.2 99.1032C1458.87 91.2765 1235.62 49.4956 1459.56 25.8977C1465.16 25.3081 1470.87 24.7217 1477.01 24.1564C1656.98 7.54089 2007.11 9.22953 2254.76 12.7064" stroke="#A0A3BD" stroke-miterlimit="10"/>
<path d="M-27.8252 131.924C123.646 109.863 259.26 87.5228 435.187 80.6383C490.565 75.2635 520.382 72.3688 590.846 73.1835C641.086 73.765 701.659 76.4672 781.159 80.5434C1039.35 93.7788 1162.46 105.027 1265.43 100.378C1444.69 92.2856 1207.82 49.3014 1430.59 24.9725C1436.21 24.3599 1441.97 23.7528 1448.12 23.1667C1628.49 6.0003 1988.16 7.59042 2242.1 11.0283" stroke="#A0A3BD" stroke-miterlimit="10"/>
<path d="M-48.0142 130.781C94.4285 109.655 237.197 87.4808 426.526 81.1802C488.075 76.5981 528.191 74.4846 599.741 75.5925C650.982 76.3835 709.92 79.0101 783.428 82.7764C1024.49 95.1196 1150.44 106.389 1251.68 101.655C1430.5 93.2952 1180.02 49.1096 1401.69 24.0544C1407.31 23.4191 1413.11 22.7909 1419.31 22.1829C1600.03 4.46029 1969.16 5.95339 2229.45 9.35014" stroke="#A0A3BD" stroke-miterlimit="10"/>
<path d="M-68.1831 129.641C65.2483 109.452 253.075 93.7896 417.896 81.7254C479.571 77.2109 536.022 76.6058 608.682 78.0054C660.921 79.0093 718.219 81.5573 785.73 85.0113C1009.67 96.4641 1138.42 107.753 1237.97 102.933C1416.28 94.3002 1152.16 48.9149 1372.75 23.1323C1378.37 22.4751 1384.24 21.8249 1390.47 21.1952C1571.57 2.9199 1950.16 4.31503 2216.76 7.66711" stroke="#A0A3BD" stroke-miterlimit="10"/>
<path d="M-88.3567 128.501C36.042 109.242 198.023 89.0152 409.243 82.2679C485.439 79.8341 543.809 78.7244 617.598 80.4155C670.825 81.633 726.487 84.1014 788.001 87.2437C994.819 97.8028 1126.38 109.112 1224.22 104.209C1402.03 95.3006 1124.25 48.719 1343.8 22.2107C1349.45 21.5302 1355.36 20.8608 1361.64 20.2079C1543.55 1.40925 1931.2 2.67529 2204.11 5.98584" stroke="#A0A3BD" stroke-miterlimit="10"/>
<path d="M-108.532 127.361C6.82813 109.037 172.927 88.1985 400.599 82.8118C481.359 80.9014 551.591 80.8452 626.519 82.8267C680.721 84.2583 734.772 86.6473 790.277 89.477C979.973 99.1457 1114.54 110.504 1210.47 105.486C1387.33 96.2365 1095.87 48.5 1314.88 21.2902C1320.52 20.5864 1326.49 19.8969 1332.81 19.2217C1514.93 -0.144202 1912.22 1.03647 2191.42 4.30592" stroke="#A0A3BD" stroke-miterlimit="10"/>
<path d="M-128.707 126.221C-22.3704 108.833 149.061 87.3314 391.952 83.3565C758.121 77.3659 1037.73 115.284 1196.74 106.763C1378.01 97.0492 1052.16 45.7602 1303.98 18.2354C1486.34 -1.69672 1893.28 -0.603066 2178.76 2.62651" stroke="#A0A3BD" stroke-miterlimit="10"/>
</g>
</svg>
