<svg width="60" height="61" viewBox="0 0 60 61" fill="none" xmlns="http://www.w3.org/2000/svg">
<path d="M47.5 1.73125H12.5C5.59644 1.73125 0 7.10383 0 13.7312V47.3312C0 53.9587 5.59644 59.3312 12.5 59.3312H47.5C54.4036 59.3312 60 53.9587 60 47.3312V13.7312C60 7.10383 54.4036 1.73125 47.5 1.73125Z" fill="#F6F8FD"/>
<path fill-rule="evenodd" clip-rule="evenodd" d="M30 16.1313C31.4963 16.1313 33.031 16.1709 34.5185 16.2357L36.2755 16.3221L37.9573 16.4247L39.5322 16.5345L40.9707 16.6497C42.5317 16.7726 44.0008 17.4578 45.1193 18.5847C46.2375 19.7117 46.9338 21.2082 47.0853 22.8111L47.1553 23.5761L47.2865 25.2141C47.409 26.9113 47.5 28.762 47.5 30.5313C47.5 32.3005 47.409 34.1512 47.2865 35.8485L47.1553 37.4865C47.1325 37.7493 47.1098 38.0029 47.0853 38.2513C46.9338 39.8545 46.2372 41.3514 45.1185 42.4782C43.9997 43.6053 42.5305 44.2905 40.969 44.4129L39.534 44.5261L37.959 44.638L36.2755 44.7405L34.5185 44.8269C33.0132 44.8941 31.5068 44.9289 30 44.9313C28.4932 44.9289 26.9868 44.8941 25.4815 44.8269L23.7245 44.7405L22.0427 44.638L20.4678 44.5261L19.0293 44.4129C17.4682 44.29 15.9992 43.6048 14.8808 42.4777C13.7625 41.3509 13.0663 39.8543 12.9148 38.2513L12.8447 37.4865L12.7135 35.8485C12.5797 34.0794 12.5085 32.3058 12.5 30.5313C12.5 28.762 12.591 26.9113 12.7135 25.2141L12.8447 23.5761C12.8675 23.3133 12.8903 23.0595 12.9148 22.8111C13.0662 21.2085 13.7621 19.7122 14.8802 18.5853C15.9982 17.4583 17.4667 16.773 19.0275 16.6497L20.4643 16.5345L22.0392 16.4247L23.7228 16.3221L25.4798 16.2357C26.9858 16.1684 28.4928 16.1336 30 16.1313ZM26.5 26.1661V34.8964C26.5 35.7277 27.375 36.2461 28.075 35.8321L35.425 31.4673C35.585 31.3725 35.7177 31.2361 35.8102 31.072C35.9025 30.9076 35.9513 30.7211 35.9513 30.5313C35.9513 30.3414 35.9025 30.1549 35.8102 29.9905C35.7177 29.8264 35.585 29.6901 35.425 29.5953L28.075 25.2321C27.9152 25.1373 27.7343 25.0873 27.5498 25.0873C27.3655 25.0873 27.1843 25.1373 27.0248 25.2323C26.865 25.3271 26.7325 25.4637 26.6405 25.6278C26.5483 25.792 26.5 25.9765 26.5 26.1661Z" fill="#283891"/>
</svg>
