<svg width="25" height="25" viewBox="0 0 25 25" fill="none" xmlns="http://www.w3.org/2000/svg">
<g clip-path="url(#clip0_755_2313)">
<path d="M19.8631 0.5H5.59554C2.78135 0.5 0.5 2.73858 0.5 5.5V19.5C0.5 22.2614 2.78135 24.5 5.59554 24.5H19.8631C22.6772 24.5 24.9586 22.2614 24.9586 19.5V5.5C24.9586 2.73858 22.6772 0.5 19.8631 0.5Z" fill="#F6F8FD"/>
<path fill-rule="evenodd" clip-rule="evenodd" d="M12.7292 6.5C13.3392 6.5 13.9648 6.5165 14.5712 6.5435L15.2874 6.5795L15.9729 6.62225L16.615 6.668L17.2014 6.716C17.8377 6.76721 18.4365 7.05271 18.8925 7.52228C19.3483 7.99185 19.6321 8.61541 19.6939 9.28325L19.7224 9.602L19.7759 10.2845C19.8259 10.9917 19.863 11.7628 19.863 12.5C19.863 13.2372 19.8259 14.0083 19.7759 14.7155L19.7224 15.398C19.7132 15.5075 19.7039 15.6132 19.6939 15.7167C19.6321 16.3847 19.3482 17.0084 18.8922 17.4779C18.4361 17.9475 17.8372 18.233 17.2007 18.284L16.6157 18.3312L15.9737 18.3778L15.2874 18.4205L14.5712 18.4565C13.9575 18.4845 13.3434 18.499 12.7292 18.5C12.115 18.499 11.5009 18.4845 10.8873 18.4565L10.1711 18.4205L9.4855 18.3778L8.84346 18.3312L8.25706 18.284C7.6207 18.2328 7.02189 17.9473 6.56599 17.4777C6.11009 17.0082 5.82629 16.3846 5.76453 15.7167L5.73599 15.398L5.68249 14.7155C5.62795 13.9784 5.59891 13.2394 5.59546 12.5C5.59546 11.7628 5.63255 10.9917 5.68249 10.2845L5.73599 9.602C5.74527 9.4925 5.75454 9.38675 5.76453 9.28325C5.82627 8.61552 6.10996 7.99206 6.56571 7.52251C7.02148 7.05295 7.62011 6.76738 8.25635 6.716L8.84203 6.668L9.48407 6.62225L10.1703 6.5795L10.8866 6.5435C11.5005 6.51547 12.1148 6.50097 12.7292 6.5ZM11.3025 10.6812V14.3188C11.3025 14.6652 11.6592 14.8812 11.9445 14.7087L14.9407 12.89C15.0059 12.8505 15.06 12.7937 15.0977 12.7253C15.1353 12.6568 15.1552 12.5791 15.1552 12.5C15.1552 12.4209 15.1353 12.3432 15.0977 12.2747C15.06 12.2063 15.0059 12.1495 14.9407 12.11L11.9445 10.292C11.8794 10.2525 11.8056 10.2317 11.7304 10.2317C11.6553 10.2317 11.5814 10.2525 11.5164 10.2921C11.4513 10.3316 11.3972 10.3885 11.3597 10.4569C11.3221 10.5253 11.3025 10.6022 11.3025 10.6812Z" fill="#283891"/>
</g>
<defs>
<clipPath id="clip0_755_2313">
<rect width="24.4586" height="25" fill="white" transform="translate(0.5)"/>
</clipPath>
</defs>
</svg>
