<svg xmlns="http://www.w3.org/2000/svg" width="86" height="26" viewBox="0 0 86 26" fill="none"><script xmlns=""/>
<g clip-path="url(#clip0_2350_2313)">
<path fill-rule="evenodd" clip-rule="evenodd" d="M85.5 13L85.4993 14.3L85.4987 14.8384L85.4967 15.2515L85.4947 15.5997L85.4914 15.9063L85.4881 16.1834L85.4835 16.438L85.4783 16.675L85.473 16.8973L85.4664 17.1075L85.4592 17.3073L85.4512 17.4979L85.4427 17.6806L85.4341 17.8562L85.4242 18.0254L85.4137 18.1889L85.4025 18.3472L85.3906 18.5006L85.3781 18.6495L85.3649 18.7944L85.3511 18.9355L85.3366 19.073L85.3214 19.2071L85.305 19.3381L85.2885 19.4661L85.2714 19.5914L85.2536 19.714L85.2345 19.834L85.2153 19.9517L85.1956 20.0671L85.1745 20.1802L85.1534 20.2912L85.131 20.4002L85.1079 20.5073L85.0849 20.6125L85.0605 20.7158L85.0355 20.8175L85.0098 20.9174L84.9834 21.0157L84.9564 21.1125L84.9287 21.2076L84.9004 21.3013L84.8714 21.3935L84.8418 21.4843L84.8108 21.5738L84.7798 21.6618L84.7475 21.7486L84.7152 21.8341L84.6816 21.9183L84.6474 22.0013L84.6124 22.083L84.5769 22.1636L84.5406 22.2431L84.5037 22.3215L84.4655 22.3986L84.4273 22.4747L84.3877 22.5497L84.3476 22.6237L84.3067 22.6966L84.2652 22.7685L84.223 22.8394L84.1802 22.9093L84.136 22.9783L84.0919 23.0462L84.0464 23.1132L84.0003 23.1793L83.9535 23.2443L83.9054 23.3085L83.8573 23.3719L83.8079 23.4342L83.7578 23.4957L83.7071 23.5563L83.655 23.6161L83.6023 23.6749L83.5496 23.733L83.4949 23.7902L83.4402 23.8465L83.3842 23.9021L83.3276 23.9567L83.2702 24.0106L83.2116 24.0636L83.1523 24.1159L83.0923 24.1674L83.031 24.218L82.9691 24.2679L82.9065 24.317L82.8426 24.3654L82.778 24.4129L82.7128 24.4597L82.6462 24.5058L82.5784 24.551L82.5098 24.5955L82.4407 24.6393L82.3702 24.6824L82.299 24.7246L82.2265 24.7662L82.1527 24.807L82.0783 24.8471L82.0025 24.8865L81.926 24.9252L81.8483 24.9631L81.7692 25.0002L81.6895 25.0368L81.6085 25.0725L81.5261 25.1076L81.4424 25.142L81.3574 25.1757L81.2717 25.2086L81.1841 25.2409L81.0958 25.2725L81.0055 25.3034L80.9146 25.3336L80.8217 25.3631L80.7275 25.3919L80.6319 25.42L80.5351 25.4475L80.4362 25.4743L80.3361 25.5003L80.2346 25.5258L80.1305 25.5505L80.0257 25.5746L79.9183 25.5979L79.8096 25.6207L79.6983 25.6427L79.5856 25.6641L79.4703 25.6847L79.353 25.7048L79.2337 25.7242L79.1118 25.7429L78.9873 25.7609L78.8608 25.7783L78.731 25.7951L78.5979 25.8111L78.4621 25.8265L78.3238 25.8412L78.1814 25.8553L78.0352 25.8688L77.8849 25.8815L77.7307 25.8936L77.5719 25.9051L77.4085 25.9159L77.2392 25.926L77.0639 25.9355L76.8821 25.9444L76.6936 25.9525L76.4959 25.9601L76.2897 25.967L76.0729 25.9732L75.8429 25.9788L75.5985 25.9837L75.3356 25.988L75.0503 25.9916L74.7353 25.9946L74.3775 25.9969L73.9558 25.9986L73.4122 25.9996L65.7652 26L64.0905 25.9997L63.5153 25.9988L63.0795 25.9972L62.714 25.995L62.393 25.9921L62.1033 25.9886L61.8374 25.9845L61.5902 25.9796L61.3584 25.9741L61.1394 25.968L60.9313 25.9612L60.7328 25.9538L60.5426 25.9457L60.3598 25.9369L60.1838 25.9276L60.0136 25.9175L59.8491 25.9069L59.6895 25.8955L59.5345 25.8835L59.3839 25.8708L59.2372 25.8575L59.0943 25.8435L58.9548 25.8289L58.8186 25.8136L58.6855 25.7977L58.5553 25.781L58.428 25.7637L58.3032 25.7458L58.1809 25.7272L58.061 25.708L57.9435 25.688L57.828 25.6674L57.7148 25.6461L57.6035 25.6242L57.4942 25.6016L57.3868 25.5783L57.2812 25.5544L57.1774 25.5297L57.0752 25.5044L56.9747 25.4784L56.8759 25.4518L56.7786 25.4244L56.6828 25.3964L56.5884 25.3677L56.4955 25.3383L56.404 25.3082L56.3138 25.2775L56.2251 25.246L56.1376 25.2138L56.0513 25.181L55.9664 25.1474L55.8826 25.1131L55.8001 25.0782L55.7188 25.0425L55.6386 25.0061L55.5595 24.969L55.4816 24.9312L55.4047 24.8927L55.329 24.8534L55.2543 24.8134L55.1806 24.7727L55.108 24.7313L55.0365 24.6891L54.9659 24.6462L54.8963 24.6026L54.8277 24.5582L54.76 24.513L54.6934 24.4671L54.6276 24.4204L54.5628 24.373L54.4989 24.3248L54.4359 24.2758L54.3739 24.226L54.3127 24.1755L54.2524 24.1242L54.1931 24.072L54.1345 24.0191L54.0768 23.9654L54.02 23.9108L53.964 23.8554L53.9089 23.7992L53.8546 23.7422L53.8011 23.6842L53.7485 23.6255L53.6967 23.5659L53.6457 23.5054L53.5955 23.4441L53.5461 23.3818L53.4974 23.3187L53.4496 23.2547L53.4025 23.1897L53.3563 23.1237L53.3108 23.0569L53.2661 22.9891L53.2221 22.9204L53.179 22.8506L53.1365 22.7799L53.0949 22.7081L53.054 22.6354L53.0139 22.5616L52.9744 22.4867L52.9358 22.4108L52.8978 22.3338L52.8607 22.2557L52.8242 22.1764L52.7884 22.096L52.7535 22.0144L52.7192 21.9316L52.6857 21.8475L52.6528 21.7623L52.6207 21.6757L52.5893 21.5879L52.5586 21.4987L52.5287 21.4081L52.4994 21.3161L52.4709 21.2226L52.443 21.1277L52.416 21.0312L52.3895 20.9332L52.3638 20.8335L52.3388 20.7321L52.3144 20.629L52.2908 20.5241L52.2679 20.4174L52.2457 20.3087L52.2241 20.198L52.2033 20.0852L52.1831 19.9702L52.1637 19.8529L52.1449 19.7333L52.1268 19.6111L52.1094 19.4863L52.0926 19.3587L52.0766 19.2282L52.0613 19.0945L52.0466 18.9576L52.0326 18.8171L52.0193 18.6729L52.0067 18.5245L51.9948 18.3719L51.9835 18.2144L51.9729 18.0519L51.963 17.8836L51.9538 17.7091L51.9452 17.5275L51.9374 17.3382L51.9301 17.14L51.9236 16.9316L51.9178 16.7113L51.9126 16.4769L51.9081 16.2253L51.9043 15.9522L51.9011 15.6509L51.8987 15.3105L51.8969 14.9102L51.8958 14.3996L51.8954 13.5188L51.8956 11.808L51.8965 11.2363L51.898 10.809L51.9003 10.4526L51.9033 10.1403L51.9068 9.85907L51.9111 9.60121L51.9161 9.36169L51.9217 9.13718L51.928 8.92521L51.935 8.72391L51.9427 8.53183L51.951 8.34795L51.96 8.17128L51.9697 8.00111L51.98 7.83672L51.9911 7.67773L52.0028 7.52355L52.0152 7.37392L52.0283 7.22839L52.0421 7.08675L52.0565 6.94869L52.0717 6.81401L52.0875 6.68252L52.104 6.55402L52.1212 6.42835L52.139 6.30535L52.1576 6.1849L52.1768 6.06688L52.1968 5.95118L52.2174 5.83769L52.2387 5.72632L52.2607 5.61699L52.2834 5.50963L52.3068 5.40415L52.331 5.30048L52.3557 5.19858L52.3812 5.09837L52.4075 4.99981L52.4343 4.90285L52.462 4.80743L52.4903 4.71351L52.5193 4.62106L52.5491 4.53003L52.5795 4.44038L52.6106 4.35209L52.6425 4.26513L52.6751 4.17945L52.7084 4.09503L52.7425 4.01185L52.7772 3.92987L52.8127 3.84908L52.8489 3.76945L52.8859 3.69095L52.9236 3.61358L52.962 3.53731L53.0012 3.46211L53.0411 3.38797L53.0818 3.31488L53.1232 3.24282L53.1654 3.17177L53.2083 3.10172L53.252 3.03265L53.2965 2.96455L53.3417 2.89741L53.3877 2.83121L53.4345 2.76594L53.4821 2.70161L53.5304 2.63817L53.5796 2.57564L53.6296 2.51401L53.6804 2.45326L53.7319 2.39337L53.7843 2.33435L53.8375 2.27618L53.8915 2.21887L53.9464 2.16239L54.0021 2.10674L54.0586 2.05192L54.116 1.99792L54.1743 1.94472L54.2334 1.89233L54.2934 1.84075L54.3543 1.78995L54.4161 1.73994L54.4788 1.69071L54.5423 1.64226L54.6068 1.59458L54.6723 1.54767L54.7387 1.50151L54.806 1.45612L54.8743 1.41147L54.9436 1.36759L55.0139 1.32443L55.0852 1.28203L55.1574 1.24036L55.2307 1.19942L55.3051 1.15921L55.3805 1.11972L55.457 1.08096L55.5346 1.04293L55.6133 1.0056L55.6931 0.968987L55.7741 0.933088L55.8562 0.897897L55.9396 0.863414L56.0242 0.829627L56.11 0.796549L56.1971 0.764159L56.2854 0.732472L56.3751 0.70148L56.4662 0.671177L56.5586 0.641558L56.6525 0.612631L56.7479 0.584388L56.8447 0.55683L56.9431 0.529952L57.0431 0.503755L57.1447 0.478236L57.248 0.453394L57.353 0.429227L57.4598 0.405733L57.5685 0.382912L57.6791 0.360762L57.7917 0.339282L57.9064 0.318469L58.0233 0.298325L58.1425 0.278845L58.264 0.260031L58.3879 0.241881L58.5145 0.224394L58.6438 0.207568L58.7759 0.191404L58.9111 0.175898L59.0495 0.161053L59.1913 0.146866L59.3367 0.133336L59.4861 0.120463L59.6396 0.108246L59.7977 0.0966855L59.9607 0.0857799L60.1289 0.075528L60.303 0.0659301L60.4836 0.0569856L60.6714 0.048694L60.8671 0.0410548L61.072 0.0340678L61.2873 0.0277324L61.5148 0.0220485L61.7568 0.0170157L62.0163 0.0126338L62.2978 0.00890246L62.6077 0.00582158L62.9571 0.003391L63.3663 0.0016106L63.8831 0.000480288L64.7252 0L73.1875 0.000169717L73.801 0.000989449L74.2523 0.00245923L74.6266 0.00457914L74.9534 0.00734929L75.2479 0.0107698L75.5168 0.0148409L75.7672 0.0195627L76.0011 0.0249355L76.2218 0.0309595L76.4314 0.0376351L76.6317 0.0449626L76.8228 0.0529424L77.0066 0.061575L77.1838 0.0708604L77.3552 0.0807995L77.5205 0.0913932L77.6807 0.102641L77.8362 0.114544L77.9877 0.127104L78.1353 0.140319L78.2783 0.154192L78.4186 0.168723L78.555 0.183913L78.6888 0.199762L78.8193 0.216272L78.9471 0.233443L79.0723 0.251276L79.1948 0.269773L79.3154 0.288935L79.4334 0.308761L79.5493 0.329254L79.6627 0.350416L79.774 0.372245L79.8841 0.394746L79.9915 0.417917L80.0976 0.441763L80.2017 0.466282L80.3038 0.491477L80.4046 0.517351L80.5041 0.543902L80.6016 0.571135L80.6972 0.599052L80.7921 0.627652L80.885 0.656935L80.9766 0.686913L81.0675 0.71758L81.1564 0.748936L81.2441 0.780988L81.3304 0.813735L81.4154 0.847184L81.4997 0.881335L81.5821 0.916188L81.6638 0.951749L81.7442 0.988019L81.8233 1.025L81.9017 1.0627L81.9788 1.10111L82.0545 1.14025L82.129 1.18011L82.2028 1.22071L82.2759 1.26203L82.3478 1.30408L82.4183 1.34688L82.4881 1.39041L82.5566 1.4347L82.6245 1.47973L82.6917 1.52552L82.7576 1.57207L82.8222 1.61938L82.8861 1.66746L82.9493 1.71632L83.0119 1.76596L83.0732 1.81637L83.1332 1.86759L83.1931 1.91959L83.2518 1.9724L83.3091 2.02602L83.3664 2.08044L83.4224 2.1357L83.4778 2.19177L83.5318 2.24869L83.5859 2.30645L83.6386 2.36506L83.6906 2.42453L83.7414 2.48487L83.7921 2.54609L83.8415 2.60819L83.8903 2.67119L83.9384 2.73509L83.9852 2.79991L84.0319 2.86566L84.0774 2.93234L84.1222 2.99999L84.1664 3.06859L84.2098 3.13817L84.252 3.20874L84.2942 3.28032L84.335 3.35292L84.3752 3.42655L84.4148 3.50124L84.4536 3.577L84.4912 3.65385L84.5288 3.73181L84.5657 3.81089L84.6012 3.89112L84.6362 3.97253L84.6711 4.05514L84.7047 4.13896L84.7376 4.22403L84.7693 4.31038L84.8009 4.39804L84.8319 4.48703L84.8622 4.57739L84.8912 4.66916L84.9202 4.76237L84.9478 4.85706L84.9748 4.95329L85.0019 5.05108L85.0276 5.15049L85.0526 5.25158L85.077 5.35439L85.1007 5.459L85.1238 5.56546L85.1462 5.67384L85.1679 5.78422L85.189 5.89668L85.2088 6.01132L85.2285 6.12822L85.2476 6.24749L85.2654 6.36925L85.2832 6.49363L85.3004 6.62077L85.3162 6.75083L85.332 6.88396L85.3465 7.02032L85.3603 7.16027L85.3742 7.30385L85.3867 7.45153L85.3985 7.6035L85.4104 7.76015L85.4209 7.92187L85.4308 8.08918L85.44 8.26273L85.4486 8.44304L85.4565 8.63109L85.4638 8.82778L85.471 9.03442L85.4769 9.25268L85.4822 9.48467L85.4868 9.73329L85.4908 10.0027L85.4934 10.2989L85.496 10.632L85.498 11.0206L85.4993 11.5073L85.5 12.2663V13ZM65.7326 20.15H71.0039C75.9978 20.15 78.9109 17.0857 78.9109 12.9591C78.9109 8.7917 76.0373 5.85 71.0829 5.85H65.7326V20.15ZM63.0969 20.15H59.1434V5.85H63.0969V20.15ZM14.9661 13C14.9661 16.944 12.0688 20.475 7.71255 20.475C3.35625 20.475 0.5 16.9853 0.5 13C0.5 9.05599 3.39735 5.525 7.75366 5.525C12.1099 5.525 14.9661 9.01472 14.9661 13ZM1.60962 13C1.60962 16.5723 4.19874 19.5045 7.75366 19.5045C11.3085 19.5045 13.8565 16.6136 13.8565 13C13.8565 9.42766 11.2675 6.49551 7.71255 6.49551C4.15764 6.49551 1.60962 9.38639 1.60962 13ZM19.9688 20.15H18.9496V5.85H19.9484L29.7936 18.291V5.85H30.8128V20.15H30.0178L19.9688 7.44341V20.15ZM45.3062 20.15H35.0534V5.85H45.2043V6.83059H36.1133V12.4484H44.2871V13.429H36.1133V19.1694H45.3062V20.15ZM71.7933 17.6439C72.182 17.6329 72.6248 17.5828 73.0755 17.4703C73.1295 17.457 73.1842 17.4428 73.2409 17.4274C73.5888 17.3322 73.9657 17.1921 74.3531 16.9575C74.448 16.9018 74.5403 16.8419 74.6312 16.7777L74.6279 16.7763C74.904 16.5783 75.1834 16.3278 75.4608 16.0076C75.5741 15.8762 75.7698 15.5986 75.8805 15.3832C75.6242 15.115 75.2341 14.8946 74.8684 14.7007L74.8295 14.6799C74.6602 14.5898 74.3531 14.4267 74.0672 14.3162C74.0369 14.3045 74.0046 14.293 73.9723 14.2811C73.7252 14.1913 73.4359 14.0861 73.4069 13.7964C73.3845 13.5729 73.4992 13.4333 73.6362 13.2669C73.6692 13.2269 73.7035 13.1854 73.7371 13.1408C74.1364 12.6148 74.5119 11.8973 74.4441 10.9258C74.3775 9.9723 73.7588 9.23182 72.7236 9.11755C72.6037 9.10435 72.4871 9.09863 72.3738 9.10026C72.2604 9.09863 72.1431 9.10435 72.0232 9.11755C70.9881 9.23182 70.3693 9.9723 70.3028 10.9258C70.2349 11.8973 70.6105 12.6148 71.0098 13.1408C71.0441 13.1854 71.0777 13.2269 71.1106 13.2669C71.2477 13.4333 71.3623 13.5729 71.3399 13.7964C71.3109 14.0861 71.0217 14.1913 70.7746 14.2811C70.7423 14.293 70.7107 14.3045 70.6804 14.3162C70.3937 14.4267 70.0873 14.5898 69.9173 14.6799L69.8784 14.7007C69.3355 14.9884 68.7398 15.3346 68.6061 15.8081C68.442 16.3874 68.3537 17.1146 68.3702 17.6439H69.2973C69.5556 17.6439 69.8211 17.6465 70.0919 17.6492C70.6481 17.6546 71.2246 17.6601 71.7933 17.6439Z" fill="white"/>
</g>
<defs>
<clipPath id="clip0_2350_2313">
<rect width="85" height="26" fill="white" transform="translate(0.5)"/>
</clipPath>
</defs>
<script xmlns=""/></svg>
