<svg width="40" height="41" viewBox="0 0 40 41" fill="none" xmlns="http://www.w3.org/2000/svg">
<path d="M28.3335 5.5H11.6668C6.66683 5.5 3.3335 8 3.3335 13.8333V25.5C3.3335 31.3333 6.66683 33.8333 11.6668 33.8333H17.6168C18.6002 33.8333 19.4002 32.9667 19.2668 31.9833C19.1002 30.8 19.1335 29.5667 19.3835 28.3C20.2668 23.9667 23.8335 20.5167 28.2002 19.8C30.3835 19.45 32.4668 19.75 34.3002 20.55C35.4168 21.0333 36.6668 20.2667 36.6668 19.05V13.8333C36.6668 8 33.3335 5.5 28.3335 5.5ZM29.1168 14.8167L23.9002 18.9833C22.8002 19.8667 21.4002 20.3 20.0002 20.3C18.6002 20.3 17.1835 19.8667 16.1002 18.9833L10.8835 14.8167C10.3502 14.3833 10.2668 13.6 10.6835 13.05C11.1168 12.5167 11.9002 12.4167 12.4335 12.85L17.6502 17.0167C18.9168 18.0333 21.0668 18.0333 22.3335 17.0167L27.5502 12.85C28.0835 12.4167 28.8835 12.5 29.3002 13.05C29.7335 13.6 29.6502 14.3833 29.1168 14.8167Z" fill="#47579D"/>
<path d="M29.9998 22.1666C25.3998 22.1666 21.6665 25.8833 21.6665 30.5C21.6665 35.1 25.3998 38.8333 29.9998 38.8333C34.6165 38.8333 38.3332 35.1 38.3332 30.5C38.3332 25.8833 34.6165 22.1666 29.9998 22.1666ZM33.4165 29.75L32.7998 30.35L29.1665 34C28.9998 34.15 28.6832 34.3166 28.4498 34.35L26.8165 34.5833C26.2332 34.6666 25.8165 34.25 25.8998 33.6666L26.1332 32.0333C26.1665 31.8 26.3165 31.4833 26.4832 31.3166L30.1165 27.7L30.7165 27.0833C31.1165 26.6833 31.5665 26.4166 32.0332 26.4166C32.4332 26.4166 32.8832 26.6 33.3832 27.0833C34.4998 28.1666 34.1498 29.0166 33.4165 29.75Z" fill="#47579D"/>
</svg>
