<svg width="40" height="41" viewBox="0 0 40 41" fill="none" xmlns="http://www.w3.org/2000/svg">
<path d="M35.9335 18.4L33.6668 15.7667C33.2335 15.2667 32.8835 14.3333 32.8835 13.6667V10.8333C32.8835 9.06666 31.4335 7.61666 29.6668 7.61666H26.8335C26.1835 7.61666 25.2335 7.26666 24.7335 6.83333L22.1001 4.56666C20.9501 3.58333 19.0668 3.58333 17.9001 4.56666L15.2835 6.85C14.7835 7.26666 13.8335 7.61666 13.1835 7.61666H10.3001C8.53346 7.61666 7.08346 9.06666 7.08346 10.8333V13.6833C7.08346 14.3333 6.73346 15.2667 6.3168 15.7667L4.0668 18.4167C3.10013 19.5667 3.10013 21.4333 4.0668 22.5833L6.3168 25.2333C6.73346 25.7333 7.08346 26.6667 7.08346 27.3167V30.1667C7.08346 31.9333 8.53346 33.3833 10.3001 33.3833H13.1835C13.8335 33.3833 14.7835 33.7333 15.2835 34.1667L17.9168 36.4333C19.0668 37.4167 20.9501 37.4167 22.1168 36.4333L24.7501 34.1667C25.2501 33.7333 26.1835 33.3833 26.8501 33.3833H29.6835C31.4501 33.3833 32.9001 31.9333 32.9001 30.1667V27.3333C32.9001 26.6833 33.2501 25.7333 33.6835 25.2333L35.9501 22.6C36.9168 21.45 36.9168 19.55 35.9335 18.4ZM27.8001 20.5L25.8501 26.4333C25.6001 27.4167 24.5501 28.2167 23.4835 28.2167H20.4001C19.8668 28.2167 19.1168 28.0333 18.7835 27.7L16.3335 25.7833C16.2835 26.85 15.8001 27.3 14.6168 27.3H13.8168C12.5835 27.3 12.0835 26.8167 12.0835 25.65V17.6833C12.0835 16.5167 12.5835 16.0333 13.8168 16.0333H14.6335C15.8668 16.0333 16.3668 16.5167 16.3668 17.6833V18.2833L19.6001 13.4833C19.9335 12.9667 20.7835 12.6 21.5001 12.8833C22.2835 13.15 22.7835 14.0167 22.6168 14.7833L22.2168 17.3833C22.1835 17.6167 22.2335 17.8333 22.3835 18C22.5168 18.15 22.7168 18.25 22.9335 18.25H26.1835C26.8168 18.25 27.3501 18.5 27.6668 18.95C27.9501 19.3833 28.0001 19.9333 27.8001 20.5Z" fill="#47579D"/>
</svg>
