<svg width="40" height="41" viewBox="0 0 40 41" fill="none" xmlns="http://www.w3.org/2000/svg">
<path d="M30.0002 5.5H10.0002C6.31683 5.5 3.3335 8.46667 3.3335 12.1167V28.8833C3.3335 32.5333 6.31683 35.5 10.0002 35.5H30.0002C33.6835 35.5 36.6668 32.5333 36.6668 28.8833V12.1167C36.6668 8.46667 33.6835 5.5 30.0002 5.5ZM14.1668 12.45C16.2835 12.45 18.0168 14.1833 18.0168 16.3C18.0168 18.4167 16.2835 20.15 14.1668 20.15C12.0502 20.15 10.3168 18.4167 10.3168 16.3C10.3168 14.1833 12.0502 12.45 14.1668 12.45ZM20.6168 28.2667C20.4668 28.4333 20.2335 28.5333 20.0002 28.5333H8.3335C8.10016 28.5333 7.86683 28.4333 7.71683 28.2667C7.56683 28.1 7.4835 27.8667 7.50016 27.6333C7.7835 24.8333 10.0168 22.6167 12.8168 22.35C13.7002 22.2667 14.6168 22.2667 15.5002 22.35C18.3002 22.6167 20.5502 24.8333 20.8168 27.6333C20.8502 27.8667 20.7668 28.1 20.6168 28.2667ZM31.6668 28.4167H28.3335C27.6502 28.4167 27.0835 27.85 27.0835 27.1667C27.0835 26.4833 27.6502 25.9167 28.3335 25.9167H31.6668C32.3502 25.9167 32.9168 26.4833 32.9168 27.1667C32.9168 27.85 32.3502 28.4167 31.6668 28.4167ZM31.6668 21.75H25.0002C24.3168 21.75 23.7502 21.1833 23.7502 20.5C23.7502 19.8167 24.3168 19.25 25.0002 19.25H31.6668C32.3502 19.25 32.9168 19.8167 32.9168 20.5C32.9168 21.1833 32.3502 21.75 31.6668 21.75ZM31.6668 15.0833H23.3335C22.6502 15.0833 22.0835 14.5167 22.0835 13.8333C22.0835 13.15 22.6502 12.5833 23.3335 12.5833H31.6668C32.3502 12.5833 32.9168 13.15 32.9168 13.8333C32.9168 14.5167 32.3502 15.0833 31.6668 15.0833Z" fill="#47579D"/>
</svg>
