<svg width="40" height="41" viewBox="0 0 40 41" fill="none" xmlns="http://www.w3.org/2000/svg">
<path d="M19.9998 3.83331C15.3998 3.83331 11.6665 7.56665 11.6665 12.1666C11.6665 16.7666 15.3998 20.5 19.9998 20.5C24.5998 20.5 28.3332 16.7666 28.3332 12.1666C28.3332 7.56665 24.5998 3.83331 19.9998 3.83331ZM23.6165 11.35L19.1165 15.85C18.9498 16.0166 18.5998 16.1833 18.3665 16.2333L16.6498 16.4666C16.0165 16.55 15.5832 16.1166 15.6832 15.5L15.9332 13.7833C15.9665 13.55 16.1332 13.2 16.3165 13.0333L20.8165 8.53331C21.5832 7.76665 22.4998 7.39998 23.6332 8.53331C24.7498 9.68331 24.3832 10.5833 23.6165 11.35Z" fill="#47579D"/>
<path d="M20.0001 23.8334C11.6501 23.8334 4.8501 29.4334 4.8501 36.3334C4.8501 36.8 5.21676 37.1667 5.68343 37.1667H34.3168C34.7834 37.1667 35.1501 36.8 35.1501 36.3334C35.1501 29.4334 28.3501 23.8334 20.0001 23.8334Z" fill="#47579D"/>
</svg>
