<svg width="40" height="41" viewBox="0 0 40 41" fill="none" xmlns="http://www.w3.org/2000/svg">
<path d="M34.2335 32.2333C33.9835 32.4833 33.6668 32.6 33.3501 32.6C33.0335 32.6 32.7168 32.4833 32.4668 32.2333L24.2168 23.9833L25.1001 23.1L25.9835 22.2167L34.2335 30.4667C34.7168 30.95 34.7168 31.75 34.2335 32.2333Z" fill="#47579D"/>
<path d="M10.7834 15.9667L20.4501 25.6333C21.1001 26.2833 21.1001 27.3333 20.4501 27.9833L18.9501 29.5C17.6001 30.8333 15.4668 30.8333 14.1334 29.5L6.9001 22.2667C5.58343 20.95 5.58343 18.8 6.9001 17.4667L8.41676 15.95C9.06676 15.3167 10.1334 15.3167 10.7834 15.9667Z" fill="#47579D"/>
<path d="M30.9834 17.4833L24.6334 23.8166C23.9668 24.4833 22.9001 24.4833 22.2334 23.8166L12.6001 14.1833C11.9334 13.5166 11.9334 12.45 12.6001 11.7833L18.9501 5.4333C20.2668 4.11663 22.4168 4.11663 23.7501 5.4333L30.9834 12.6666C32.3001 14 32.3001 16.1333 30.9834 17.4833Z" fill="#47579D"/>
<path d="M13.3335 36.75H3.3335C2.65016 36.75 2.0835 36.1833 2.0835 35.5C2.0835 34.8167 2.65016 34.25 3.3335 34.25H13.3335C14.0168 34.25 14.5835 34.8167 14.5835 35.5C14.5835 36.1833 14.0168 36.75 13.3335 36.75Z" fill="#47579D"/>
</svg>
