<svg width="40" height="41" viewBox="0 0 40 41" fill="none" xmlns="http://www.w3.org/2000/svg">
    <path d="M25 38.4167C24.55 38.4167 24.1334 38.1667 23.9167 37.7834C23.7 37.3834 23.7 36.9167 23.9334 36.5167L25.6834 33.6001C26.0334 33.0167 26.8 32.8167 27.4 33.1667C28 33.5167 28.1834 34.2834 27.8334 34.8834L27.3834 35.6334C31.9834 34.5501 35.4334 30.4167 35.4334 25.4834C35.4334 24.8001 36 24.2334 36.6834 24.2334C37.3667 24.2334 37.9334 24.8001 37.9334 25.4834C37.9167 32.6167 32.1167 38.4167 25 38.4167Z" fill="#47579D"/>
    <path d="M3.33337 16.7499C2.65004 16.7499 2.08337 16.1833 2.08337 15.4999C2.08337 8.38325 7.88337 2.58325 15 2.58325C15.45 2.58325 15.8667 2.83325 16.0834 3.21659C16.3 3.61659 16.3 4.08325 16.0667 4.48325L14.3167 7.39992C13.9667 7.98325 13.2 8.18325 12.6 7.81659C12.0167 7.46659 11.8167 6.69992 12.1834 6.09992L12.6334 5.34992C8.01671 6.43325 4.58337 10.5666 4.58337 15.4999C4.58337 16.1833 4.01671 16.7499 3.33337 16.7499Z" fill="#47579D"/>
    <path d="M27.3334 14.1834L21.0667 10.8001C20.4 10.4501 19.6167 10.4501 18.95 10.8001L12.6667 14.1834C12.2167 14.4334 11.9333 14.9168 11.9333 15.4501C11.9333 16.0001 12.2167 16.4834 12.6667 16.7334L18.9333 20.1168C19.2667 20.3001 19.6334 20.3834 20 20.3834C20.3667 20.3834 20.7334 20.3001 21.0667 20.1168L27.3334 16.7334C27.7833 16.4834 28.0667 16.0001 28.0667 15.4501C28.0667 14.9168 27.7833 14.4334 27.3334 14.1834Z" fill="#47579D"/>
    <path d="M17.9 21.2832L12.0667 18.3666C11.6167 18.1499 11.1 18.1666 10.6667 18.4332C10.25 18.6999 10 19.1499 10 19.6499V25.1666C10 26.1165 10.5333 26.9832 11.3833 27.3999L17.2167 30.3165C17.4167 30.4165 17.6333 30.4665 17.8667 30.4665C18.1333 30.4665 18.3833 30.3999 18.6167 30.2499C19.05 29.9832 19.3 29.5332 19.3 29.0332V23.5166C19.2833 22.5666 18.7667 21.7165 17.9 21.2832Z" fill="#47579D"/>
    <path d="M29.3166 18.4332C28.8833 18.1666 28.3666 18.1499 27.9166 18.3666L22.0833 21.2832C21.2333 21.7165 20.7 22.5666 20.7 23.5166V29.0332C20.7 29.5332 20.95 29.9832 21.3833 30.2499C21.6166 30.3999 21.8666 30.4665 22.1333 30.4665C22.35 30.4665 22.5666 30.4165 22.7833 30.3165L28.6166 27.3999C29.4666 26.9665 30 26.1165 30 25.1666V19.6499C30 19.1499 29.75 18.6999 29.3166 18.4332Z" fill="#47579D"/>
</svg>