<svg width="40" height="41" viewBox="0 0 40 41" fill="none" xmlns="http://www.w3.org/2000/svg">
<path d="M27.9169 6.43331V3.83331C27.9169 3.14998 27.3502 2.58331 26.6669 2.58331C25.9836 2.58331 25.4169 3.14998 25.4169 3.83331V6.33331H14.5836V3.83331C14.5836 3.14998 14.0169 2.58331 13.3336 2.58331C12.6502 2.58331 12.0836 3.14998 12.0836 3.83331V6.43331C7.58355 6.84998 5.40022 9.53331 5.06689 13.5166C5.03355 14 5.43355 14.4 5.90022 14.4H34.1002C34.5835 14.4 34.9835 13.9833 34.9335 13.5166C34.6002 9.53331 32.4169 6.84998 27.9169 6.43331Z" fill="#47579D"/>
<path d="M33.3333 16.9H6.66667C5.75 16.9 5 17.65 5 18.5667V28.8334C5 33.8334 7.5 37.1667 13.3333 37.1667H26.6667C32.5 37.1667 35 33.8334 35 28.8334V18.5667C35 17.65 34.25 16.9 33.3333 16.9ZM15.35 30.85C15.2667 30.9167 15.1833 31 15.1 31.05C15 31.1167 14.9 31.1667 14.8 31.2C14.7 31.25 14.6 31.2834 14.5 31.3C14.3833 31.3167 14.2833 31.3334 14.1667 31.3334C13.95 31.3334 13.7333 31.2834 13.5333 31.2C13.3167 31.1167 13.15 31 12.9833 30.85C12.6833 30.5334 12.5 30.1 12.5 29.6667C12.5 29.2334 12.6833 28.8 12.9833 28.4834C13.15 28.3334 13.3167 28.2167 13.5333 28.1334C13.8333 28 14.1667 27.9667 14.5 28.0334C14.6 28.05 14.7 28.0834 14.8 28.1334C14.9 28.1667 15 28.2167 15.1 28.2834C15.1833 28.35 15.2667 28.4167 15.35 28.4834C15.65 28.8 15.8333 29.2334 15.8333 29.6667C15.8333 30.1 15.65 30.5334 15.35 30.85ZM15.35 25.0167C15.0333 25.3167 14.6 25.5 14.1667 25.5C13.7333 25.5 13.3 25.3167 12.9833 25.0167C12.6833 24.7 12.5 24.2667 12.5 23.8334C12.5 23.4 12.6833 22.9667 12.9833 22.65C13.45 22.1834 14.1833 22.0334 14.8 22.3C15.0167 22.3834 15.2 22.5 15.35 22.65C15.65 22.9667 15.8333 23.4 15.8333 23.8334C15.8333 24.2667 15.65 24.7 15.35 25.0167ZM21.1833 30.85C20.8667 31.15 20.4333 31.3334 20 31.3334C19.5667 31.3334 19.1333 31.15 18.8167 30.85C18.5167 30.5334 18.3333 30.1 18.3333 29.6667C18.3333 29.2334 18.5167 28.8 18.8167 28.4834C19.4333 27.8667 20.5667 27.8667 21.1833 28.4834C21.4833 28.8 21.6667 29.2334 21.6667 29.6667C21.6667 30.1 21.4833 30.5334 21.1833 30.85ZM21.1833 25.0167C21.1 25.0834 21.0167 25.15 20.9333 25.2167C20.8333 25.2834 20.7333 25.3334 20.6333 25.3667C20.5333 25.4167 20.4333 25.45 20.3333 25.4667C20.2167 25.4834 20.1167 25.5 20 25.5C19.5667 25.5 19.1333 25.3167 18.8167 25.0167C18.5167 24.7 18.3333 24.2667 18.3333 23.8334C18.3333 23.4 18.5167 22.9667 18.8167 22.65C18.9667 22.5 19.15 22.3834 19.3667 22.3C19.9833 22.0334 20.7167 22.1834 21.1833 22.65C21.4833 22.9667 21.6667 23.4 21.6667 23.8334C21.6667 24.2667 21.4833 24.7 21.1833 25.0167ZM27.0167 30.85C26.7 31.15 26.2667 31.3334 25.8333 31.3334C25.4 31.3334 24.9667 31.15 24.65 30.85C24.35 30.5334 24.1667 30.1 24.1667 29.6667C24.1667 29.2334 24.35 28.8 24.65 28.4834C25.2667 27.8667 26.4 27.8667 27.0167 28.4834C27.3167 28.8 27.5 29.2334 27.5 29.6667C27.5 30.1 27.3167 30.5334 27.0167 30.85ZM27.0167 25.0167C26.9333 25.0834 26.85 25.15 26.7667 25.2167C26.6667 25.2834 26.5667 25.3334 26.4667 25.3667C26.3667 25.4167 26.2667 25.45 26.1667 25.4667C26.05 25.4834 25.9333 25.5 25.8333 25.5C25.4 25.5 24.9667 25.3167 24.65 25.0167C24.35 24.7 24.1667 24.2667 24.1667 23.8334C24.1667 23.4 24.35 22.9667 24.65 22.65C24.8167 22.5 24.9833 22.3834 25.2 22.3C25.5 22.1667 25.8333 22.1334 26.1667 22.2C26.2667 22.2167 26.3667 22.25 26.4667 22.3C26.5667 22.3334 26.6667 22.3834 26.7667 22.45C26.85 22.5167 26.9333 22.5834 27.0167 22.65C27.3167 22.9667 27.5 23.4 27.5 23.8334C27.5 24.2667 27.3167 24.7 27.0167 25.0167Z" fill="#47579D"/>
</svg>
