<svg width="24" height="24" viewBox="0 0 24 24" fill="none" xmlns="http://www.w3.org/2000/svg">
<path d="M20.5403 19.04C20.3903 19.19 20.2003 19.26 20.0103 19.26C19.8203 19.26 19.6303 19.19 19.4803 19.04L14.5303 14.09L15.0603 13.56L15.5903 13.03L20.5403 17.98C20.8303 18.27 20.8303 18.75 20.5403 19.04Z" fill="#47579D"/>
<path d="M6.46937 9.28009L12.2694 15.0801C12.6594 15.4701 12.6594 16.1001 12.2694 16.4901L11.3694 17.4001C10.5594 18.2001 9.27938 18.2001 8.47937 17.4001L4.13938 13.0601C3.34938 12.2701 3.34938 10.9801 4.13938 10.1801L5.04938 9.27009C5.43938 8.89009 6.07937 8.89009 6.46937 9.28009Z" fill="#47579D"/>
<path d="M18.5907 10.1899L14.7807 13.9899C14.3807 14.3899 13.7407 14.3899 13.3407 13.9899L7.56074 8.20993C7.16074 7.80993 7.16074 7.16993 7.56074 6.76993L11.3707 2.95993C12.1607 2.16993 13.4507 2.16993 14.2507 2.95993L18.5907 7.29993C19.3807 8.09993 19.3807 9.37993 18.5907 10.1899Z" fill="#47579D"/>
<path d="M8 21.75H2C1.59 21.75 1.25 21.41 1.25 21C1.25 20.59 1.59 20.25 2 20.25H8C8.41 20.25 8.75 20.59 8.75 21C8.75 21.41 8.41 21.75 8 21.75Z" fill="#47579D"/>
</svg>
